Rubik-Italic.ufo
<glyph name="quotedbl" format="1">
  <advance width="373"/>
  <unicode hex="0022"/>
  <outline>
    <contour>
      <point x="239" y="674" type="line" name="hr00" smooth="yes"/>
      <point x="245" y="694"/>
      <point x="240" y="710"/>
      <point x="219" y="710" type="curve" smooth="yes"/>
      <point x="165" y="710" type="line" smooth="yes"/>
      <point x="144" y="710"/>
      <point x="133" y="694"/>
      <point x="131" y="674" type="curve" smooth="yes"/>
      <point x="115" y="516" type="line" smooth="yes"/>
      <point x="113" y="498"/>
      <point x="123" y="488"/>
      <point x="137" y="488" type="curve" smooth="yes"/>
      <point x="153" y="488" type="line" smooth="yes"/>
      <point x="167" y="488"/>
      <point x="181" y="498"/>
      <point x="187" y="516" type="curve" smooth="yes"/>
    </contour>
    <contour>
      <point x="397" y="674" type="line" smooth="yes"/>
      <point x="403" y="694"/>
      <point x="398" y="710"/>
      <point x="377" y="710" type="curve" smooth="yes"/>
      <point x="323" y="710" type="line" smooth="yes"/>
      <point x="302" y="710"/>
      <point x="291" y="694"/>
      <point x="289" y="674" type="curve" smooth="yes"/>
      <point x="273" y="516" type="line" smooth="yes"/>
      <point x="271" y="498"/>
      <point x="281" y="488"/>
      <point x="295" y="488" type="curve" smooth="yes"/>
      <point x="311" y="488" type="line" smooth="yes"/>
      <point x="325" y="488"/>
      <point x="339" y="498"/>
      <point x="345" y="516" type="curve" smooth="yes"/>
    </contour>
  </outline>
</glyph>
<glyph name="numbersign" format="1">
  <advance width="687"/>
  <unicode hex="0023"/>
  <outline>
    <contour>
      <point x="615" y="630" type="line" smooth="yes"/>
      <point x="620" y="645"/>
      <point x="611" y="655"/>
      <point x="599" y="655" type="curve" smooth="yes"/>
      <point x="556" y="655" type="line" smooth="yes"/>
      <point x="543" y="655"/>
      <point x="532" y="645"/>
      <point x="527" y="634" type="curve"/>
      <point x="484" y="517" type="line" name="hr01"/>
      <point x="347" y="517" type="line"/>
      <point x="388" y="630" type="line" smooth="yes"/>
      <point x="393" y="645"/>
      <point x="384" y="655"/>
      <point x="372" y="655" type="curve" name="hr02" smooth="yes"/>
      <point x="329" y="655" type="line" smooth="yes"/>
      <point x="316" y="655"/>
      <point x="305" y="645"/>
      <point x="300" y="634" type="curve"/>
      <point x="257" y="517" type="line" name="hr03"/>
      <point x="144" y="517" type="line" smooth="yes"/>
      <point x="129" y="517"/>
      <point x="115" y="505"/>
      <point x="112" y="490" type="curve" smooth="yes"/>
      <point x="105" y="458" type="line" smooth="yes"/>
      <point x="102" y="443"/>
      <point x="111" y="431"/>
      <point x="126" y="431" type="curve" smooth="yes"/>
      <point x="226" y="431" type="line"/>
      <point x="165" y="263" type="line"/>
      <point x="64" y="263" type="line" smooth="yes"/>
      <point x="49" y="263"/>
      <point x="35" y="251"/>
      <point x="32" y="236" type="curve" smooth="yes"/>
      <point x="25" y="204" type="line" smooth="yes"/>
      <point x="22" y="189"/>
      <point x="31" y="177"/>
      <point x="46" y="177" type="curve" name="hr04" smooth="yes"/>
      <point x="134" y="177" type="line"/>
      <point x="93" y="63" type="line" smooth="yes"/>
      <point x="88" y="50"/>
      <point x="98" y="39"/>
      <point x="110" y="39" type="curve" name="hr05" smooth="yes"/>
      <point x="153" y="39" type="line" smooth="yes"/>
      <point x="166" y="39"/>
      <point x="178" y="48"/>
      <point x="182" y="60" type="curve" smooth="yes"/>
      <point x="224" y="177" type="line" name="hr06"/>
      <point x="361" y="177" type="line"/>
      <point x="320" y="63" type="line" smooth="yes"/>
      <point x="315" y="50"/>
      <point x="325" y="39"/>
      <point x="337" y="39" type="curve" name="hr07" smooth="yes"/>
      <point x="380" y="39" type="line" smooth="yes"/>
      <point x="393" y="39"/>
      <point x="405" y="48"/>
      <point x="409" y="60" type="curve" smooth="yes"/>
      <point x="451" y="177" type="line" name="hr08"/>
      <point x="563" y="177" type="line" smooth="yes"/>
      <point x="578" y="177"/>
      <point x="593" y="189"/>
      <point x="596" y="204" type="curve" smooth="yes"/>
      <point x="603" y="236" type="line" smooth="yes"/>
      <point x="606" y="251"/>
      <point x="596" y="263"/>
      <point x="581" y="263" type="curve" smooth="yes"/>
      <point x="482" y="263" type="line"/>
      <point x="543" y="431" type="line"/>
      <point x="643" y="431" type="line" smooth="yes"/>
      <point x="658" y="431"/>
      <point x="673" y="443"/>
      <point x="676" y="458" type="curve" smooth="yes"/>
      <point x="683" y="490" type="line" smooth="yes"/>
      <point x="686" y="505"/>
      <point x="676" y="517"/>
      <point x="661" y="517" type="curve" smooth="yes"/>
      <point x="574" y="517" type="line"/>
    </contour>
    <contour>
      <point x="316" y="431" type="line"/>
      <point x="453" y="431" type="line"/>
      <point x="392" y="263" type="line"/>
      <point x="255" y="263" type="line"/>
    </contour>
  </outline>
</glyph>
<glyph name="dollar" format="1">
  <advance width="610"/>
  <unicode hex="0024"/>
  <outline>
    <contour>
      <point x="446" y="773" type="line"/>
      <point x="449" y="788"/>
      <point x="440" y="800"/>
      <point x="425" y="800" type="curve"/>
      <point x="384" y="800" type="line"/>
      <point x="369" y="800"/>
      <point x="354" y="788"/>
      <point x="351" y="773" type="curve"/>
      <point x="336" y="708" type="line"/>
      <point x="201" y="695"/>
      <point x="127" y="616"/>
      <point x="108" y="524" type="curve" smooth="yes"/>
      <point x="89" y="434"/>
      <point x="128" y="364"/>
      <point x="248" y="326" type="curve" smooth="yes"/>
      <point x="385" y="283"/>
      <point x="469" y="264"/>
      <point x="454" y="194" type="curve" smooth="yes"/>
      <point x="439" y="124"/>
      <point x="360" y="80"/>
      <point x="246" y="80" type="curve" smooth="yes"/>
      <point x="147" y="80"/>
      <point x="110" y="140"/>
      <point x="102" y="176" type="curve" smooth="yes"/>
      <point x="98" y="194"/>
      <point x="89" y="198"/>
      <point x="76" y="198" type="curve"/>
      <point x="35" y="198" type="line"/>
      <point x="23" y="198"/>
      <point x="8" y="188"/>
      <point x="8" y="176" type="curve" smooth="yes"/>
      <point x="5" y="102"/>
      <point x="69" y="17"/>
      <point x="186" y="-4" type="curve"/>
      <point x="171" y="-73" type="line"/>
      <point x="168" y="-88"/>
      <point x="177" y="-100"/>
      <point x="192" y="-100" type="curve"/>
      <point x="233" y="-100" type="line"/>
      <point x="248" y="-100"/>
      <point x="263" y="-88"/>
      <point x="266" y="-73" type="curve"/>
      <point x="280" y="-9" type="line" name="hr01"/>
      <point x="432" y="0"/>
      <point x="525" y="72"/>
      <point x="549" y="184" type="curve" smooth="yes"/>
      <point x="570" y="284"/>
      <point x="523" y="346"/>
      <point x="381" y="386" type="curve" smooth="yes"/>
      <point x="241" y="425"/>
      <point x="185" y="446"/>
      <point x="200" y="516" type="curve" smooth="yes"/>
      <point x="215" y="586"/>
      <point x="280" y="620"/>
      <point x="374" y="620" type="curve" smooth="yes"/>
      <point x="463" y="620"/>
      <point x="498" y="555"/>
      <point x="506" y="529" type="curve" smooth="yes"/>
      <point x="511" y="511"/>
      <point x="517" y="507"/>
      <point x="532" y="507" type="curve"/>
      <point x="573" y="507" type="line"/>
      <point x="585" y="507"/>
      <point x="600" y="517"/>
      <point x="600" y="529" type="curve" smooth="yes"/>
      <point x="600" y="588"/>
      <point x="551" y="682"/>
      <point x="431" y="705" type="curve"/>
    </contour>
  </outline>
</glyph>
<glyph name="quotesingle" format="1">
  <advance width="215"/>
  <unicode hex="0027"/>
  <outline>
    <contour>
      <point x="239" y="674" type="line" name="hr00" smooth="yes"/>
      <point x="245" y="694"/>
      <point x="240" y="710"/>
      <point x="219" y="710" type="curve" smooth="yes"/>
      <point x="165" y="710" type="line" smooth="yes"/>
      <point x="144" y="710"/>
      <point x="133" y="694"/>
      <point x="131" y="674" type="curve" smooth="yes"/>
      <point x="115" y="516" type="line" smooth="yes"/>
      <point x="113" y="498"/>
      <point x="123" y="488"/>
      <point x="137" y="488" type="curve" smooth="yes"/>
      <point x="153" y="488" type="line" smooth="yes"/>
      <point x="167" y="488"/>
      <point x="181" y="498"/>
      <point x="187" y="516" type="curve" smooth="yes"/>
    </contour>
  </outline>
</glyph>
<glyph name="asterisk" format="1">
  <advance width="443"/>
  <unicode hex="002A"/>
  <outline>
    <contour>
      <point x="355" y="700" type="line" name="hr00"/>
      <point x="360" y="713"/>
      <point x="359" y="730"/>
      <point x="341" y="730" type="curve" smooth="yes"/>
      <point x="281" y="730" type="line" smooth="yes"/>
      <point x="265" y="730"/>
      <point x="253" y="714"/>
      <point x="253" y="700" type="curve" smooth="yes"/>
      <point x="253" y="602" type="line"/>
      <point x="178" y="653" type="line"/>
      <point x="164" y="663"/>
      <point x="147" y="652"/>
      <point x="141" y="642" type="curve" smooth="yes"/>
      <point x="111" y="585" type="line" smooth="yes"/>
      <point x="102" y="568"/>
      <point x="114" y="557"/>
      <point x="127" y="556" type="curve" smooth="yes"/>
      <point x="224" y="546" type="line"/>
      <point x="136" y="480" type="line" smooth="yes"/>
      <point x="126" y="472"/>
      <point x="115" y="454"/>
      <point x="127" y="443" type="curve" smooth="yes"/>
      <point x="168" y="408" type="line" smooth="yes"/>
      <point x="176" y="401"/>
      <point x="193" y="404"/>
      <point x="199" y="413" type="curve"/>
      <point x="264" y="510" type="line"/>
      <point x="285" y="420" type="line" smooth="yes"/>
      <point x="289" y="404"/>
      <point x="306" y="402"/>
      <point x="316" y="408" type="curve" smooth="yes"/>
      <point x="373" y="443" type="line" smooth="yes"/>
      <point x="387" y="452"/>
      <point x="389" y="471"/>
      <point x="380" y="480" type="curve" smooth="yes"/>
      <point x="319" y="546" type="line"/>
      <point x="421" y="556" type="line"/>
      <point x="438" y="557"/>
      <point x="451" y="569"/>
      <point x="449" y="585" type="curve" smooth="yes"/>
      <point x="443" y="642" type="line" smooth="yes"/>
      <point x="442" y="659"/>
      <point x="422" y="660"/>
      <point x="410" y="653" type="curve"/>
      <point x="312" y="602" type="line"/>
    </contour>
  </outline>
</glyph>
<glyph name="plus" format="1">
  <advance width="609"/>
  <unicode hex="002B"/>
  <outline>
    <contour>
      <point x="539" y="259" type="line" name="hr00" smooth="yes"/>
      <point x="554" y="259"/>
      <point x="568" y="271"/>
      <point x="571" y="286" type="curve" smooth="yes"/>
      <point x="578" y="317" type="line" smooth="yes"/>
      <point x="581" y="332"/>
      <point x="572" y="344"/>
      <point x="557" y="344" type="curve" smooth="yes"/>
      <point x="360" y="344" type="line"/>
      <point x="401" y="540" type="line" smooth="yes"/>
      <point x="404" y="555"/>
      <point x="395" y="567"/>
      <point x="380" y="567" type="curve" smooth="yes"/>
      <point x="343" y="567" type="line" smooth="yes"/>
      <point x="328" y="567"/>
      <point x="313" y="555"/>
      <point x="310" y="540" type="curve" smooth="yes"/>
      <point x="269" y="344" type="line"/>
      <point x="73" y="344" type="line" smooth="yes"/>
      <point x="58" y="344"/>
      <point x="43" y="332"/>
      <point x="40" y="317" type="curve" smooth="yes"/>
      <point x="33" y="286" type="line" smooth="yes"/>
      <point x="30" y="271"/>
      <point x="40" y="259"/>
      <point x="55" y="259" type="curve" smooth="yes"/>
      <point x="251" y="259" type="line"/>
      <point x="208" y="60" type="line" smooth="yes"/>
      <point x="205" y="45"/>
      <point x="215" y="33"/>
      <point x="230" y="33" type="curve" smooth="yes"/>
      <point x="267" y="33" type="line" smooth="yes"/>
      <point x="282" y="33"/>
      <point x="296" y="45"/>
      <point x="299" y="60" type="curve" smooth="yes"/>
      <point x="342" y="259" type="line"/>
    </contour>
  </outline>
</glyph>
<glyph name="comma" format="1">
  <advance width="251"/>
  <unicode hex="002C"/>
  <outline>
    <contour>
      <point x="-23" y="-51" type="line" name="hr00" smooth="yes"/>
      <point x="-28" y="-64"/>
      <point x="-17" y="-75"/>
      <point x="-6" y="-75" type="curve" smooth="yes"/>
      <point x="19" y="-75" type="line" smooth="yes"/>
      <point x="45" y="-75"/>
      <point x="61" y="-56"/>
      <point x="68" y="-43" type="curve" smooth="yes"/>
      <point x="149" y="92" type="line"/>
      <point x="158" y="105"/>
      <point x="149" y="121"/>
      <point x="134" y="121" type="curve" smooth="yes"/>
      <point x="76" y="121" type="line" smooth="yes"/>
      <point x="49" y="121"/>
      <point x="32" y="100"/>
      <point x="25" y="82" type="curve"/>
    </contour>
  </outline>
</glyph>
<glyph name="hyphen" format="1">
  <advance width="485"/>
  <unicode hex="002D"/>
  <outline>
    <contour>
      <point x="381" y="257" type="line" name="hr00" smooth="yes"/>
      <point x="396" y="257"/>
      <point x="411" y="269"/>
      <point x="414" y="284" type="curve" smooth="yes"/>
      <point x="421" y="316" type="line" smooth="yes"/>
      <point x="424" y="331"/>
      <point x="414" y="343"/>
      <point x="399" y="343" type="curve" smooth="yes"/>
      <point x="104" y="343" type="line" smooth="yes"/>
      <point x="89" y="343"/>
      <point x="75" y="331"/>
      <point x="72" y="316" type="curve" smooth="yes"/>
      <point x="65" y="284" type="line" smooth="yes"/>
      <point x="62" y="269"/>
      <point x="71" y="257"/>
      <point x="86" y="257" type="curve" smooth="yes"/>
    </contour>
  </outline>
</glyph>
<glyph name="period" format="1">
  <advance width="245"/>
  <unicode hex="002E"/>
  <outline>
    <contour>
      <point x="55" y="121" type="line" name="hr00" smooth="yes"/>
      <point x="40" y="121"/>
      <point x="26" y="109"/>
      <point x="22" y="94" type="curve" smooth="yes"/>
      <point x="8" y="27" type="line" smooth="yes"/>
      <point x="5" y="12"/>
      <point x="15" y="0"/>
      <point x="30" y="0" type="curve" smooth="yes"/>
      <point x="97" y="0" type="line" smooth="yes"/>
      <point x="112" y="0"/>
      <point x="126" y="12"/>
      <point x="129" y="27" type="curve" smooth="yes"/>
      <point x="143" y="94" type="line" smooth="yes"/>
      <point x="147" y="109"/>
      <point x="137" y="121"/>
      <point x="122" y="121" type="curve" smooth="yes"/>
    </contour>
  </outline>
</glyph>
<glyph name="zero" format="1">
  <advance width="632"/>
  <unicode hex="0030"/>
  <outline>
    <contour>
      <point x="600" y="434" type="curve" name="hr00" smooth="yes"/>
      <point x="630" y="589"/>
      <point x="565" y="710"/>
      <point x="394" y="710" type="curve" smooth="yes"/>
      <point x="228" y="710"/>
      <point x="126" y="589"/>
      <point x="90" y="434" type="curve" smooth="yes"/>
      <point x="76" y="374"/>
      <point x="66" y="325"/>
      <point x="54" y="265" type="curve" smooth="yes"/>
      <point x="24" y="110"/>
      <point x="89" y="-10"/>
      <point x="260" y="-10" type="curve" smooth="yes"/>
      <point x="446" y="-10"/>
      <point x="528" y="110"/>
      <point x="564" y="265" type="curve" smooth="yes"/>
      <point x="578" y="325"/>
      <point x="588" y="374"/>
    </contour>
    <contour>
      <point x="148" y="265" type="curve" smooth="yes"/>
      <point x="160" y="325"/>
      <point x="170" y="374"/>
      <point x="184" y="434" type="curve" smooth="yes"/>
      <point x="214" y="560"/>
      <point x="291" y="620"/>
      <point x="394" y="620" type="curve" smooth="yes"/>
      <point x="492" y="620"/>
      <point x="530" y="560"/>
      <point x="506" y="434" type="curve" smooth="yes"/>
      <point x="494" y="374"/>
      <point x="484" y="325"/>
      <point x="470" y="265" type="curve" smooth="yes"/>
      <point x="440" y="139"/>
      <point x="363" y="80"/>
      <point x="260" y="80" type="curve" smooth="yes"/>
      <point x="162" y="80"/>
      <point x="124" y="139"/>
    </contour>
  </outline>
</glyph>
<glyph name="two" format="1">
  <advance width="582"/>
  <unicode hex="0032"/>
  <outline>
    <contour>
      <point x="31" y="101" type="line" smooth="yes"/>
      <point x="12" y="86"/>
      <point x="4" y="78"/>
      <point x="1" y="63" type="curve" smooth="yes"/>
      <point x="-7" y="27" type="line" smooth="yes"/>
      <point x="-10" y="12"/>
      <point x="0" y="0"/>
      <point x="15" y="0" type="curve" smooth="yes"/>
      <point x="446" y="0" type="line" smooth="yes"/>
      <point x="461" y="0"/>
      <point x="475" y="12"/>
      <point x="478" y="27" type="curve" smooth="yes"/>
      <point x="486" y="63" type="line" smooth="yes"/>
      <point x="489" y="78"/>
      <point x="480" y="90"/>
      <point x="465" y="90" type="curve" smooth="yes"/>
      <point x="169" y="90" type="line"/>
      <point x="447" y="315" type="line" smooth="yes"/>
      <point x="504" y="358"/>
      <point x="546" y="411"/>
      <point x="561" y="484" type="curve" smooth="yes"/>
      <point x="586" y="604"/>
      <point x="521" y="710"/>
      <point x="374" y="710" type="curve" smooth="yes"/>
      <point x="205" y="710"/>
      <point x="123" y="592"/>
      <point x="101" y="495" type="curve" smooth="yes"/>
      <point x="98" y="483"/>
      <point x="106" y="473"/>
      <point x="118" y="473" type="curve" smooth="yes"/>
      <point x="166" y="473" type="line" smooth="yes"/>
      <point x="177" y="473"/>
      <point x="191" y="480"/>
      <point x="197" y="496" type="curve" smooth="yes"/>
      <point x="220" y="558"/>
      <point x="261" y="620"/>
      <point x="375" y="620" type="curve" name="hr01" smooth="yes"/>
      <point x="465" y="620"/>
      <point x="480" y="557"/>
      <point x="468" y="496" type="curve" smooth="yes"/>
      <point x="458" y="446"/>
      <point x="428" y="414"/>
      <point x="381" y="376" type="curve"/>
    </contour>
  </outline>
</glyph>
<glyph name="four" format="1">
  <advance width="612"/>
  <unicode hex="0034"/>
  <outline>
    <contour>
      <point x="379" y="0" type="line" name="hr00" smooth="yes"/>
      <point x="394" y="0"/>
      <point x="408" y="12"/>
      <point x="411" y="27" type="curve" smooth="yes"/>
      <point x="441" y="165" type="line"/>
      <point x="527" y="165" type="line" smooth="yes"/>
      <point x="542" y="165"/>
      <point x="556" y="177"/>
      <point x="559" y="192" type="curve" smooth="yes"/>
      <point x="567" y="228" type="line" smooth="yes"/>
      <point x="570" y="243"/>
      <point x="561" y="255"/>
      <point x="546" y="255" type="curve" smooth="yes"/>
      <point x="460" y="255" type="line"/>
      <point x="549" y="673" type="line" smooth="yes"/>
      <point x="552" y="688"/>
      <point x="542" y="700"/>
      <point x="527" y="700" type="curve" smooth="yes"/>
      <point x="484" y="700" type="line" smooth="yes"/>
      <point x="468" y="700"/>
      <point x="454" y="691"/>
      <point x="440" y="676" type="curve" smooth="yes"/>
      <point x="36" y="262" type="line" smooth="yes"/>
      <point x="25" y="251"/>
      <point x="17" y="237"/>
      <point x="15" y="228" type="curve" smooth="yes"/>
      <point x="7" y="192" type="line" smooth="yes"/>
      <point x="4" y="177"/>
      <point x="14" y="165"/>
      <point x="29" y="165" type="curve" smooth="yes"/>
      <point x="346" y="165" type="line"/>
      <point x="316" y="27" type="line" smooth="yes"/>
      <point x="313" y="12"/>
      <point x="323" y="0"/>
      <point x="338" y="0" type="curve" smooth="yes"/>
    </contour>
    <contour>
      <point x="148" y="255" type="line"/>
      <point x="425" y="537" type="line"/>
      <point x="365" y="255" type="line"/>
    </contour>
  </outline>
</glyph>
<glyph name="five" format="1">
  <advance width="596"/>
  <unicode hex="0035"/>
  <outline>
    <contour>
      <point x="111" y="182" type="curve" smooth="yes"/>
      <point x="110" y="196"/>
      <point x="101" y="204"/>
      <point x="90" y="204" type="curve" smooth="yes"/>
      <point x="44" y="204" type="line" smooth="yes"/>
      <point x="32" y="204"/>
      <point x="18" y="194"/>
      <point x="17" y="182" type="curve" smooth="yes"/>
      <point x="8" y="70"/>
      <point x="106" y="-10"/>
      <point x="239" y="-10" type="curve" smooth="yes"/>
      <point x="389" y="-10"/>
      <point x="504" y="71"/>
      <point x="535" y="218" type="curve" smooth="yes"/>
      <point x="567" y="365"/>
      <point x="469" y="460"/>
      <point x="319" y="460" type="curve" smooth="yes"/>
      <point x="261" y="460"/>
      <point x="231" y="449"/>
      <point x="210" y="439" type="curve"/>
      <point x="262" y="610" type="line"/>
      <point x="548" y="610" type="line" smooth="yes"/>
      <point x="563" y="610"/>
      <point x="578" y="622"/>
      <point x="581" y="637" type="curve" smooth="yes"/>
      <point x="589" y="673" type="line" smooth="yes"/>
      <point x="592" y="688"/>
      <point x="582" y="700"/>
      <point x="567" y="700" type="curve" smooth="yes"/>
      <point x="214" y="700" type="line" smooth="yes"/>
      <point x="199" y="700"/>
      <point x="185" y="688"/>
      <point x="182" y="673" type="curve"/>
      <point x="81" y="339" type="line" smooth="yes"/>
      <point x="78" y="327"/>
      <point x="86" y="317"/>
      <point x="98" y="317" type="curve" smooth="yes"/>
      <point x="149" y="317" type="line" smooth="yes"/>
      <point x="190" y="317"/>
      <point x="218" y="370"/>
      <point x="319" y="370" type="curve" name="hr01" smooth="yes"/>
      <point x="407" y="370"/>
      <point x="459" y="322"/>
      <point x="438" y="225" type="curve" smooth="yes"/>
      <point x="418" y="128"/>
      <point x="327" y="80"/>
      <point x="239" y="80" type="curve" smooth="yes"/>
      <point x="162" y="80"/>
      <point x="115" y="120"/>
    </contour>
  </outline>
</glyph>
<glyph name="six" format="1">
  <advance width="598"/>
  <unicode hex="0036"/>
  <outline>
    <contour>
      <point x="481" y="665" type="line" name="hr00" smooth="yes"/>
      <point x="483" y="668"/>
      <point x="487" y="672"/>
      <point x="489" y="678" type="curve" smooth="yes"/>
      <point x="492" y="690"/>
      <point x="485" y="700"/>
      <point x="473" y="700" type="curve" smooth="yes"/>
      <point x="406" y="700" type="line" smooth="yes"/>
      <point x="388" y="700"/>
      <point x="378" y="688"/>
      <point x="371" y="680" type="curve" smooth="yes"/>
      <point x="137" y="413" type="line"/>
      <point x="94" y="363"/>
      <point x="49" y="318"/>
      <point x="33" y="240" type="curve" smooth="yes"/>
      <point x="4" y="104"/>
      <point x="83" y="-10"/>
      <point x="248" y="-10" type="curve" smooth="yes"/>
      <point x="413" y="-10"/>
      <point x="519" y="86"/>
      <point x="548" y="222" type="curve" smooth="yes"/>
      <point x="577" y="358"/>
      <point x="496" y="472"/>
      <point x="331" y="472" type="curve" smooth="yes"/>
      <point x="321" y="472"/>
      <point x="316" y="471"/>
      <point x="312" y="470" type="curve"/>
    </contour>
    <contour>
      <point x="126" y="231" type="curve" smooth="yes"/>
      <point x="142" y="310"/>
      <point x="219" y="382"/>
      <point x="331" y="382" type="curve" smooth="yes"/>
      <point x="433" y="382"/>
      <point x="470" y="310"/>
      <point x="454" y="231" type="curve" smooth="yes"/>
      <point x="437" y="152"/>
      <point x="360" y="80"/>
      <point x="248" y="80" type="curve" smooth="yes"/>
      <point x="146" y="80"/>
      <point x="109" y="152"/>
    </contour>
  </outline>
</glyph>
<glyph name="eight" format="1">
  <advance width="609"/>
  <unicode hex="0038"/>
  <outline>
    <contour>
      <point x="32" y="199" type="curve" name="hr00" smooth="yes"/>
      <point x="8" y="84"/>
      <point x="101" y="-10"/>
      <point x="248" y="-10" type="curve" smooth="yes"/>
      <point x="405" y="-10"/>
      <point x="509" y="84"/>
      <point x="534" y="199" type="curve" smooth="yes"/>
      <point x="548" y="267"/>
      <point x="529" y="317"/>
      <point x="477" y="356" type="curve"/>
      <point x="533" y="392"/>
      <point x="570" y="454"/>
      <point x="583" y="514" type="curve" smooth="yes"/>
      <point x="606" y="622"/>
      <point x="515" y="710"/>
      <point x="382" y="710" type="curve" smooth="yes"/>
      <point x="239" y="710"/>
      <point x="141" y="622"/>
      <point x="118" y="514" type="curve" smooth="yes"/>
      <point x="105" y="454"/>
      <point x="128" y="398"/>
      <point x="169" y="362" type="curve"/>
      <point x="100" y="323"/>
      <point x="46" y="267"/>
    </contour>
    <contour>
      <point x="127" y="199" type="curve" smooth="yes"/>
      <point x="141" y="265"/>
      <point x="225" y="318"/>
      <point x="317" y="318" type="curve" smooth="yes"/>
      <point x="409" y="318"/>
      <point x="453" y="265"/>
      <point x="439" y="199" type="curve" smooth="yes"/>
      <point x="425" y="133"/>
      <point x="350" y="80"/>
      <point x="248" y="80" type="curve" smooth="yes"/>
      <point x="156" y="80"/>
      <point x="113" y="133"/>
    </contour>
    <contour>
      <point x="213" y="514" type="curve" smooth="yes"/>
      <point x="225" y="573"/>
      <point x="294" y="620"/>
      <point x="382" y="620" type="curve" smooth="yes"/>
      <point x="460" y="620"/>
      <point x="500" y="573"/>
      <point x="488" y="514" type="curve" smooth="yes"/>
      <point x="475" y="455"/>
      <point x="405" y="408"/>
      <point x="317" y="408" type="curve" smooth="yes"/>
      <point x="239" y="408"/>
      <point x="200" y="455"/>
    </contour>
  </outline>
</glyph>
<glyph name="colon" format="1">
  <advance width="258"/>
  <unicode hex="003A"/>
  <outline>
    <contour>
      <point x="133" y="471" type="line" name="hr00" smooth="yes"/>
      <point x="118" y="471"/>
      <point x="103" y="459"/>
      <point x="100" y="444" type="curve" smooth="yes"/>
      <point x="86" y="377" type="line" smooth="yes"/>
      <point x="82" y="362"/>
      <point x="92" y="350"/>
      <point x="107" y="350" type="curve" smooth="yes"/>
      <point x="174" y="350" type="line" smooth="yes"/>
      <point x="189" y="350"/>
      <point x="203" y="362"/>
      <point x="207" y="377" type="curve" smooth="yes"/>
      <point x="221" y="444" type="line" smooth="yes"/>
      <point x="224" y="459"/>
      <point x="215" y="471"/>
      <point x="200" y="471" type="curve" smooth="yes"/>
    </contour>
    <contour>
      <point x="58" y="121" type="line" smooth="yes"/>
      <point x="43" y="121"/>
      <point x="29" y="109"/>
      <point x="25" y="94" type="curve" smooth="yes"/>
      <point x="11" y="27" type="line" smooth="yes"/>
      <point x="8" y="12"/>
      <point x="18" y="0"/>
      <point x="33" y="0" type="curve" smooth="yes"/>
      <point x="100" y="0" type="line" smooth="yes"/>
      <point x="115" y="0"/>
      <point x="129" y="12"/>
      <point x="132" y="27" type="curve" smooth="yes"/>
      <point x="146" y="94" type="line" smooth="yes"/>
      <point x="150" y="109"/>
      <point x="140" y="121"/>
      <point x="125" y="121" type="curve" smooth="yes"/>
    </contour>
  </outline>
</glyph>
<glyph name="semicolon" format="1">
  <advance width="284"/>
  <unicode hex="003B"/>
  <outline>
    <contour>
      <point x="152" y="471" type="line" name="hr00" smooth="yes"/>
      <point x="137" y="471"/>
      <point x="122" y="459"/>
      <point x="119" y="444" type="curve" smooth="yes"/>
      <point x="105" y="377" type="line" smooth="yes"/>
      <point x="101" y="362"/>
      <point x="111" y="350"/>
      <point x="126" y="350" type="curve" smooth="yes"/>
      <point x="193" y="350" type="line" smooth="yes"/>
      <point x="208" y="350"/>
      <point x="222" y="362"/>
      <point x="226" y="377" type="curve" smooth="yes"/>
      <point x="240" y="444" type="line" smooth="yes"/>
      <point x="243" y="459"/>
      <point x="234" y="471"/>
      <point x="219" y="471" type="curve" smooth="yes"/>
    </contour>
    <contour>
      <point x="-8" y="-50" type="line"/>
      <point x="-13" y="-63"/>
      <point x="-2" y="-74"/>
      <point x="9" y="-74" type="curve" smooth="yes"/>
      <point x="34" y="-74" type="line" smooth="yes"/>
      <point x="60" y="-74"/>
      <point x="76" y="-55"/>
      <point x="84" y="-42" type="curve" smooth="yes"/>
      <point x="164" y="92" type="line"/>
      <point x="173" y="105"/>
      <point x="164" y="121"/>
      <point x="149" y="121" type="curve" smooth="yes"/>
      <point x="91" y="121" type="line" smooth="yes"/>
      <point x="64" y="121"/>
      <point x="47" y="100"/>
      <point x="40" y="82" type="curve" smooth="yes"/>
    </contour>
  </outline>
</glyph>
<glyph name="equal" format="1">
  <advance width="572"/>
  <unicode hex="003D"/>
  <outline>
    <contour>
      <point x="492" y="382" type="line" name="hr00" smooth="yes"/>
      <point x="507" y="382"/>
      <point x="521" y="394"/>
      <point x="524" y="409" type="curve" smooth="yes"/>
      <point x="531" y="441" type="line" smooth="yes"/>
      <point x="534" y="456"/>
      <point x="525" y="468"/>
      <point x="510" y="468" type="curve" smooth="yes"/>
      <point x="135" y="468" type="line" smooth="yes"/>
      <point x="120" y="468"/>
      <point x="105" y="456"/>
      <point x="102" y="441" type="curve" smooth="yes"/>
      <point x="95" y="409" type="line" smooth="yes"/>
      <point x="92" y="394"/>
      <point x="102" y="382"/>
      <point x="117" y="382" type="curve" smooth="yes"/>
    </contour>
    <contour>
      <point x="439" y="132" type="line" smooth="yes"/>
      <point x="454" y="132"/>
      <point x="468" y="144"/>
      <point x="471" y="159" type="curve" smooth="yes"/>
      <point x="478" y="191" type="line" smooth="yes"/>
      <point x="481" y="206"/>
      <point x="472" y="218"/>
      <point x="457" y="218" type="curve" smooth="yes"/>
      <point x="82" y="218" type="line" smooth="yes"/>
      <point x="67" y="218"/>
      <point x="52" y="206"/>
      <point x="49" y="191" type="curve" smooth="yes"/>
      <point x="42" y="159" type="line" smooth="yes"/>
      <point x="39" y="144"/>
      <point x="49" y="132"/>
      <point x="64" y="132" type="curve" smooth="yes"/>
    </contour>
  </outline>
</glyph>
<glyph name="greater" format="1">
  <advance width="485"/>
  <unicode hex="003E"/>
  <outline>
    <contour>
      <point x="468" y="371" type="line" name="hr00" smooth="yes"/>
      <point x="472" y="389"/>
      <point x="464" y="401"/>
      <point x="448" y="413" type="curve" smooth="yes"/>
      <point x="166" y="636" type="line"/>
      <point x="161" y="639"/>
      <point x="157" y="639"/>
      <point x="155" y="639" type="curve" smooth="yes"/>
      <point x="143" y="639"/>
      <point x="132" y="630"/>
      <point x="130" y="618" type="curve"/>
      <point x="122" y="584" type="line" smooth="yes"/>
      <point x="118" y="564"/>
      <point x="133" y="549"/>
      <point x="145" y="540" type="curve" smooth="yes"/>
      <point x="374" y="358" type="line"/>
      <point x="69" y="179" type="line" smooth="yes"/>
      <point x="53" y="170"/>
      <point x="32" y="155"/>
      <point x="27" y="135" type="curve"/>
      <point x="16" y="82" type="line" smooth="yes"/>
      <point x="13" y="70"/>
      <point x="20" y="61"/>
      <point x="32" y="61" type="curve" smooth="yes"/>
      <point x="34" y="61"/>
      <point x="38" y="61"/>
      <point x="44" y="64" type="curve" smooth="yes"/>
      <point x="422" y="287" type="line" smooth="yes"/>
      <point x="442" y="299"/>
      <point x="456" y="311"/>
      <point x="459" y="329" type="curve"/>
    </contour>
  </outline>
</glyph>
<glyph name="at" format="1">
  <advance width="854"/>
  <unicode hex="0040"/>
  <outline>
    <contour>
      <point x="776" y="218" type="curve" smooth="yes"/>
      <point x="781" y="234"/>
      <point x="796" y="296"/>
      <point x="804" y="350" type="curve" smooth="yes"/>
      <point x="835" y="550"/>
      <point x="709" y="669"/>
      <point x="486" y="669" type="curve" smooth="yes"/>
      <point x="304" y="669"/>
      <point x="127" y="560"/>
      <point x="72" y="364" type="curve" smooth="yes"/>
      <point x="63" y="330"/>
      <point x="41" y="230"/>
      <point x="36" y="193" type="curve" smooth="yes"/>
      <point x="10" y="-6"/>
      <point x="152" y="-126"/>
      <point x="333" y="-126" type="curve" smooth="yes"/>
      <point x="490" y="-126"/>
      <point x="580" y="-77"/>
      <point x="648" y="-20" type="curve" smooth="yes"/>
      <point x="653" y="-16"/>
      <point x="657" y="-11"/>
      <point x="658" y="-5" type="curve" smooth="yes"/>
      <point x="663" y="12"/>
      <point x="652" y="23"/>
      <point x="637" y="23" type="curve" smooth="yes"/>
      <point x="593" y="23" type="line" smooth="yes"/>
      <point x="579" y="23"/>
      <point x="571" y="17"/>
      <point x="555" y="8" type="curve" smooth="yes"/>
      <point x="499" y="-26"/>
      <point x="445" y="-45"/>
      <point x="336" y="-45" type="curve" name="hr01" smooth="yes"/>
      <point x="202" y="-45"/>
      <point x="103" y="33"/>
      <point x="121" y="190" type="curve" smooth="yes"/>
      <point x="125" y="227"/>
      <point x="145" y="317"/>
      <point x="155" y="351" type="curve" smooth="yes"/>
      <point x="204" y="510"/>
      <point x="352" y="588"/>
      <point x="486" y="588" type="curve" smooth="yes"/>
      <point x="661" y="588"/>
      <point x="736" y="511"/>
      <point x="718" y="351" type="curve" smooth="yes"/>
      <point x="712" y="297"/>
      <point x="698" y="245"/>
      <point x="693" y="229" type="curve" smooth="yes"/>
      <point x="686" y="200"/>
      <point x="656" y="160"/>
      <point x="609" y="160" type="curve" smooth="yes"/>
      <point x="571" y="160"/>
      <point x="562" y="187"/>
      <point x="571" y="230" type="curve" smooth="yes"/>
      <point x="617" y="443" type="line" smooth="yes"/>
      <point x="620" y="458"/>
      <point x="610" y="470"/>
      <point x="595" y="470" type="curve" smooth="yes"/>
      <point x="563" y="470" type="line" smooth="yes"/>
      <point x="548" y="470"/>
      <point x="534" y="458"/>
      <point x="531" y="443" type="curve" smooth="yes"/>
      <point x="529" y="434" type="line"/>
      <point x="517" y="453"/>
      <point x="491" y="478"/>
      <point x="435" y="478" type="curve" smooth="yes"/>
      <point x="326" y="478"/>
      <point x="256" y="385"/>
      <point x="233" y="273" type="curve" smooth="yes"/>
      <point x="209" y="161"/>
      <point x="257" y="69"/>
      <point x="356" y="69" type="curve" smooth="yes"/>
      <point x="434" y="69"/>
      <point x="469" y="99"/>
      <point x="496" y="126" type="curve"/>
      <point x="510" y="104"/>
      <point x="550" y="79"/>
      <point x="609" y="79" type="curve" smooth="yes"/>
      <point x="685" y="79"/>
      <point x="749" y="117"/>
    </contour>
    <contour>
      <point x="318" y="273" type="curve" smooth="yes"/>
      <point x="329" y="328"/>
      <point x="369" y="397"/>
      <point x="435" y="397" type="curve" smooth="yes"/>
      <point x="504" y="397"/>
      <point x="510" y="347"/>
      <point x="495" y="273" type="curve" smooth="yes"/>
      <point x="479" y="198"/>
      <point x="443" y="150"/>
      <point x="374" y="150" type="curve" smooth="yes"/>
      <point x="308" y="150"/>
      <point x="306" y="218"/>
    </contour>
  </outline>
</glyph>
<glyph name="A" format="1">
  <advance width="682"/>
  <unicode hex="0041"/>
  <outline>
    <contour>
      <point x="515" y="25" type="line" name="hr00"/>
      <point x="517" y="14"/>
      <point x="523" y="0"/>
      <point x="549" y="0" type="curve" smooth="yes"/>
      <point x="582" y="0" type="line" smooth="yes"/>
      <point x="604" y="0"/>
      <point x="611" y="16"/>
      <point x="607" y="36" type="curve" smooth="yes"/>
      <point x="497" y="667" type="line" smooth="yes"/>
      <point x="494" y="682"/>
      <point x="486" y="700"/>
      <point x="459" y="700" type="curve" smooth="yes"/>
      <point x="395" y="700" type="line" smooth="yes"/>
      <point x="368" y="700"/>
      <point x="352" y="682"/>
      <point x="343" y="667" type="curve" smooth="yes"/>
      <point x="-40" y="29" type="line" smooth="yes"/>
      <point x="-48" y="16"/>
      <point x="-40" y="0"/>
      <point x="-25" y="0" type="curve" smooth="yes"/>
      <point x="20" y="0" type="line" smooth="yes"/>
      <point x="46" y="0"/>
      <point x="57" y="14"/>
      <point x="64" y="25" type="curve"/>
      <point x="144" y="158" type="line"/>
      <point x="491" y="158" type="line"/>
    </contour>
    <contour>
      <point x="413" y="605" type="line"/>
      <point x="475" y="248" type="line"/>
      <point x="198" y="248" type="line"/>
    </contour>
  </outline>
</glyph>
<glyph name="B" format="1">
  <advance width="672"/>
  <unicode hex="0042"/>
  <outline>
    <contour>
      <point x="400" y="318" type="line" name="hr00" smooth="yes"/>
      <point x="494" y="318"/>
      <point x="513" y="263"/>
      <point x="501" y="203" type="curve" smooth="yes"/>
      <point x="488" y="143"/>
      <point x="441" y="90"/>
      <point x="352" y="90" type="curve" smooth="yes"/>
      <point x="138" y="90" type="line"/>
      <point x="186" y="318" type="line"/>
    </contour>
    <contour>
      <point x="460" y="610" type="line" smooth="yes"/>
      <point x="539" y="610"/>
      <point x="565" y="574"/>
      <point x="551" y="509" type="curve" smooth="yes"/>
      <point x="537" y="444"/>
      <point x="491" y="408"/>
      <point x="392" y="408" type="curve" smooth="yes"/>
      <point x="205" y="408" type="line"/>
      <point x="248" y="610" type="line"/>
    </contour>
    <contour>
      <point x="51" y="0" type="curve"/>
      <point x="352" y="0" type="line" smooth="yes"/>
      <point x="497" y="0"/>
      <point x="573" y="95"/>
      <point x="595" y="195" type="curve" smooth="yes"/>
      <point x="611" y="270"/>
      <point x="586" y="325"/>
      <point x="546" y="359" type="curve"/>
      <point x="565" y="369"/>
      <point x="627" y="418"/>
      <point x="645" y="506" type="curve" smooth="yes"/>
      <point x="660" y="576"/>
      <point x="640" y="700"/>
      <point x="470" y="700" type="curve" smooth="yes"/>
      <point x="199" y="700" type="line" smooth="yes"/>
      <point x="184" y="700"/>
      <point x="170" y="688"/>
      <point x="167" y="673" type="curve" smooth="yes"/>
      <point x="29" y="27" type="line" smooth="yes"/>
      <point x="26" y="12"/>
      <point x="36" y="0"/>
    </contour>
  </outline>
</glyph>
<glyph name="C" format="1">
  <advance width="665"/>
  <unicode hex="0043"/>
  <outline>
    <contour>
      <point x="184" y="434" type="curve" smooth="yes"/>
      <point x="211" y="545"/>
      <point x="292" y="620"/>
      <point x="421" y="620" type="curve" smooth="yes"/>
      <point x="550" y="620"/>
      <point x="565" y="551"/>
      <point x="566" y="484" type="curve" smooth="yes"/>
      <point x="566" y="470"/>
      <point x="577" y="462"/>
      <point x="588" y="462" type="curve" name="hr01" smooth="yes"/>
      <point x="635" y="462" type="line" smooth="yes"/>
      <point x="647" y="462"/>
      <point x="659" y="472"/>
      <point x="661" y="484" type="curve" smooth="yes"/>
      <point x="672" y="571"/>
      <point x="621" y="710"/>
      <point x="421" y="710" type="curve" smooth="yes"/>
      <point x="249" y="710"/>
      <point x="128" y="595"/>
      <point x="90" y="439" type="curve" smooth="yes"/>
      <point x="75" y="379"/>
      <point x="63" y="321"/>
      <point x="52" y="261" type="curve" smooth="yes"/>
      <point x="24" y="105"/>
      <point x="124" y="-10"/>
      <point x="286" y="-10" type="curve" smooth="yes"/>
      <point x="486" y="-10"/>
      <point x="583" y="129"/>
      <point x="604" y="216" type="curve" smooth="yes"/>
      <point x="607" y="228"/>
      <point x="599" y="238"/>
      <point x="587" y="238" type="curve" smooth="yes"/>
      <point x="539" y="238" type="line" smooth="yes"/>
      <point x="528" y="238"/>
      <point x="514" y="230"/>
      <point x="508" y="216" type="curve" smooth="yes"/>
      <point x="478" y="149"/>
      <point x="415" y="80"/>
      <point x="286" y="80" type="curve" name="hr02" smooth="yes"/>
      <point x="187" y="80"/>
      <point x="128" y="155"/>
      <point x="148" y="266" type="curve" smooth="yes"/>
      <point x="159" y="325"/>
      <point x="169" y="374"/>
    </contour>
  </outline>
</glyph>
<glyph name="E" format="1">
  <advance width="592"/>
  <unicode hex="0045"/>
  <outline>
    <contour>
      <point x="474" y="90" type="line" name="hr00" smooth="yes"/>
      <point x="489" y="90"/>
      <point x="498" y="78"/>
      <point x="495" y="63" type="curve" smooth="yes"/>
      <point x="487" y="27" type="line" smooth="yes"/>
      <point x="484" y="12"/>
      <point x="470" y="0"/>
      <point x="455" y="0" type="curve" smooth="yes"/>
      <point x="51" y="0" type="line" smooth="yes"/>
      <point x="36" y="0"/>
      <point x="26" y="12"/>
      <point x="29" y="27" type="curve" smooth="yes"/>
      <point x="167" y="673" type="line" smooth="yes"/>
      <point x="170" y="688"/>
      <point x="184" y="700"/>
      <point x="199" y="700" type="curve" smooth="yes"/>
      <point x="595" y="700" type="line" smooth="yes"/>
      <point x="610" y="700"/>
      <point x="620" y="688"/>
      <point x="617" y="673" type="curve" smooth="yes"/>
      <point x="609" y="637" type="line" smooth="yes"/>
      <point x="606" y="622"/>
      <point x="591" y="610"/>
      <point x="576" y="610" type="curve" smooth="yes"/>
      <point x="248" y="610" type="line"/>
      <point x="203" y="399" type="line"/>
      <point x="509" y="399" type="line" smooth="yes"/>
      <point x="524" y="399"/>
      <point x="534" y="387"/>
      <point x="531" y="372" type="curve" smooth="yes"/>
      <point x="523" y="336" type="line" smooth="yes"/>
      <point x="520" y="321"/>
      <point x="505" y="309"/>
      <point x="490" y="309" type="curve" smooth="yes"/>
      <point x="184" y="309" type="line"/>
      <point x="138" y="90" type="line"/>
    </contour>
  </outline>
</glyph>
<glyph name="G" format="1">
  <advance width="683"/>
  <unicode hex="0047"/>
  <outline>
    <contour>
      <point x="90" y="441" type="curve" smooth="yes"/>
      <point x="75" y="381"/>
      <point x="64" y="325"/>
      <point x="53" y="265" type="curve" smooth="yes"/>
      <point x="25" y="111"/>
      <point x="108" y="-10"/>
      <point x="290" y="-10" type="curve" smooth="yes"/>
      <point x="482" y="-10"/>
      <point x="591" y="105"/>
      <point x="625" y="265" type="curve" smooth="yes"/>
      <point x="645" y="360" type="line" smooth="yes"/>
      <point x="648" y="375"/>
      <point x="639" y="387"/>
      <point x="624" y="387" type="curve" smooth="yes"/>
      <point x="412" y="387" type="line" smooth="yes"/>
      <point x="397" y="387"/>
      <point x="382" y="375"/>
      <point x="379" y="360" type="curve" smooth="yes"/>
      <point x="371" y="324" type="line" smooth="yes"/>
      <point x="368" y="309"/>
      <point x="378" y="297"/>
      <point x="393" y="297" type="curve" smooth="yes"/>
      <point x="537" y="297" type="line"/>
      <point x="531" y="269" type="line" smooth="yes"/>
      <point x="501" y="131"/>
      <point x="408" y="80"/>
      <point x="290" y="80" type="curve" smooth="yes"/>
      <point x="181" y="80"/>
      <point x="125" y="141"/>
      <point x="149" y="270" type="curve" smooth="yes"/>
      <point x="160" y="330"/>
      <point x="169" y="376"/>
      <point x="184" y="436" type="curve" smooth="yes"/>
      <point x="214" y="558"/>
      <point x="304" y="620"/>
      <point x="423" y="620" type="curve" smooth="yes"/>
      <point x="521" y="620"/>
      <point x="554" y="574"/>
      <point x="571" y="517" type="curve" smooth="yes"/>
      <point x="574" y="507"/>
      <point x="584" y="495"/>
      <point x="599" y="495" type="curve" name="hr01" smooth="yes"/>
      <point x="642" y="495" type="line" smooth="yes"/>
      <point x="654" y="495"/>
      <point x="668" y="505"/>
      <point x="668" y="517" type="curve" smooth="yes"/>
      <point x="667" y="601"/>
      <point x="595" y="710"/>
      <point x="423" y="710" type="curve" smooth="yes"/>
      <point x="230" y="710"/>
      <point x="127" y="589"/>
    </contour>
  </outline>
</glyph>
<glyph name="J" format="1">
  <advance width="626"/>
  <unicode hex="004A"/>
  <outline>
    <contour>
      <point x="625" y="673" type="line" smooth="yes"/>
      <point x="628" y="688"/>
      <point x="618" y="700"/>
      <point x="603" y="700" type="curve" smooth="yes"/>
      <point x="190" y="700" type="line" smooth="yes"/>
      <point x="175" y="700"/>
      <point x="161" y="688"/>
      <point x="158" y="673" type="curve" smooth="yes"/>
      <point x="150" y="637" type="line" smooth="yes"/>
      <point x="147" y="622"/>
      <point x="156" y="610"/>
      <point x="171" y="610" type="curve" smooth="yes"/>
      <point x="516" y="610" type="line"/>
      <point x="441" y="256" type="line" smooth="yes"/>
      <point x="417" y="145"/>
      <point x="359" y="80"/>
      <point x="232" y="80" type="curve" smooth="yes"/>
      <point x="138" y="80"/>
      <point x="104" y="139"/>
      <point x="105" y="206" type="curve" smooth="yes"/>
      <point x="105" y="220"/>
      <point x="96" y="228"/>
      <point x="85" y="228" type="curve" name="hr01" smooth="yes"/>
      <point x="34" y="228" type="line" smooth="yes"/>
      <point x="22" y="228"/>
      <point x="11" y="218"/>
      <point x="10" y="206" type="curve" smooth="yes"/>
      <point x="-1" y="99"/>
      <point x="73" y="-10"/>
      <point x="232" y="-10" type="curve" smooth="yes"/>
      <point x="409" y="-10"/>
      <point x="501" y="94"/>
      <point x="534" y="245" type="curve" smooth="yes"/>
    </contour>
  </outline>
</glyph>
<glyph name="L" format="1">
  <advance width="561"/>
  <unicode hex="004C"/>
  <outline>
    <contour>
      <point x="138" y="90" type="line" name="hr00"/>
      <point x="262" y="673" type="line" smooth="yes"/>
      <point x="265" y="688"/>
      <point x="255" y="700"/>
      <point x="240" y="700" type="curve" smooth="yes"/>
      <point x="199" y="700" type="line" smooth="yes"/>
      <point x="184" y="700"/>
      <point x="170" y="688"/>
      <point x="167" y="673" type="curve" smooth="yes"/>
      <point x="29" y="27" type="line" smooth="yes"/>
      <point x="26" y="12"/>
      <point x="36" y="0"/>
      <point x="51" y="0" type="curve" smooth="yes"/>
      <point x="458" y="0" type="line" smooth="yes"/>
      <point x="473" y="0"/>
      <point x="487" y="12"/>
      <point x="490" y="27" type="curve" smooth="yes"/>
      <point x="498" y="63" type="line" smooth="yes"/>
      <point x="501" y="78"/>
      <point x="492" y="90"/>
      <point x="477" y="90" type="curve" smooth="yes"/>
    </contour>
  </outline>
</glyph>
<glyph name="M" format="1">
  <advance width="795"/>
  <unicode hex="004D"/>
  <outline>
    <contour>
      <point x="274" y="668" type="line" name="hr00" smooth="yes"/>
      <point x="269" y="684"/>
      <point x="259" y="700"/>
      <point x="237" y="700" type="curve" smooth="yes"/>
      <point x="199" y="700" type="line" smooth="yes"/>
      <point x="184" y="700"/>
      <point x="170" y="688"/>
      <point x="167" y="673" type="curve" smooth="yes"/>
      <point x="29" y="27" type="line" smooth="yes"/>
      <point x="26" y="12"/>
      <point x="36" y="0"/>
      <point x="51" y="0" type="curve" smooth="yes"/>
      <point x="92" y="0" type="line" smooth="yes"/>
      <point x="107" y="0"/>
      <point x="121" y="12"/>
      <point x="124" y="27" type="curve" smooth="yes"/>
      <point x="227" y="511" type="line"/>
      <point x="317" y="200" type="line" smooth="yes"/>
      <point x="323" y="180"/>
      <point x="331" y="168"/>
      <point x="351" y="168" type="curve" smooth="yes"/>
      <point x="389" y="168" type="line" smooth="yes"/>
      <point x="409" y="168"/>
      <point x="423" y="180"/>
      <point x="437" y="200" type="curve" smooth="yes"/>
      <point x="659" y="511" type="line"/>
      <point x="556" y="27" type="line" smooth="yes"/>
      <point x="553" y="12"/>
      <point x="563" y="0"/>
      <point x="578" y="0" type="curve" smooth="yes"/>
      <point x="619" y="0" type="line" smooth="yes"/>
      <point x="634" y="0"/>
      <point x="648" y="12"/>
      <point x="651" y="27" type="curve" smooth="yes"/>
      <point x="789" y="673" type="line" smooth="yes"/>
      <point x="792" y="688"/>
      <point x="782" y="700"/>
      <point x="767" y="700" type="curve" smooth="yes"/>
      <point x="719" y="700" type="line" smooth="yes"/>
      <point x="697" y="700"/>
      <point x="680" y="684"/>
      <point x="668" y="668" type="curve" smooth="yes"/>
      <point x="386" y="277" type="line"/>
    </contour>
  </outline>
</glyph>
<glyph name="N" format="1">
  <advance width="695"/>
  <unicode hex="004E"/>
  <outline>
    <contour>
      <point x="519" y="0" type="line" name="hr00" smooth="yes"/>
      <point x="534" y="0"/>
      <point x="548" y="12"/>
      <point x="551" y="27" type="curve" smooth="yes"/>
      <point x="689" y="673" type="line" smooth="yes"/>
      <point x="692" y="688"/>
      <point x="682" y="700"/>
      <point x="667" y="700" type="curve" smooth="yes"/>
      <point x="626" y="700" type="line" smooth="yes"/>
      <point x="611" y="700"/>
      <point x="597" y="688"/>
      <point x="594" y="673" type="curve" smooth="yes"/>
      <point x="487" y="172" type="line"/>
      <point x="265" y="670" type="line" smooth="yes"/>
      <point x="259" y="684"/>
      <point x="250" y="700"/>
      <point x="231" y="700" type="curve" smooth="yes"/>
      <point x="199" y="700" type="line" smooth="yes"/>
      <point x="184" y="700"/>
      <point x="170" y="688"/>
      <point x="167" y="673" type="curve" smooth="yes"/>
      <point x="29" y="27" type="line" smooth="yes"/>
      <point x="26" y="12"/>
      <point x="36" y="0"/>
      <point x="51" y="0" type="curve" smooth="yes"/>
      <point x="92" y="0" type="line" smooth="yes"/>
      <point x="107" y="0"/>
      <point x="121" y="12"/>
      <point x="124" y="27" type="curve" smooth="yes"/>
      <point x="231" y="530" type="line"/>
      <point x="453" y="30" type="line" smooth="yes"/>
      <point x="459" y="16"/>
      <point x="468" y="0"/>
      <point x="487" y="0" type="curve" smooth="yes"/>
    </contour>
  </outline>
</glyph>
<glyph name="Q" format="1">
  <advance width="672"/>
  <unicode hex="0051"/>
  <outline>
    <contour>
      <point x="90" y="439" type="curve"/>
      <point x="75" y="379"/>
      <point x="63" y="321"/>
      <point x="52" y="261" type="curve" smooth="yes"/>
      <point x="25" y="111"/>
      <point x="114" y="-10"/>
      <point x="280" y="-10" type="curve" smooth="yes"/>
      <point x="326" y="-10"/>
      <point x="367" y="-2"/>
      <point x="403" y="11" type="curve"/>
      <point x="431" y="-42" type="line"/>
      <point x="438" y="-55"/>
      <point x="449" y="-65"/>
      <point x="468" y="-65" type="curve" name="hr01"/>
      <point x="515" y="-65" type="line"/>
      <point x="530" y="-66"/>
      <point x="547" y="-51"/>
      <point x="538" y="-34" type="curve"/>
      <point x="489" y="61" type="line"/>
      <point x="547" y="110"/>
      <point x="584" y="182"/>
      <point x="604" y="261" type="curve" smooth="yes"/>
      <point x="619" y="321"/>
      <point x="631" y="379"/>
      <point x="642" y="439" type="curve" smooth="yes"/>
      <point x="671" y="589"/>
      <point x="580" y="710"/>
      <point x="414" y="710" type="curve" smooth="yes"/>
      <point x="238" y="710"/>
      <point x="125" y="589"/>
    </contour>
    <contour>
      <point x="546" y="434" type="curve" smooth="yes"/>
      <point x="535" y="374"/>
      <point x="525" y="326"/>
      <point x="510" y="266" type="curve" smooth="yes"/>
      <point x="479" y="140"/>
      <point x="393" y="80"/>
      <point x="280" y="80" type="curve" smooth="yes"/>
      <point x="187" y="80"/>
      <point x="125" y="140"/>
      <point x="148" y="266" type="curve" smooth="yes"/>
      <point x="159" y="326"/>
      <point x="169" y="374"/>
      <point x="184" y="434" type="curve" smooth="yes"/>
      <point x="215" y="560"/>
      <point x="301" y="620"/>
      <point x="414" y="620" type="curve" smooth="yes"/>
      <point x="507" y="620"/>
      <point x="569" y="560"/>
    </contour>
  </outline>
</glyph>
<glyph name="S" format="1">
  <advance width="616"/>
  <unicode hex="0053"/>
  <outline>
    <contour>
      <point x="377" y="710" type="curve" smooth="yes"/>
      <point x="218" y="710"/>
      <point x="132" y="624"/>
      <point x="111" y="524" type="curve" smooth="yes"/>
      <point x="92" y="434"/>
      <point x="131" y="364"/>
      <point x="251" y="326" type="curve" smooth="yes"/>
      <point x="388" y="283"/>
      <point x="472" y="264"/>
      <point x="457" y="194" type="curve" smooth="yes"/>
      <point x="442" y="124"/>
      <point x="363" y="80"/>
      <point x="249" y="80" type="curve" smooth="yes"/>
      <point x="150" y="80"/>
      <point x="113" y="140"/>
      <point x="105" y="176" type="curve" smooth="yes"/>
      <point x="101" y="194"/>
      <point x="92" y="198"/>
      <point x="79" y="198" type="curve" name="hr01" smooth="yes"/>
      <point x="38" y="198" type="line" smooth="yes"/>
      <point x="26" y="198"/>
      <point x="11" y="188"/>
      <point x="11" y="176" type="curve" smooth="yes"/>
      <point x="8" y="91"/>
      <point x="94" y="-10"/>
      <point x="249" y="-10" type="curve" smooth="yes"/>
      <point x="421" y="-10"/>
      <point x="526" y="64"/>
      <point x="552" y="184" type="curve" smooth="yes"/>
      <point x="573" y="284"/>
      <point x="526" y="346"/>
      <point x="384" y="386" type="curve" smooth="yes"/>
      <point x="244" y="425"/>
      <point x="188" y="446"/>
      <point x="203" y="516" type="curve" smooth="yes"/>
      <point x="218" y="586"/>
      <point x="283" y="620"/>
      <point x="377" y="620" type="curve" smooth="yes"/>
      <point x="466" y="620"/>
      <point x="501" y="555"/>
      <point x="509" y="529" type="curve" smooth="yes"/>
      <point x="514" y="511"/>
      <point x="520" y="507"/>
      <point x="535" y="507" type="curve" name="hr02" smooth="yes"/>
      <point x="576" y="507" type="line" smooth="yes"/>
      <point x="588" y="507"/>
      <point x="603" y="517"/>
      <point x="603" y="529" type="curve" smooth="yes"/>
      <point x="603" y="597"/>
      <point x="539" y="710"/>
    </contour>
  </outline>
</glyph>
<glyph name="U" format="1">
  <advance width="699"/>
  <unicode hex="0055"/>
  <outline>
    <contour>
      <point x="636" y="700" type="line" name="hr00" smooth="yes"/>
      <point x="621" y="700"/>
      <point x="607" y="688"/>
      <point x="604" y="673" type="curve" smooth="yes"/>
      <point x="517" y="268" type="line" smooth="yes"/>
      <point x="490" y="138"/>
      <point x="410" y="75"/>
      <point x="291" y="75" type="curve" smooth="yes"/>
      <point x="182" y="75"/>
      <point x="141" y="138"/>
      <point x="168" y="268" type="curve" smooth="yes"/>
      <point x="255" y="673" type="line" smooth="yes"/>
      <point x="258" y="688"/>
      <point x="248" y="700"/>
      <point x="233" y="700" type="curve" smooth="yes"/>
      <point x="192" y="700" type="line" smooth="yes"/>
      <point x="177" y="700"/>
      <point x="163" y="688"/>
      <point x="160" y="673" type="curve" smooth="yes"/>
      <point x="75" y="273" type="line" smooth="yes"/>
      <point x="40" y="109"/>
      <point x="99" y="-10"/>
      <point x="291" y="-10" type="curve" smooth="yes"/>
      <point x="501" y="-10"/>
      <point x="578" y="109"/>
      <point x="613" y="273" type="curve" smooth="yes"/>
      <point x="698" y="673" type="line" smooth="yes"/>
      <point x="701" y="688"/>
      <point x="691" y="700"/>
      <point x="676" y="700" type="curve" smooth="yes"/>
    </contour>
  </outline>
</glyph>
<glyph name="W" format="1">
  <advance width="792"/>
  <unicode hex="0057"/>
  <outline>
    <contour>
      <point x="465" y="545" type="curve" name="hr00"/>
      <point x="431" y="545" type="line" smooth="yes"/>
      <point x="407" y="545"/>
      <point x="395" y="525"/>
      <point x="391" y="516" type="curve" smooth="yes"/>
      <point x="200" y="131" type="line"/>
      <point x="213" y="673" type="line" smooth="yes"/>
      <point x="213" y="693"/>
      <point x="200" y="700"/>
      <point x="187" y="700" type="curve" smooth="yes"/>
      <point x="147" y="700" type="line" smooth="yes"/>
      <point x="131" y="700"/>
      <point x="120" y="685"/>
      <point x="120" y="670" type="curve" smooth="yes"/>
      <point x="112" y="52" type="line" smooth="yes"/>
      <point x="112" y="19"/>
      <point x="118" y="0"/>
      <point x="150" y="0" type="curve" smooth="yes"/>
      <point x="190" y="0" type="line" smooth="yes"/>
      <point x="221" y="0"/>
      <point x="237" y="22"/>
      <point x="252" y="52" type="curve" smooth="yes"/>
      <point x="418" y="386" type="line"/>
      <point x="436" y="52" type="line"/>
      <point x="437" y="22"/>
      <point x="445" y="0"/>
      <point x="476" y="0" type="curve" smooth="yes"/>
      <point x="516" y="0" type="line" smooth="yes"/>
      <point x="548" y="0"/>
      <point x="562" y="19"/>
      <point x="576" y="52" type="curve" smooth="yes"/>
      <point x="830" y="670" type="line" smooth="yes"/>
      <point x="836" y="684"/>
      <point x="833" y="700"/>
      <point x="815" y="700" type="curve" smooth="yes"/>
      <point x="768" y="700" type="line" smooth="yes"/>
      <point x="755" y="700"/>
      <point x="740" y="693"/>
      <point x="732" y="673" type="curve" smooth="yes"/>
      <point x="516" y="131" type="line"/>
      <point x="493" y="516" type="line" smooth="yes"/>
      <point x="493" y="525"/>
      <point x="489" y="545"/>
    </contour>
  </outline>
</glyph>
<glyph name="Y" format="1">
  <advance width="644"/>
  <unicode hex="0059"/>
  <outline>
    <contour>
      <point x="361" y="261" type="line" name="hr00"/>
      <point x="686" y="664" type="line" smooth="yes"/>
      <point x="698" y="679"/>
      <point x="699" y="700"/>
      <point x="674" y="700" type="curve" smooth="yes"/>
      <point x="624" y="700" type="line" smooth="yes"/>
      <point x="597" y="700"/>
      <point x="589" y="687"/>
      <point x="579" y="675" type="curve" smooth="yes"/>
      <point x="327" y="361" type="line"/>
      <point x="208" y="675" type="line" smooth="yes"/>
      <point x="204" y="687"/>
      <point x="198" y="700"/>
      <point x="171" y="700" type="curve" smooth="yes"/>
      <point x="137" y="700" type="line" smooth="yes"/>
      <point x="119" y="700"/>
      <point x="106" y="681"/>
      <point x="113" y="664" type="curve" smooth="yes"/>
      <point x="266" y="261" type="line"/>
      <point x="216" y="27" type="line" smooth="yes"/>
      <point x="213" y="12"/>
      <point x="223" y="0"/>
      <point x="238" y="0" type="curve" smooth="yes"/>
      <point x="279" y="0" type="line" smooth="yes"/>
      <point x="294" y="0"/>
      <point x="308" y="12"/>
      <point x="311" y="27" type="curve" smooth="yes"/>
    </contour>
  </outline>
</glyph>
<glyph name="Z" format="1">
  <advance width="596"/>
  <unicode hex="005A"/>
  <outline>
    <contour>
      <point x="126" y="90" type="line" name="hr00"/>
      <point x="601" y="604" type="line" smooth="yes"/>
      <point x="610" y="613"/>
      <point x="618" y="623"/>
      <point x="621" y="637" type="curve" smooth="yes"/>
      <point x="629" y="673" type="line" smooth="yes"/>
      <point x="632" y="688"/>
      <point x="622" y="700"/>
      <point x="607" y="700" type="curve" smooth="yes"/>
      <point x="161" y="700" type="line" smooth="yes"/>
      <point x="146" y="700"/>
      <point x="132" y="688"/>
      <point x="129" y="673" type="curve" smooth="yes"/>
      <point x="121" y="637" type="line" smooth="yes"/>
      <point x="118" y="622"/>
      <point x="127" y="610"/>
      <point x="142" y="610" type="curve" smooth="yes"/>
      <point x="482" y="610" type="line"/>
      <point x="11" y="98" type="line" smooth="yes"/>
      <point x="6" y="92"/>
      <point x="-7" y="80"/>
      <point x="-11" y="63" type="curve" smooth="yes"/>
      <point x="-19" y="27" type="line" smooth="yes"/>
      <point x="-22" y="12"/>
      <point x="-12" y="0"/>
      <point x="3" y="0" type="curve" smooth="yes"/>
      <point x="469" y="0" type="line" smooth="yes"/>
      <point x="484" y="0"/>
      <point x="498" y="12"/>
      <point x="501" y="27" type="curve" smooth="yes"/>
      <point x="509" y="63" type="line" smooth="yes"/>
      <point x="512" y="78"/>
      <point x="503" y="90"/>
      <point x="488" y="90" type="curve" smooth="yes"/>
    </contour>
  </outline>
</glyph>
<glyph name="backslash" format="1">
  <advance width="481"/>
  <unicode hex="005C"/>
  <outline>
    <contour>
      <point x="288" y="-54" type="line" name="hr00"/>
      <point x="291" y="-68"/>
      <point x="300" y="-84"/>
      <point x="325" y="-84" type="curve"/>
      <point x="352" y="-84" type="line"/>
      <point x="364" y="-84"/>
      <point x="376" y="-75"/>
      <point x="379" y="-65" type="curve" smooth="yes"/>
      <point x="380" y="-62"/>
      <point x="380" y="-58"/>
      <point x="379" y="-53" type="curve"/>
      <point x="216" y="756" type="line"/>
      <point x="213" y="770"/>
      <point x="204" y="786"/>
      <point x="179" y="786" type="curve"/>
      <point x="152" y="786" type="line"/>
      <point x="140" y="786"/>
      <point x="128" y="777"/>
      <point x="125" y="767" type="curve" smooth="yes"/>
      <point x="124" y="764"/>
      <point x="124" y="760"/>
      <point x="125" y="755" type="curve"/>
    </contour>
  </outline>
</glyph>
<glyph name="bracketright" format="1">
  <advance width="343"/>
  <unicode hex="005D"/>
  <outline>
    <contour>
      <point x="147" y="-159" type="line" name="hr00" smooth="yes"/>
      <point x="162" y="-159"/>
      <point x="176" y="-147"/>
      <point x="179" y="-132" type="curve" smooth="yes"/>
      <point x="367" y="749" type="line" smooth="yes"/>
      <point x="370" y="764"/>
      <point x="360" y="776"/>
      <point x="345" y="776" type="curve" smooth="yes"/>
      <point x="152" y="776" type="line" smooth="yes"/>
      <point x="137" y="776"/>
      <point x="123" y="764"/>
      <point x="120" y="749" type="curve" smooth="yes"/>
      <point x="113" y="717" type="line" smooth="yes"/>
      <point x="110" y="702"/>
      <point x="119" y="690"/>
      <point x="134" y="690" type="curve" smooth="yes"/>
      <point x="263" y="690" type="line"/>
      <point x="101" y="-73" type="line"/>
      <point x="-28" y="-73" type="line" smooth="yes"/>
      <point x="-43" y="-73"/>
      <point x="-58" y="-85"/>
      <point x="-61" y="-100" type="curve" smooth="yes"/>
      <point x="-68" y="-132" type="line" smooth="yes"/>
      <point x="-71" y="-147"/>
      <point x="-61" y="-159"/>
      <point x="-46" y="-159" type="curve" smooth="yes"/>
    </contour>
  </outline>
</glyph>
<glyph name="asciicircum" format="1">
  <advance width="406"/>
  <unicode hex="005E"/>
  <outline>
    <contour>
      <point x="286" y="735" type="line" name="hr00" smooth="yes"/>
      <point x="271" y="735"/>
      <point x="261" y="730"/>
      <point x="245" y="716" type="curve" smooth="yes"/>
      <point x="133" y="624" type="line" smooth="yes"/>
      <point x="122" y="615"/>
      <point x="122" y="595"/>
      <point x="138" y="595" type="curve" smooth="yes"/>
      <point x="164" y="595" type="line" smooth="yes"/>
      <point x="177" y="595"/>
      <point x="184" y="598"/>
      <point x="198" y="606" type="curve" smooth="yes"/>
      <point x="284" y="652" type="line"/>
      <point x="350" y="606" type="line" smooth="yes"/>
      <point x="361" y="599"/>
      <point x="365" y="595"/>
      <point x="378" y="595" type="curve" smooth="yes"/>
      <point x="394" y="595" type="line" smooth="yes"/>
      <point x="408" y="595"/>
      <point x="421" y="611"/>
      <point x="411" y="624" type="curve" smooth="yes"/>
      <point x="339" y="716" type="line" smooth="yes"/>
      <point x="329" y="730"/>
      <point x="321" y="735"/>
      <point x="306" y="735" type="curve" smooth="yes"/>
    </contour>
  </outline>
</glyph>
<glyph name="underscore" format="1">
  <advance width="746"/>
  <unicode hex="005F"/>
  <outline>
    <contour>
      <point x="592" y="-43" type="line" name="hr00" smooth="yes"/>
      <point x="607" y="-43"/>
      <point x="622" y="-31"/>
      <point x="625" y="-16" type="curve" smooth="yes"/>
      <point x="632" y="16" type="line" smooth="yes"/>
      <point x="635" y="31"/>
      <point x="626" y="43"/>
      <point x="611" y="43" type="curve" smooth="yes"/>
      <point x="36" y="43" type="line" smooth="yes"/>
      <point x="21" y="43"/>
      <point x="6" y="31"/>
      <point x="3" y="16" type="curve" smooth="yes"/>
      <point x="-4" y="-16" type="line" smooth="yes"/>
      <point x="-7" y="-31"/>
      <point x="2" y="-43"/>
      <point x="17" y="-43" type="curve" smooth="yes"/>
    </contour>
  </outline>
</glyph>
<glyph name="grave" format="1">
  <advance width="213"/>
  <unicode hex="0060"/>
  <outline>
    <contour>
      <point x="153" y="716" type="line" name="hr00" smooth="yes"/>
      <point x="142" y="734"/>
      <point x="135" y="735"/>
      <point x="120" y="735" type="curve" smooth="yes"/>
      <point x="56" y="735" type="line" smooth="yes"/>
      <point x="34" y="735"/>
      <point x="25" y="713"/>
      <point x="35" y="703" type="curve" smooth="yes"/>
      <point x="127" y="612" type="line" smooth="yes"/>
      <point x="136" y="603"/>
      <point x="144" y="595"/>
      <point x="165" y="595" type="curve" smooth="yes"/>
      <point x="192" y="595" type="line" smooth="yes"/>
      <point x="206" y="595"/>
      <point x="219" y="607"/>
      <point x="209" y="624" type="curve" smooth="yes"/>
    </contour>
  </outline>
</glyph>
<glyph name="a" format="1">
  <advance width="586"/>
  <unicode hex="0061"/>
  <outline>
    <contour>
      <point x="313" y="530" type="curve" smooth="yes"/>
      <point x="188" y="530"/>
      <point x="89" y="450"/>
      <point x="51" y="303" type="curve" smooth="yes"/>
      <point x="46" y="283"/>
      <point x="40" y="258"/>
      <point x="37" y="238" type="curve" smooth="yes"/>
      <point x="13" y="91"/>
      <point x="89" y="-10"/>
      <point x="214" y="-10" type="curve" smooth="yes"/>
      <point x="295" y="-10"/>
      <point x="338" y="19"/>
      <point x="370" y="58" type="curve"/>
      <point x="363" y="27" type="line" smooth="yes"/>
      <point x="360" y="12"/>
      <point x="370" y="0"/>
      <point x="385" y="0" type="curve" name="hr01" smooth="yes"/>
      <point x="422" y="0" type="line" smooth="yes"/>
      <point x="437" y="0"/>
      <point x="451" y="12"/>
      <point x="454" y="27" type="curve" smooth="yes"/>
      <point x="553" y="493" type="line" smooth="yes"/>
      <point x="556" y="508"/>
      <point x="546" y="520"/>
      <point x="531" y="520" type="curve" smooth="yes"/>
      <point x="494" y="520" type="line" smooth="yes"/>
      <point x="479" y="520"/>
      <point x="465" y="508"/>
      <point x="462" y="493" type="curve" smooth="yes"/>
      <point x="456" y="462" type="line"/>
      <point x="440" y="492"/>
      <point x="395" y="530"/>
    </contour>
    <contour>
      <point x="404" y="217" type="curve" smooth="yes"/>
      <point x="381" y="131"/>
      <point x="306" y="76"/>
      <point x="224" y="76" type="curve" smooth="yes"/>
      <point x="147" y="76"/>
      <point x="110" y="136"/>
      <point x="126" y="232" type="curve" smooth="yes"/>
      <point x="129" y="252"/>
      <point x="132" y="268"/>
      <point x="138" y="288" type="curve"/>
      <point x="163" y="384"/>
      <point x="225" y="444"/>
      <point x="312" y="444" type="curve" smooth="yes"/>
      <point x="396" y="444"/>
      <point x="436" y="390"/>
      <point x="420" y="296" type="curve" smooth="yes"/>
      <point x="417" y="276"/>
      <point x="409" y="237"/>
    </contour>
  </outline>
</glyph>
<glyph name="c" format="1">
  <advance width="552"/>
  <unicode hex="0063"/>
  <outline>
    <contour>
      <point x="124" y="225" type="curve" smooth="yes"/>
      <point x="127" y="246"/>
      <point x="132" y="272"/>
      <point x="139" y="295" type="curve" smooth="yes"/>
      <point x="171" y="401"/>
      <point x="257" y="444"/>
      <point x="324" y="444" type="curve" smooth="yes"/>
      <point x="387" y="444"/>
      <point x="419" y="421"/>
      <point x="432" y="366" type="curve" smooth="yes"/>
      <point x="437" y="345"/>
      <point x="445" y="339"/>
      <point x="460" y="339" type="curve" name="hr01" smooth="yes"/>
      <point x="494" y="339" type="line" smooth="yes"/>
      <point x="509" y="339"/>
      <point x="523" y="351"/>
      <point x="523" y="366" type="curve" smooth="yes"/>
      <point x="523" y="431"/>
      <point x="474" y="530"/>
      <point x="324" y="530" type="curve" smooth="yes"/>
      <point x="194" y="530"/>
      <point x="89" y="433"/>
      <point x="51" y="305" type="curve" smooth="yes"/>
      <point x="44" y="282"/>
      <point x="38" y="246"/>
      <point x="34" y="225" type="curve" smooth="yes"/>
      <point x="13" y="97"/>
      <point x="90" y="-10"/>
      <point x="227" y="-10" type="curve" smooth="yes"/>
      <point x="384" y="-10"/>
      <point x="457" y="92"/>
      <point x="479" y="154" type="curve" smooth="yes"/>
      <point x="484" y="169"/>
      <point x="473" y="181"/>
      <point x="458" y="181" type="curve" smooth="yes"/>
      <point x="421" y="181" type="line" smooth="yes"/>
      <point x="406" y="181"/>
      <point x="396" y="175"/>
      <point x="382" y="154" type="curve" smooth="yes"/>
      <point x="346" y="99"/>
      <point x="289" y="76"/>
      <point x="226" y="76" type="curve" name="hr02" smooth="yes"/>
      <point x="159" y="76"/>
      <point x="112" y="119"/>
    </contour>
  </outline>
</glyph>
<glyph name="d" format="1">
  <advance width="597"/>
  <unicode hex="0064"/>
  <outline>
    <contour>
      <point x="318" y="530" type="curve" smooth="yes"/>
      <point x="193" y="530"/>
      <point x="89" y="450"/>
      <point x="51" y="303" type="curve" smooth="yes"/>
      <point x="46" y="283"/>
      <point x="40" y="258"/>
      <point x="37" y="238" type="curve" smooth="yes"/>
      <point x="13" y="91"/>
      <point x="94" y="-10"/>
      <point x="219" y="-10" type="curve" smooth="yes"/>
      <point x="300" y="-10"/>
      <point x="345" y="22"/>
      <point x="380" y="58" type="curve"/>
      <point x="373" y="27" type="line" smooth="yes"/>
      <point x="370" y="12"/>
      <point x="380" y="0"/>
      <point x="395" y="0" type="curve" name="hr01" smooth="yes"/>
      <point x="432" y="0" type="line" smooth="yes"/>
      <point x="447" y="0"/>
      <point x="461" y="12"/>
      <point x="464" y="27" type="curve" smooth="yes"/>
      <point x="604" y="683" type="line" smooth="yes"/>
      <point x="607" y="698"/>
      <point x="597" y="710"/>
      <point x="582" y="710" type="curve" smooth="yes"/>
      <point x="545" y="710" type="line" smooth="yes"/>
      <point x="530" y="710"/>
      <point x="516" y="698"/>
      <point x="513" y="683" type="curve" smooth="yes"/>
      <point x="466" y="462" type="line"/>
      <point x="448" y="495"/>
      <point x="400" y="530"/>
    </contour>
    <contour>
      <point x="414" y="217" type="curve" smooth="yes"/>
      <point x="391" y="131"/>
      <point x="311" y="76"/>
      <point x="229" y="76" type="curve" name="hr02" smooth="yes"/>
      <point x="152" y="76"/>
      <point x="110" y="136"/>
      <point x="126" y="232" type="curve" smooth="yes"/>
      <point x="129" y="252"/>
      <point x="132" y="268"/>
      <point x="138" y="288" type="curve"/>
      <point x="163" y="384"/>
      <point x="230" y="444"/>
      <point x="317" y="444" type="curve" smooth="yes"/>
      <point x="391" y="444"/>
      <point x="446" y="390"/>
      <point x="430" y="296" type="curve" smooth="yes"/>
      <point x="427" y="276"/>
      <point x="419" y="237"/>
    </contour>
  </outline>
</glyph>
<glyph name="e" format="1">
  <advance width="557"/>
  <unicode hex="0065"/>
  <outline>
    <contour>
      <point x="53" y="310" type="curve" smooth="yes"/>
      <point x="44" y="280"/>
      <point x="37" y="248"/>
      <point x="34" y="218" type="curve"/>
      <point x="18" y="88"/>
      <point x="94" y="-10"/>
      <point x="226" y="-10" type="curve" smooth="yes"/>
      <point x="368" y="-10"/>
      <point x="438" y="72"/>
      <point x="459" y="113" type="curve" smooth="yes"/>
      <point x="466" y="127"/>
      <point x="455" y="140"/>
      <point x="440" y="140" type="curve" smooth="yes"/>
      <point x="395" y="140" type="line" smooth="yes"/>
      <point x="379" y="140"/>
      <point x="372" y="136"/>
      <point x="360" y="126" type="curve" smooth="yes"/>
      <point x="332" y="101"/>
      <point x="299" y="76"/>
      <point x="225" y="76" type="curve" name="hr01" smooth="yes"/>
      <point x="156" y="76"/>
      <point x="113" y="131"/>
      <point x="125" y="223" type="curve"/>
      <point x="473" y="223" type="line" smooth="yes"/>
      <point x="488" y="223"/>
      <point x="502" y="235"/>
      <point x="506" y="250" type="curve"/>
      <point x="511" y="277" type="line" smooth="yes"/>
      <point x="538" y="425"/>
      <point x="458" y="530"/>
      <point x="325" y="530" type="curve" smooth="yes"/>
      <point x="192" y="530"/>
      <point x="91" y="432"/>
    </contour>
    <contour>
      <point x="145" y="307" type="line"/>
      <point x="174" y="388"/>
      <point x="244" y="444"/>
      <point x="320" y="444" type="curve" smooth="yes"/>
      <point x="398" y="444"/>
      <point x="441" y="386"/>
      <point x="427" y="307" type="curve"/>
    </contour>
  </outline>
</glyph>
<glyph name="i" format="1">
  <advance width="241"/>
  <unicode hex="0069"/>
  <outline>
    <contour>
      <point x="208" y="493" type="line" name="hr00" smooth="yes"/>
      <point x="211" y="508"/>
      <point x="202" y="520"/>
      <point x="187" y="520" type="curve" smooth="yes"/>
      <point x="150" y="520" type="line" smooth="yes"/>
      <point x="135" y="520"/>
      <point x="120" y="508"/>
      <point x="117" y="493" type="curve" smooth="yes"/>
      <point x="18" y="27" type="line" smooth="yes"/>
      <point x="15" y="12"/>
      <point x="25" y="0"/>
      <point x="40" y="0" type="curve" smooth="yes"/>
      <point x="77" y="0" type="line" smooth="yes"/>
      <point x="92" y="0"/>
      <point x="106" y="12"/>
      <point x="109" y="27" type="curve" smooth="yes"/>
    </contour>
    <contour>
      <point x="259" y="683" type="line" smooth="yes"/>
      <point x="262" y="698"/>
      <point x="252" y="710"/>
      <point x="237" y="710" type="curve" smooth="yes"/>
      <point x="180" y="710" type="line" smooth="yes"/>
      <point x="165" y="710"/>
      <point x="151" y="698"/>
      <point x="148" y="683" type="curve" smooth="yes"/>
      <point x="136" y="626" type="line"/>
      <point x="132" y="611"/>
      <point x="142" y="599"/>
      <point x="157" y="599" type="curve" smooth="yes"/>
      <point x="214" y="599" type="line" smooth="yes"/>
      <point x="229" y="599"/>
      <point x="243" y="611"/>
      <point x="247" y="626" type="curve"/>
    </contour>
  </outline>
</glyph>
<glyph name="j" format="1">
  <advance width="251"/>
  <unicode hex="006A"/>
  <outline>
    <contour>
      <point x="18" y="-15" type="line" name="hr00" smooth="yes"/>
      <point x="7" y="-66"/>
      <point x="-15" y="-104"/>
      <point x="-84" y="-104" type="curve" smooth="yes"/>
      <point x="-93" y="-104" type="line" smooth="yes"/>
      <point x="-108" y="-104"/>
      <point x="-122" y="-116"/>
      <point x="-125" y="-131" type="curve" smooth="yes"/>
      <point x="-132" y="-163" type="line" smooth="yes"/>
      <point x="-135" y="-178"/>
      <point x="-126" y="-190"/>
      <point x="-111" y="-190" type="curve" smooth="yes"/>
      <point x="-84" y="-190" type="line" smooth="yes"/>
      <point x="30" y="-190"/>
      <point x="85" y="-128"/>
      <point x="109" y="-15" type="curve" smooth="yes"/>
      <point x="217" y="493" type="line" smooth="yes"/>
      <point x="220" y="508"/>
      <point x="211" y="520"/>
      <point x="196" y="520" type="curve" smooth="yes"/>
      <point x="159" y="520" type="line" smooth="yes"/>
      <point x="144" y="520"/>
      <point x="129" y="508"/>
      <point x="126" y="493" type="curve" smooth="yes"/>
    </contour>
    <contour>
      <point x="268" y="683" type="line" smooth="yes"/>
      <point x="271" y="698"/>
      <point x="261" y="710"/>
      <point x="246" y="710" type="curve" smooth="yes"/>
      <point x="189" y="710" type="line" smooth="yes"/>
      <point x="174" y="710"/>
      <point x="160" y="698"/>
      <point x="157" y="683" type="curve" smooth="yes"/>
      <point x="145" y="626" type="line"/>
      <point x="141" y="611"/>
      <point x="151" y="599"/>
      <point x="166" y="599" type="curve" smooth="yes"/>
      <point x="223" y="599" type="line" smooth="yes"/>
      <point x="238" y="599"/>
      <point x="252" y="611"/>
      <point x="256" y="626" type="curve"/>
    </contour>
  </outline>
</glyph>
<glyph name="k" format="1">
  <advance width="520"/>
  <unicode hex="006B"/>
  <outline>
    <contour>
      <point x="351" y="17" type="line" name="hr00" smooth="yes"/>
      <point x="357" y="10"/>
      <point x="369" y="0"/>
      <point x="389" y="0" type="curve" smooth="yes"/>
      <point x="422" y="0" type="line" smooth="yes"/>
      <point x="435" y="0"/>
      <point x="448" y="11"/>
      <point x="451" y="24" type="curve" smooth="yes"/>
      <point x="452" y="30"/>
      <point x="451" y="35"/>
      <point x="445" y="43" type="curve" smooth="yes"/>
      <point x="239" y="288" type="line"/>
      <point x="513" y="476" type="line" smooth="yes"/>
      <point x="524" y="484"/>
      <point x="527" y="490"/>
      <point x="528" y="496" type="curve" smooth="yes"/>
      <point x="531" y="509"/>
      <point x="522" y="520"/>
      <point x="509" y="520" type="curve" smooth="yes"/>
      <point x="452" y="520" type="line" smooth="yes"/>
      <point x="434" y="520"/>
      <point x="419" y="509"/>
      <point x="409" y="503" type="curve" smooth="yes"/>
      <point x="177" y="345" type="line"/>
      <point x="249" y="683" type="line" smooth="yes"/>
      <point x="252" y="698"/>
      <point x="242" y="710"/>
      <point x="227" y="710" type="curve" smooth="yes"/>
      <point x="190" y="710" type="line" smooth="yes"/>
      <point x="175" y="710"/>
      <point x="161" y="698"/>
      <point x="158" y="683" type="curve" smooth="yes"/>
      <point x="18" y="27" type="line" smooth="yes"/>
      <point x="15" y="12"/>
      <point x="25" y="0"/>
      <point x="40" y="0" type="curve" smooth="yes"/>
      <point x="77" y="0" type="line" smooth="yes"/>
      <point x="92" y="0"/>
      <point x="106" y="12"/>
      <point x="109" y="27" type="curve" smooth="yes"/>
      <point x="157" y="249" type="line"/>
    </contour>
  </outline>
</glyph>
<glyph name="l" format="1">
  <advance width="242"/>
  <unicode hex="006C"/>
  <outline>
    <contour>
      <point x="249" y="683" type="line" name="hr00" smooth="yes"/>
      <point x="252" y="698"/>
      <point x="242" y="710"/>
      <point x="227" y="710" type="curve" smooth="yes"/>
      <point x="190" y="710" type="line" smooth="yes"/>
      <point x="175" y="710"/>
      <point x="161" y="698"/>
      <point x="158" y="683" type="curve" smooth="yes"/>
      <point x="18" y="27" type="line" smooth="yes"/>
      <point x="15" y="12"/>
      <point x="25" y="0"/>
      <point x="40" y="0" type="curve" smooth="yes"/>
      <point x="77" y="0" type="line" smooth="yes"/>
      <point x="92" y="0"/>
      <point x="106" y="12"/>
      <point x="109" y="27" type="curve" smooth="yes"/>
    </contour>
  </outline>
</glyph>
<glyph name="n" format="1">
  <advance width="607"/>
  <unicode hex="006E"/>
  <outline>
    <contour>
      <point x="540" y="306" type="line"/>
      <point x="569" y="446"/>
      <point x="495" y="530"/>
      <point x="359" y="530" type="curve" smooth="yes"/>
      <point x="278" y="530"/>
      <point x="234" y="495"/>
      <point x="202" y="462" type="curve"/>
      <point x="208" y="493" type="line" smooth="yes"/>
      <point x="211" y="508"/>
      <point x="202" y="520"/>
      <point x="187" y="520" type="curve" name="hr01" smooth="yes"/>
      <point x="150" y="520" type="line" smooth="yes"/>
      <point x="135" y="520"/>
      <point x="120" y="508"/>
      <point x="117" y="493" type="curve" smooth="yes"/>
      <point x="18" y="27" type="line" smooth="yes"/>
      <point x="15" y="12"/>
      <point x="25" y="0"/>
      <point x="40" y="0" type="curve" smooth="yes"/>
      <point x="77" y="0" type="line" smooth="yes"/>
      <point x="92" y="0"/>
      <point x="106" y="12"/>
      <point x="109" y="27" type="curve" smooth="yes"/>
      <point x="165" y="291" type="line" smooth="yes"/>
      <point x="187" y="393"/>
      <point x="254" y="444"/>
      <point x="348" y="444" type="curve" name="hr02" smooth="yes"/>
      <point x="435" y="444"/>
      <point x="467" y="393"/>
      <point x="445" y="291" type="curve" smooth="yes"/>
      <point x="389" y="27" type="line" smooth="yes"/>
      <point x="386" y="12"/>
      <point x="396" y="0"/>
      <point x="411" y="0" type="curve" smooth="yes"/>
      <point x="448" y="0" type="line" smooth="yes"/>
      <point x="463" y="0"/>
      <point x="477" y="12"/>
      <point x="480" y="27" type="curve" smooth="yes"/>
    </contour>
  </outline>
</glyph>
<glyph name="o" format="1">
  <advance width="575"/>
  <unicode hex="006F"/>
  <outline>
    <contour>
      <point x="328" y="530" type="curve" name="hr00" smooth="yes"/>
      <point x="195" y="530"/>
      <point x="92" y="439"/>
      <point x="53" y="307" type="curve" smooth="yes"/>
      <point x="46" y="284"/>
      <point x="35" y="234"/>
      <point x="33" y="213" type="curve" smooth="yes"/>
      <point x="17" y="81"/>
      <point x="98" y="-10"/>
      <point x="231" y="-10" type="curve" smooth="yes"/>
      <point x="374" y="-10"/>
      <point x="467" y="81"/>
      <point x="507" y="213" type="curve" smooth="yes"/>
      <point x="513" y="234"/>
      <point x="524" y="284"/>
      <point x="527" y="307" type="curve" smooth="yes"/>
      <point x="544" y="439"/>
      <point x="461" y="530"/>
    </contour>
    <contour>
      <point x="417" y="218" type="curve" smooth="yes"/>
      <point x="392" y="137"/>
      <point x="324" y="76"/>
      <point x="231" y="76" type="curve" smooth="yes"/>
      <point x="148" y="76"/>
      <point x="115" y="137"/>
      <point x="125" y="218" type="curve" smooth="yes"/>
      <point x="128" y="240"/>
      <point x="136" y="278"/>
      <point x="143" y="302" type="curve" smooth="yes"/>
      <point x="167" y="383"/>
      <point x="235" y="444"/>
      <point x="328" y="444" type="curve" smooth="yes"/>
      <point x="421" y="444"/>
      <point x="445" y="383"/>
      <point x="435" y="302" type="curve" smooth="yes"/>
      <point x="432" y="278"/>
      <point x="424" y="240"/>
    </contour>
  </outline>
</glyph>
<glyph name="q" format="1">
  <advance width="600"/>
  <unicode hex="0071"/>
  <outline>
    <contour>
      <point x="221" y="-10" type="curve" smooth="yes"/>
      <point x="303" y="-10"/>
      <point x="350" y="25"/>
      <point x="382" y="58" type="curve"/>
      <point x="335" y="-163" type="line" smooth="yes"/>
      <point x="332" y="-178"/>
      <point x="342" y="-190"/>
      <point x="357" y="-190" type="curve" smooth="yes"/>
      <point x="394" y="-190" type="line" smooth="yes"/>
      <point x="409" y="-190"/>
      <point x="423" y="-178"/>
      <point x="426" y="-163" type="curve" smooth="yes"/>
      <point x="566" y="493" type="line" smooth="yes"/>
      <point x="569" y="508"/>
      <point x="559" y="520"/>
      <point x="544" y="520" type="curve" smooth="yes"/>
      <point x="507" y="520" type="line" smooth="yes"/>
      <point x="492" y="520"/>
      <point x="478" y="508"/>
      <point x="475" y="493" type="curve" smooth="yes"/>
      <point x="468" y="462" type="line"/>
      <point x="449" y="498"/>
      <point x="410" y="530"/>
      <point x="329" y="530" type="curve" name="hr01" smooth="yes"/>
      <point x="194" y="530"/>
      <point x="89" y="449"/>
      <point x="51" y="302" type="curve" smooth="yes"/>
      <point x="46" y="282"/>
      <point x="40" y="257"/>
      <point x="37" y="237" type="curve" smooth="yes"/>
      <point x="13" y="90"/>
      <point x="96" y="-10"/>
    </contour>
    <contour>
      <point x="434" y="303" type="curve"/>
      <point x="432" y="283"/>
      <point x="424" y="244"/>
      <point x="418" y="224" type="curve" smooth="yes"/>
      <point x="390" y="130"/>
      <point x="315" y="76"/>
      <point x="231" y="76" type="curve" smooth="yes"/>
      <point x="154" y="76"/>
      <point x="115" y="136"/>
      <point x="128" y="232" type="curve"/>
      <point x="132" y="252"/>
      <point x="135" y="268"/>
      <point x="140" y="288" type="curve"/>
      <point x="168" y="384"/>
      <point x="232" y="444"/>
      <point x="329" y="444" type="curve" smooth="yes"/>
      <point x="401" y="444"/>
      <point x="446" y="389"/>
    </contour>
  </outline>
</glyph>
<glyph name="t" format="1">
  <advance width="393"/>
  <unicode hex="0074"/>
  <outline>
    <contour>
      <point x="236" y="434" type="line" name="hr00"/>
      <point x="363" y="434" type="line" smooth="yes"/>
      <point x="378" y="434"/>
      <point x="392" y="446"/>
      <point x="395" y="461" type="curve" smooth="yes"/>
      <point x="402" y="493" type="line" smooth="yes"/>
      <point x="405" y="508"/>
      <point x="396" y="520"/>
      <point x="381" y="520" type="curve" smooth="yes"/>
      <point x="255" y="520" type="line"/>
      <point x="289" y="683" type="line" smooth="yes"/>
      <point x="292" y="698"/>
      <point x="282" y="710"/>
      <point x="267" y="710" type="curve" smooth="yes"/>
      <point x="230" y="710" type="line" smooth="yes"/>
      <point x="215" y="710"/>
      <point x="201" y="698"/>
      <point x="198" y="683" type="curve" smooth="yes"/>
      <point x="164" y="520" type="line"/>
      <point x="89" y="520" type="line" smooth="yes"/>
      <point x="74" y="520"/>
      <point x="59" y="508"/>
      <point x="56" y="493" type="curve" smooth="yes"/>
      <point x="49" y="461" type="line" smooth="yes"/>
      <point x="46" y="446"/>
      <point x="56" y="434"/>
      <point x="71" y="434" type="curve" smooth="yes"/>
      <point x="145" y="434" type="line"/>
      <point x="90" y="175" type="line" smooth="yes"/>
      <point x="64" y="52"/>
      <point x="121" y="0"/>
      <point x="226" y="0" type="curve" smooth="yes"/>
      <point x="281" y="0" type="line" smooth="yes"/>
      <point x="296" y="0"/>
      <point x="310" y="12"/>
      <point x="313" y="27" type="curve" smooth="yes"/>
      <point x="320" y="59" type="line" smooth="yes"/>
      <point x="323" y="74"/>
      <point x="314" y="86"/>
      <point x="299" y="86" type="curve" smooth="yes"/>
      <point x="236" y="86" type="line" smooth="yes"/>
      <point x="186" y="86"/>
      <point x="166" y="104"/>
      <point x="181" y="175" type="curve" smooth="yes"/>
    </contour>
  </outline>
</glyph>
<glyph name="u" format="1">
  <advance width="596"/>
  <unicode hex="0075"/>
  <outline>
    <contour>
      <point x="52" y="214" type="line" smooth="yes"/>
      <point x="22" y="74"/>
      <point x="93" y="-10"/>
      <point x="229" y="-10" type="curve" smooth="yes"/>
      <point x="305" y="-10"/>
      <point x="348" y="25"/>
      <point x="380" y="58" type="curve"/>
      <point x="373" y="27" type="line" smooth="yes"/>
      <point x="370" y="12"/>
      <point x="380" y="0"/>
      <point x="395" y="0" type="curve" name="hr01" smooth="yes"/>
      <point x="432" y="0" type="line" smooth="yes"/>
      <point x="447" y="0"/>
      <point x="461" y="12"/>
      <point x="464" y="27" type="curve" smooth="yes"/>
      <point x="563" y="493" type="line" smooth="yes"/>
      <point x="566" y="508"/>
      <point x="557" y="520"/>
      <point x="542" y="520" type="curve" smooth="yes"/>
      <point x="505" y="520" type="line" smooth="yes"/>
      <point x="490" y="520"/>
      <point x="475" y="508"/>
      <point x="472" y="493" type="curve" smooth="yes"/>
      <point x="416" y="229" type="line" smooth="yes"/>
      <point x="394" y="127"/>
      <point x="323" y="76"/>
      <point x="239" y="76" type="curve" name="hr02" smooth="yes"/>
      <point x="158" y="76"/>
      <point x="124" y="127"/>
      <point x="146" y="229" type="curve" smooth="yes"/>
      <point x="202" y="493" type="line" smooth="yes"/>
      <point x="205" y="508"/>
      <point x="196" y="520"/>
      <point x="181" y="520" type="curve" smooth="yes"/>
      <point x="144" y="520" type="line" smooth="yes"/>
      <point x="129" y="520"/>
      <point x="114" y="508"/>
      <point x="111" y="493" type="curve" smooth="yes"/>
    </contour>
  </outline>
</glyph>
<glyph name="v" format="1">
  <advance width="558"/>
  <unicode hex="0076"/>
  <outline>
    <contour>
      <point x="200" y="0" type="line" name="hr00" smooth="yes"/>
      <point x="183" y="0"/>
      <point x="176" y="13"/>
      <point x="174" y="25" type="curve" smooth="yes"/>
      <point x="73" y="489" type="line"/>
      <point x="70" y="507"/>
      <point x="83" y="520"/>
      <point x="100" y="520" type="curve" smooth="yes"/>
      <point x="132" y="520" type="line" smooth="yes"/>
      <point x="152" y="520"/>
      <point x="161" y="507"/>
      <point x="163" y="496" type="curve" smooth="yes"/>
      <point x="239" y="141" type="line"/>
      <point x="468" y="496" type="line" smooth="yes"/>
      <point x="475" y="507"/>
      <point x="486" y="520"/>
      <point x="502" y="520" type="curve" smooth="yes"/>
      <point x="551" y="520" type="line" smooth="yes"/>
      <point x="570" y="520"/>
      <point x="577" y="503"/>
      <point x="567" y="489" type="curve"/>
      <point x="270" y="25" type="line" smooth="yes"/>
      <point x="262" y="13"/>
      <point x="252" y="0"/>
      <point x="235" y="0" type="curve" smooth="yes"/>
    </contour>
  </outline>
</glyph>
<glyph name="w" format="1">
  <advance width="806"/>
  <unicode hex="0077"/>
  <outline>
    <contour>
      <point x="481" y="496" type="line" name="hr00" smooth="yes"/>
      <point x="479" y="507"/>
      <point x="475" y="520"/>
      <point x="455" y="520" type="curve" smooth="yes"/>
      <point x="433" y="520" type="line" smooth="yes"/>
      <point x="413" y="520"/>
      <point x="403" y="507"/>
      <point x="397" y="496" type="curve" smooth="yes"/>
      <point x="207" y="156" type="line"/>
      <point x="165" y="496" type="line" smooth="yes"/>
      <point x="164" y="507"/>
      <point x="153" y="520"/>
      <point x="133" y="520" type="curve" smooth="yes"/>
      <point x="103" y="520" type="line" smooth="yes"/>
      <point x="87" y="520"/>
      <point x="74" y="504"/>
      <point x="76" y="488" type="curve" smooth="yes"/>
      <point x="135" y="28" type="line" smooth="yes"/>
      <point x="137" y="12"/>
      <point x="143" y="0"/>
      <point x="160" y="0" type="curve" smooth="yes"/>
      <point x="194" y="0" type="line" smooth="yes"/>
      <point x="211" y="0"/>
      <point x="221" y="13"/>
      <point x="230" y="28" type="curve" smooth="yes"/>
      <point x="414" y="351" type="line"/>
      <point x="458" y="28" type="line"/>
      <point x="461" y="13"/>
      <point x="467" y="0"/>
      <point x="484" y="0" type="curve" smooth="yes"/>
      <point x="523" y="0" type="line" smooth="yes"/>
      <point x="540" y="0"/>
      <point x="550" y="12"/>
      <point x="558" y="28" type="curve" smooth="yes"/>
      <point x="809" y="488" type="line" smooth="yes"/>
      <point x="816" y="502"/>
      <point x="812" y="520"/>
      <point x="791" y="520" type="curve" smooth="yes"/>
      <point x="750" y="520" type="line" smooth="yes"/>
      <point x="730" y="520"/>
      <point x="719" y="507"/>
      <point x="713" y="496" type="curve" smooth="yes"/>
      <point x="527" y="156" type="line"/>
    </contour>
  </outline>
</glyph>
<glyph name="x" format="1">
  <advance width="557"/>
  <unicode hex="0078"/>
  <outline>
    <contour>
      <point x="373" y="19" type="line" name="hr00"/>
      <point x="376" y="13"/>
      <point x="384" y="0"/>
      <point x="401" y="0" type="curve" smooth="yes"/>
      <point x="446" y="0" type="line"/>
      <point x="464" y="0"/>
      <point x="474" y="22"/>
      <point x="465" y="37" type="curve"/>
      <point x="330" y="259" type="line"/>
      <point x="558" y="483" type="line"/>
      <point x="570" y="495"/>
      <point x="567" y="520"/>
      <point x="546" y="520" type="curve"/>
      <point x="490" y="520" type="line"/>
      <point x="473" y="520"/>
      <point x="460" y="507"/>
      <point x="454" y="501" type="curve"/>
      <point x="284" y="335" type="line"/>
      <point x="184" y="501" type="line"/>
      <point x="180" y="507"/>
      <point x="173" y="520"/>
      <point x="156" y="520" type="curve"/>
      <point x="119" y="520" type="line"/>
      <point x="100" y="520"/>
      <point x="82" y="498"/>
      <point x="91" y="483" type="curve"/>
      <point x="217" y="275" type="line"/>
      <point x="-27" y="37" type="line" smooth="yes"/>
      <point x="-42" y="22"/>
      <point x="-35" y="0"/>
      <point x="-14" y="0" type="curve"/>
      <point x="44" y="0" type="line"/>
      <point x="61" y="0"/>
      <point x="73" y="13"/>
      <point x="80" y="19" type="curve"/>
      <point x="263" y="199" type="line"/>
    </contour>
  </outline>
</glyph>
<glyph name="z" format="1">
  <advance width="508"/>
  <unicode hex="007A"/>
  <outline>
    <contour>
      <point x="131" y="86" type="line" name="hr00"/>
      <point x="466" y="425" type="line" smooth="yes"/>
      <point x="475" y="435"/>
      <point x="483" y="442"/>
      <point x="486" y="454" type="curve" smooth="yes"/>
      <point x="494" y="493" type="line" smooth="yes"/>
      <point x="497" y="508"/>
      <point x="488" y="520"/>
      <point x="473" y="520" type="curve" smooth="yes"/>
      <point x="125" y="520" type="line" smooth="yes"/>
      <point x="110" y="520"/>
      <point x="95" y="508"/>
      <point x="92" y="493" type="curve" smooth="yes"/>
      <point x="85" y="461" type="line" smooth="yes"/>
      <point x="82" y="446"/>
      <point x="92" y="434"/>
      <point x="107" y="434" type="curve" smooth="yes"/>
      <point x="349" y="434" type="line"/>
      <point x="12" y="95" type="line"/>
      <point x="0" y="84"/>
      <point x="-6" y="76"/>
      <point x="-8" y="66" type="curve" smooth="yes"/>
      <point x="-17" y="27" type="line" smooth="yes"/>
      <point x="-20" y="12"/>
      <point x="-10" y="0"/>
      <point x="5" y="0" type="curve" smooth="yes"/>
      <point x="383" y="0" type="line" smooth="yes"/>
      <point x="398" y="0"/>
      <point x="412" y="12"/>
      <point x="415" y="27" type="curve" smooth="yes"/>
      <point x="422" y="59" type="line" smooth="yes"/>
      <point x="425" y="74"/>
      <point x="416" y="86"/>
      <point x="401" y="86" type="curve" smooth="yes"/>
    </contour>
  </outline>
</glyph>
<glyph name="braceleft" format="1">
  <advance width="382"/>
  <unicode hex="007B"/>
  <outline>
    <contour>
      <point x="171" y="151" type="curve" name="hr00" smooth="yes"/>
      <point x="186" y="224"/>
      <point x="176" y="285"/>
      <point x="133" y="309" type="curve"/>
      <point x="186" y="333"/>
      <point x="222" y="392"/>
      <point x="237" y="465" type="curve" smooth="yes"/>
      <point x="273" y="631"/>
      <point x="340" y="690"/>
      <point x="414" y="690" type="curve" smooth="yes"/>
      <point x="429" y="690"/>
      <point x="444" y="702"/>
      <point x="447" y="717" type="curve" smooth="yes"/>
      <point x="454" y="749" type="line" smooth="yes"/>
      <point x="457" y="764"/>
      <point x="447" y="776"/>
      <point x="432" y="776" type="curve" smooth="yes"/>
      <point x="273" y="776"/>
      <point x="189" y="665"/>
      <point x="152" y="491" type="curve" smooth="yes"/>
      <point x="137" y="423"/>
      <point x="120" y="381"/>
      <point x="71" y="360" type="curve" smooth="yes"/>
      <point x="49" y="351"/>
      <point x="34" y="336"/>
      <point x="31" y="320" type="curve" smooth="yes"/>
      <point x="26" y="297" type="line" smooth="yes"/>
      <point x="22" y="281"/>
      <point x="31" y="266"/>
      <point x="49" y="257" type="curve" smooth="yes"/>
      <point x="90" y="236"/>
      <point x="89" y="193"/>
      <point x="74" y="125" type="curve" smooth="yes"/>
      <point x="37" y="-49"/>
      <point x="114" y="-160"/>
      <point x="233" y="-160" type="curve" smooth="yes"/>
      <point x="248" y="-160"/>
      <point x="263" y="-148"/>
      <point x="266" y="-133" type="curve" smooth="yes"/>
      <point x="273" y="-101" type="line" smooth="yes"/>
      <point x="276" y="-86"/>
      <point x="267" y="-74"/>
      <point x="252" y="-74" type="curve" smooth="yes"/>
      <point x="178" y="-74"/>
      <point x="135" y="-15"/>
    </contour>
  </outline>
</glyph>
<glyph name="asciitilde" format="1">
  <advance width="562"/>
  <unicode hex="007E"/>
  <outline>
    <contour>
      <point x="180" y="361" type="curve" smooth="yes"/>
      <point x="112" y="361"/>
      <point x="77" y="328"/>
      <point x="70" y="294" type="curve" smooth="yes"/>
      <point x="65" y="270" type="line" smooth="yes"/>
      <point x="62" y="255"/>
      <point x="62" y="243"/>
      <point x="81" y="243" type="curve"/>
      <point x="90" y="244"/>
      <point x="97" y="248"/>
      <point x="103" y="252" type="curve" smooth="yes"/>
      <point x="115" y="261"/>
      <point x="149" y="275"/>
      <point x="180" y="275" type="curve" smooth="yes"/>
      <point x="273" y="275"/>
      <point x="279" y="239"/>
      <point x="378" y="239" type="curve" name="hr01" smooth="yes"/>
      <point x="446" y="239"/>
      <point x="485" y="272"/>
      <point x="493" y="306" type="curve" smooth="yes"/>
      <point x="498" y="330" type="line" smooth="yes"/>
      <point x="501" y="345"/>
      <point x="500" y="357"/>
      <point x="481" y="357" type="curve"/>
      <point x="472" y="356"/>
      <point x="465" y="352"/>
      <point x="459" y="348" type="curve" smooth="yes"/>
      <point x="448" y="339"/>
      <point x="409" y="325"/>
      <point x="378" y="325" type="curve" smooth="yes"/>
      <point x="285" y="325"/>
      <point x="279" y="361"/>
    </contour>
  </outline>
</glyph>
<glyph name="cent" format="1">
  <advance width="558"/>
  <unicode hex="00A2"/>
  <outline>
    <contour>
      <point x="127" y="225" type="curve" name="hr00" smooth="yes"/>
      <point x="130" y="246"/>
      <point x="135" y="272"/>
      <point x="142" y="295" type="curve" smooth="yes"/>
      <point x="174" y="401"/>
      <point x="260" y="444"/>
      <point x="327" y="444" type="curve" smooth="yes"/>
      <point x="390" y="444"/>
      <point x="422" y="421"/>
      <point x="435" y="366" type="curve" smooth="yes"/>
      <point x="440" y="345"/>
      <point x="448" y="339"/>
      <point x="463" y="339" type="curve"/>
      <point x="497" y="339" type="line"/>
      <point x="512" y="339"/>
      <point x="526" y="351"/>
      <point x="526" y="366" type="curve" smooth="yes"/>
      <point x="526" y="423"/>
      <point x="480" y="506"/>
      <point x="374" y="525" type="curve"/>
      <point x="386" y="583" type="line"/>
      <point x="390" y="598"/>
      <point x="380" y="610"/>
      <point x="365" y="610" type="curve"/>
      <point x="329" y="610" type="line"/>
      <point x="314" y="610"/>
      <point x="300" y="598"/>
      <point x="296" y="583" type="curve"/>
      <point x="284" y="527" type="line"/>
      <point x="167" y="509"/>
      <point x="88" y="419"/>
      <point x="54" y="305" type="curve" smooth="yes"/>
      <point x="47" y="282"/>
      <point x="41" y="246"/>
      <point x="37" y="225" type="curve" smooth="yes"/>
      <point x="19" y="115"/>
      <point x="66" y="21"/>
      <point x="172" y="-3" type="curve"/>
      <point x="157" y="-73" type="line"/>
      <point x="154" y="-88"/>
      <point x="163" y="-100"/>
      <point x="178" y="-100" type="curve"/>
      <point x="214" y="-100" type="line"/>
      <point x="229" y="-100"/>
      <point x="244" y="-88"/>
      <point x="247" y="-73" type="curve"/>
      <point x="261" y="-8" type="line"/>
      <point x="388" y="4"/>
      <point x="461" y="96"/>
      <point x="482" y="154" type="curve" smooth="yes"/>
      <point x="487" y="169"/>
      <point x="476" y="181"/>
      <point x="461" y="181" type="curve"/>
      <point x="424" y="181" type="line"/>
      <point x="409" y="181"/>
      <point x="399" y="175"/>
      <point x="385" y="154" type="curve" smooth="yes"/>
      <point x="349" y="99"/>
      <point x="292" y="76"/>
      <point x="229" y="76" type="curve" smooth="yes"/>
      <point x="162" y="76"/>
      <point x="115" y="119"/>
    </contour>
  </outline>
</glyph>
<glyph name="sterling" format="1">
  <advance width="679"/>
  <unicode hex="00A3"/>
  <outline>
    <contour>
      <point x="454" y="620" type="curve" smooth="yes"/>
      <point x="553" y="620"/>
      <point x="564" y="551"/>
      <point x="565" y="484" type="curve" smooth="yes"/>
      <point x="565" y="470"/>
      <point x="576" y="462"/>
      <point x="587" y="462" type="curve" name="hr01" smooth="yes"/>
      <point x="633" y="462" type="line" smooth="yes"/>
      <point x="645" y="462"/>
      <point x="658" y="472"/>
      <point x="659" y="484" type="curve" smooth="yes"/>
      <point x="663" y="573"/>
      <point x="646" y="710"/>
      <point x="454" y="710" type="curve" smooth="yes"/>
      <point x="277" y="710"/>
      <point x="153" y="561"/>
      <point x="153" y="380" type="curve"/>
      <point x="88" y="380" type="line" smooth="yes"/>
      <point x="75" y="380"/>
      <point x="64" y="371"/>
      <point x="62" y="358" type="curve"/>
      <point x="56" y="332" type="line" smooth="yes"/>
      <point x="53" y="319"/>
      <point x="60" y="310"/>
      <point x="73" y="310" type="curve" smooth="yes"/>
      <point x="153" y="310" type="line"/>
      <point x="153" y="269"/>
      <point x="153" y="229"/>
      <point x="145" y="187" type="curve"/>
      <point x="42" y="165"/>
      <point x="10" y="96"/>
      <point x="-8" y="22" type="curve"/>
      <point x="-10" y="10"/>
      <point x="-2" y="0"/>
      <point x="10" y="0" type="curve" smooth="yes"/>
      <point x="59" y="0" type="line" smooth="yes"/>
      <point x="70" y="0"/>
      <point x="84" y="8"/>
      <point x="89" y="22" type="curve" smooth="yes"/>
      <point x="104" y="68"/>
      <point x="128" y="104"/>
      <point x="185" y="104" type="curve" smooth="yes"/>
      <point x="252" y="104"/>
      <point x="289" y="-11"/>
      <point x="410" y="-11" type="curve" name="hr02" smooth="yes"/>
      <point x="537" y="-11"/>
      <point x="580" y="74"/>
      <point x="602" y="161" type="curve"/>
      <point x="604" y="173"/>
      <point x="596" y="183"/>
      <point x="584" y="183" type="curve" smooth="yes"/>
      <point x="535" y="183" type="line" smooth="yes"/>
      <point x="524" y="183"/>
      <point x="510" y="175"/>
      <point x="505" y="161" type="curve" smooth="yes"/>
      <point x="490" y="115"/>
      <point x="466" y="78"/>
      <point x="409" y="78" type="curve" name="hr03" smooth="yes"/>
      <point x="351" y="78"/>
      <point x="323" y="162"/>
      <point x="240" y="186" type="curve"/>
      <point x="248" y="228"/>
      <point x="249" y="268"/>
      <point x="249" y="310" type="curve"/>
      <point x="436" y="310" type="line" smooth="yes"/>
      <point x="449" y="310"/>
      <point x="460" y="319"/>
      <point x="463" y="332" type="curve" smooth="yes"/>
      <point x="469" y="358" type="line"/>
      <point x="471" y="371"/>
      <point x="464" y="380"/>
      <point x="451" y="380" type="curve" smooth="yes"/>
      <point x="249" y="380" type="line"/>
      <point x="249" y="503"/>
      <point x="315" y="620"/>
    </contour>
  </outline>
</glyph>
<glyph name="yen" format="1">
  <advance width="620"/>
  <unicode hex="00A5"/>
  <outline>
    <contour>
      <point x="115" y="308" type="line" smooth="yes"/>
      <point x="102" y="308"/>
      <point x="91" y="299"/>
      <point x="88" y="286" type="curve" smooth="yes"/>
      <point x="83" y="260" type="line" smooth="yes"/>
      <point x="80" y="247"/>
      <point x="87" y="238"/>
      <point x="100" y="238" type="curve" smooth="yes"/>
      <point x="248" y="238" type="line"/>
      <point x="240" y="198" type="line"/>
      <point x="92" y="198" type="line" smooth="yes"/>
      <point x="79" y="198"/>
      <point x="68" y="189"/>
      <point x="65" y="176" type="curve" smooth="yes"/>
      <point x="59" y="150" type="line"/>
      <point x="57" y="137"/>
      <point x="64" y="128"/>
      <point x="77" y="128" type="curve" name="hr01" smooth="yes"/>
      <point x="225" y="128" type="line"/>
      <point x="203" y="27" type="line" smooth="yes"/>
      <point x="200" y="12"/>
      <point x="210" y="0"/>
      <point x="225" y="0" type="curve" name="hr02" smooth="yes"/>
      <point x="265" y="0" type="line" smooth="yes"/>
      <point x="280" y="0"/>
      <point x="294" y="12"/>
      <point x="297" y="27" type="curve" smooth="yes"/>
      <point x="319" y="128" type="line" name="hr03"/>
      <point x="467" y="128" type="line" smooth="yes"/>
      <point x="480" y="128"/>
      <point x="491" y="137"/>
      <point x="493" y="150" type="curve"/>
      <point x="499" y="176" type="line" smooth="yes"/>
      <point x="502" y="189"/>
      <point x="495" y="198"/>
      <point x="482" y="198" type="curve" smooth="yes"/>
      <point x="334" y="198" type="line"/>
      <point x="342" y="238" type="line"/>
      <point x="490" y="238" type="line" smooth="yes"/>
      <point x="503" y="238"/>
      <point x="514" y="247"/>
      <point x="517" y="260" type="curve" smooth="yes"/>
      <point x="522" y="286" type="line" smooth="yes"/>
      <point x="525" y="299"/>
      <point x="518" y="308"/>
      <point x="505" y="308" type="curve" smooth="yes"/>
      <point x="373" y="308" type="line"/>
      <point x="660" y="664" type="line" smooth="yes"/>
      <point x="665" y="671"/>
      <point x="667" y="674"/>
      <point x="668" y="678" type="curve" smooth="yes"/>
      <point x="670" y="690"/>
      <point x="662" y="700"/>
      <point x="650" y="700" type="curve" smooth="yes"/>
      <point x="600" y="700" type="line" smooth="yes"/>
      <point x="573" y="700"/>
      <point x="563" y="686"/>
      <point x="553" y="675" type="curve"/>
      <point x="318" y="383" type="line"/>
      <point x="207" y="675" type="line"/>
      <point x="201" y="686"/>
      <point x="197" y="700"/>
      <point x="170" y="700" type="curve" smooth="yes"/>
      <point x="136" y="700" type="line" smooth="yes"/>
      <point x="124" y="700"/>
      <point x="112" y="690"/>
      <point x="110" y="678" type="curve" smooth="yes"/>
      <point x="109" y="674"/>
      <point x="109" y="671"/>
      <point x="112" y="664" type="curve" smooth="yes"/>
      <point x="247" y="308" type="line"/>
    </contour>
  </outline>
</glyph>
<glyph name="brokenbar" format="1">
  <advance width="244"/>
  <unicode hex="00A6"/>
  <outline>
    <contour>
      <point x="275" y="802" type="line" name="hr00" smooth="yes"/>
      <point x="278" y="817"/>
      <point x="269" y="829"/>
      <point x="254" y="829" type="curve" smooth="yes"/>
      <point x="217" y="829" type="line" smooth="yes"/>
      <point x="202" y="829"/>
      <point x="187" y="817"/>
      <point x="184" y="802" type="curve" smooth="yes"/>
      <point x="120" y="502" type="line" smooth="yes"/>
      <point x="117" y="487"/>
      <point x="126" y="475"/>
      <point x="141" y="475" type="curve" smooth="yes"/>
      <point x="178" y="475" type="line" smooth="yes"/>
      <point x="193" y="475"/>
      <point x="208" y="487"/>
      <point x="211" y="502" type="curve" smooth="yes"/>
    </contour>
    <contour>
      <point x="174" y="327" type="line" smooth="yes"/>
      <point x="177" y="342"/>
      <point x="168" y="354"/>
      <point x="153" y="354" type="curve" smooth="yes"/>
      <point x="116" y="354" type="line" smooth="yes"/>
      <point x="101" y="354"/>
      <point x="86" y="342"/>
      <point x="83" y="327" type="curve" smooth="yes"/>
      <point x="19" y="27" type="line" smooth="yes"/>
      <point x="16" y="12"/>
      <point x="26" y="0"/>
      <point x="41" y="0" type="curve" smooth="yes"/>
      <point x="78" y="0" type="line" smooth="yes"/>
      <point x="93" y="0"/>
      <point x="107" y="12"/>
      <point x="110" y="27" type="curve" smooth="yes"/>
    </contour>
  </outline>
</glyph>
<glyph name="section" format="1">
  <advance width="567"/>
  <unicode hex="00A7"/>
  <outline>
    <contour>
      <point x="515" y="247" type="curve" smooth="yes"/>
      <point x="530" y="319"/>
      <point x="518" y="378"/>
      <point x="392" y="427" type="curve" smooth="yes"/>
      <point x="249" y="483"/>
      <point x="231" y="509"/>
      <point x="238" y="545" type="curve" smooth="yes"/>
      <point x="249" y="595"/>
      <point x="290" y="624"/>
      <point x="370" y="624" type="curve" smooth="yes"/>
      <point x="440" y="624"/>
      <point x="451" y="593"/>
      <point x="469" y="559" type="curve" smooth="yes"/>
      <point x="474" y="549"/>
      <point x="486" y="548"/>
      <point x="494" y="548" type="curve" name="hr01" smooth="yes"/>
      <point x="525" y="548" type="line" smooth="yes"/>
      <point x="541" y="548"/>
      <point x="559" y="560"/>
      <point x="558" y="575" type="curve" smooth="yes"/>
      <point x="556" y="627"/>
      <point x="508" y="710"/>
      <point x="369" y="710" type="curve" smooth="yes"/>
      <point x="219" y="710"/>
      <point x="165" y="626"/>
      <point x="147" y="545" type="curve" smooth="yes"/>
      <point x="141" y="513"/>
      <point x="141" y="487"/>
      <point x="151" y="464" type="curve"/>
      <point x="96" y="434"/>
      <point x="61" y="389"/>
      <point x="47" y="323" type="curve" smooth="yes"/>
      <point x="32" y="251"/>
      <point x="44" y="192"/>
      <point x="170" y="143" type="curve" smooth="yes"/>
      <point x="313" y="87"/>
      <point x="331" y="61"/>
      <point x="324" y="25" type="curve" smooth="yes"/>
      <point x="313" y="-25"/>
      <point x="273" y="-54"/>
      <point x="193" y="-54" type="curve" smooth="yes"/>
      <point x="123" y="-54"/>
      <point x="114" y="-23"/>
      <point x="95" y="11" type="curve" smooth="yes"/>
      <point x="90" y="21"/>
      <point x="78" y="22"/>
      <point x="70" y="22" type="curve" name="hr02" smooth="yes"/>
      <point x="37" y="22" type="line" smooth="yes"/>
      <point x="21" y="22"/>
      <point x="4" y="10"/>
      <point x="4" y="-5" type="curve" smooth="yes"/>
      <point x="5" y="-56"/>
      <point x="54" y="-140"/>
      <point x="193" y="-140" type="curve" smooth="yes"/>
      <point x="343" y="-140"/>
      <point x="398" y="-56"/>
      <point x="415" y="25" type="curve" smooth="yes"/>
      <point x="421" y="56"/>
      <point x="420" y="83"/>
      <point x="410" y="105" type="curve"/>
      <point x="465" y="136"/>
      <point x="501" y="180"/>
    </contour>
    <contour>
      <point x="138" y="324" type="curve" smooth="yes"/>
      <point x="146" y="361"/>
      <point x="177" y="386"/>
      <point x="212" y="404" type="curve"/>
      <point x="233" y="392"/>
      <point x="258" y="380"/>
      <point x="290" y="369" type="curve" smooth="yes"/>
      <point x="414" y="324"/>
      <point x="434" y="293"/>
      <point x="424" y="246" type="curve" smooth="yes"/>
      <point x="416" y="208"/>
      <point x="385" y="183"/>
      <point x="350" y="166" type="curve"/>
      <point x="328" y="178"/>
      <point x="303" y="189"/>
      <point x="272" y="201" type="curve"/>
      <point x="148" y="246"/>
      <point x="128" y="277"/>
    </contour>
  </outline>
</glyph>
<glyph name="dieresis" format="1">
  <advance width="336"/>
  <unicode hex="00A8"/>
  <outline>
    <contour>
      <point x="154" y="684" type="line" name="hr00" smooth="yes"/>
      <point x="157" y="699"/>
      <point x="148" y="711"/>
      <point x="133" y="711" type="curve" smooth="yes"/>
      <point x="76" y="711" type="line" smooth="yes"/>
      <point x="61" y="711"/>
      <point x="46" y="699"/>
      <point x="43" y="684" type="curve" smooth="yes"/>
      <point x="31" y="627" type="line" smooth="yes"/>
      <point x="28" y="612"/>
      <point x="37" y="600"/>
      <point x="52" y="600" type="curve" smooth="yes"/>
      <point x="109" y="600" type="line" smooth="yes"/>
      <point x="124" y="600"/>
      <point x="139" y="612"/>
      <point x="142" y="627" type="curve" smooth="yes"/>
    </contour>
    <contour>
      <point x="335" y="684" type="line" smooth="yes"/>
      <point x="338" y="699"/>
      <point x="329" y="711"/>
      <point x="314" y="711" type="curve" smooth="yes"/>
      <point x="257" y="711" type="line" smooth="yes"/>
      <point x="242" y="711"/>
      <point x="227" y="699"/>
      <point x="224" y="684" type="curve" smooth="yes"/>
      <point x="212" y="627" type="line" smooth="yes"/>
      <point x="209" y="612"/>
      <point x="218" y="600"/>
      <point x="233" y="600" type="curve" smooth="yes"/>
      <point x="290" y="600" type="line" smooth="yes"/>
      <point x="305" y="600"/>
      <point x="320" y="612"/>
      <point x="323" y="627" type="curve" smooth="yes"/>
    </contour>
  </outline>
</glyph>
<glyph name="copyright" format="1">
  <advance width="822"/>
  <unicode hex="00A9"/>
  <outline>
    <contour>
      <point x="347" y="385" type="curve" smooth="yes"/>
      <point x="358" y="426"/>
      <point x="387" y="465"/>
      <point x="450" y="465" type="curve" smooth="yes"/>
      <point x="484" y="465"/>
      <point x="502" y="455"/>
      <point x="514" y="426" type="curve" smooth="yes"/>
      <point x="518" y="417"/>
      <point x="519" y="405"/>
      <point x="533" y="405" type="curve" name="hr01" smooth="yes"/>
      <point x="576" y="405" type="line" smooth="yes"/>
      <point x="589" y="405"/>
      <point x="601" y="414"/>
      <point x="602" y="427" type="curve" smooth="yes"/>
      <point x="604" y="474"/>
      <point x="569" y="544"/>
      <point x="449" y="544" type="curve" smooth="yes"/>
      <point x="345" y="544"/>
      <point x="287" y="480"/>
      <point x="263" y="385" type="curve" smooth="yes"/>
      <point x="258" y="365"/>
      <point x="252" y="337"/>
      <point x="249" y="317" type="curve" smooth="yes"/>
      <point x="232" y="222"/>
      <point x="288" y="158"/>
      <point x="392" y="158" type="curve" smooth="yes"/>
      <point x="502" y="158"/>
      <point x="560" y="228"/>
      <point x="570" y="275" type="curve" smooth="yes"/>
      <point x="573" y="288"/>
      <point x="566" y="297"/>
      <point x="553" y="297" type="curve" smooth="yes"/>
      <point x="510" y="297" type="line" smooth="yes"/>
      <point x="496" y="297"/>
      <point x="490" y="285"/>
      <point x="482" y="276" type="curve" smooth="yes"/>
      <point x="458" y="247"/>
      <point x="426" y="237"/>
      <point x="392" y="237" type="curve" name="hr02" smooth="yes"/>
      <point x="329" y="237"/>
      <point x="326" y="276"/>
      <point x="333" y="317" type="curve" smooth="yes"/>
      <point x="336" y="337"/>
      <point x="342" y="365"/>
    </contour>
    <contour>
      <point x="62" y="350" type="curve" smooth="yes"/>
      <point x="20" y="151"/>
      <point x="156" y="-10"/>
      <point x="355" y="-10" type="curve" smooth="yes"/>
      <point x="564" y="-10"/>
      <point x="740" y="151"/>
      <point x="782" y="350" type="curve" smooth="yes"/>
      <point x="824" y="549"/>
      <point x="687" y="710"/>
      <point x="488" y="710" type="curve" smooth="yes"/>
      <point x="279" y="710"/>
      <point x="104" y="549"/>
    </contour>
    <contour>
      <point x="137" y="350" type="curve" smooth="yes"/>
      <point x="171" y="510"/>
      <point x="324" y="640"/>
      <point x="484" y="640" type="curve" smooth="yes"/>
      <point x="644" y="640"/>
      <point x="741" y="510"/>
      <point x="707" y="350" type="curve" smooth="yes"/>
      <point x="673" y="190"/>
      <point x="520" y="60"/>
      <point x="360" y="60" type="curve" smooth="yes"/>
      <point x="200" y="60"/>
      <point x="103" y="190"/>
    </contour>
  </outline>
</glyph>
<glyph name="ordfeminine" format="1">
  <advance width="362"/>
  <unicode hex="00AA"/>
  <outline>
    <contour>
      <point x="195" y="489" type="curve" smooth="yes"/>
      <point x="177" y="489"/>
      <point x="168" y="496"/>
      <point x="171" y="511" type="curve" smooth="yes"/>
      <point x="174" y="525"/>
      <point x="184" y="541"/>
      <point x="233" y="548" type="curve" smooth="yes"/>
      <point x="279" y="555" type="line"/>
      <point x="273" y="523"/>
      <point x="242" y="489"/>
    </contour>
    <contour>
      <point x="276" y="434" type="curve"/>
      <point x="304" y="434" type="line" smooth="yes"/>
      <point x="317" y="434"/>
      <point x="328" y="443"/>
      <point x="330" y="456" type="curve" smooth="yes"/>
      <point x="362" y="603" type="line" smooth="yes"/>
      <point x="375" y="667"/>
      <point x="331" y="705"/>
      <point x="258" y="705" type="curve" smooth="yes"/>
      <point x="184" y="705"/>
      <point x="146" y="661"/>
      <point x="140" y="641" type="curve" smooth="yes"/>
      <point x="136" y="628"/>
      <point x="145" y="624"/>
      <point x="158" y="624" type="curve" smooth="yes"/>
      <point x="189" y="624" type="line" smooth="yes"/>
      <point x="211" y="624"/>
      <point x="221" y="644"/>
      <point x="256" y="644" type="curve" name="hr01" smooth="yes"/>
      <point x="297" y="644"/>
      <point x="293" y="621"/>
      <point x="291" y="611" type="curve"/>
      <point x="228" y="602" type="line" smooth="yes"/>
      <point x="165" y="593"/>
      <point x="104" y="565"/>
      <point x="92" y="512" type="curve" smooth="yes"/>
      <point x="84" y="473"/>
      <point x="113" y="429"/>
      <point x="177" y="429" type="curve" smooth="yes"/>
      <point x="213" y="429"/>
      <point x="245" y="444"/>
      <point x="260" y="463" type="curve"/>
      <point x="258" y="456" type="line" smooth="yes"/>
      <point x="256" y="443"/>
      <point x="263" y="434"/>
    </contour>
  </outline>
</glyph>
<glyph name="guillemotleft" format="1">
  <advance width="592"/>
  <unicode hex="00AB"/>
  <outline>
    <contour>
      <point x="44" y="301" type="line" name="hr00" smooth="yes"/>
      <point x="42" y="289"/>
      <point x="46" y="280"/>
      <point x="53" y="273" type="curve"/>
      <point x="209" y="82" type="line" smooth="yes"/>
      <point x="214" y="77"/>
      <point x="221" y="77"/>
      <point x="222" y="77" type="curve" smooth="yes"/>
      <point x="234" y="77"/>
      <point x="246" y="87"/>
      <point x="249" y="99" type="curve"/>
      <point x="255" y="132" type="line" smooth="yes"/>
      <point x="260" y="155"/>
      <point x="258" y="164"/>
      <point x="247" y="177" type="curve" smooth="yes"/>
      <point x="131" y="318" type="line"/>
      <point x="308" y="462" type="line" smooth="yes"/>
      <point x="324" y="475"/>
      <point x="331" y="484"/>
      <point x="336" y="507" type="curve" smooth="yes"/>
      <point x="346" y="559" type="line" smooth="yes"/>
      <point x="349" y="571"/>
      <point x="341" y="581"/>
      <point x="329" y="581" type="curve" smooth="yes"/>
      <point x="328" y="581"/>
      <point x="321" y="581"/>
      <point x="314" y="576" type="curve" smooth="yes"/>
      <point x="76" y="385" type="line" smooth="yes"/>
      <point x="67" y="378"/>
      <point x="59" y="369"/>
      <point x="56" y="357" type="curve" smooth="yes"/>
    </contour>
    <contour>
      <point x="291" y="301" type="line" smooth="yes"/>
      <point x="289" y="289"/>
      <point x="293" y="280"/>
      <point x="300" y="273" type="curve"/>
      <point x="456" y="82" type="line" smooth="yes"/>
      <point x="461" y="77"/>
      <point x="468" y="77"/>
      <point x="469" y="77" type="curve" smooth="yes"/>
      <point x="481" y="77"/>
      <point x="493" y="87"/>
      <point x="496" y="99" type="curve"/>
      <point x="502" y="132" type="line" smooth="yes"/>
      <point x="507" y="155"/>
      <point x="505" y="164"/>
      <point x="494" y="177" type="curve" smooth="yes"/>
      <point x="378" y="318" type="line"/>
      <point x="555" y="462" type="line" smooth="yes"/>
      <point x="571" y="475"/>
      <point x="578" y="484"/>
      <point x="583" y="507" type="curve" smooth="yes"/>
      <point x="593" y="559" type="line" smooth="yes"/>
      <point x="596" y="571"/>
      <point x="588" y="581"/>
      <point x="576" y="581" type="curve" smooth="yes"/>
      <point x="575" y="581"/>
      <point x="568" y="581"/>
      <point x="561" y="576" type="curve" smooth="yes"/>
      <point x="323" y="385" type="line" smooth="yes"/>
      <point x="314" y="378"/>
      <point x="306" y="369"/>
      <point x="303" y="357" type="curve" smooth="yes"/>
    </contour>
  </outline>
</glyph>
<glyph name="logicalnot" format="1">
  <advance width="578"/>
  <unicode hex="00AC"/>
  <outline>
    <contour>
      <point x="385" y="164" type="line" smooth="yes"/>
      <point x="382" y="149"/>
      <point x="392" y="137"/>
      <point x="407" y="137" type="curve" smooth="yes"/>
      <point x="444" y="137" type="line" smooth="yes"/>
      <point x="459" y="137"/>
      <point x="473" y="149"/>
      <point x="476" y="164" type="curve" smooth="yes"/>
      <point x="510" y="323" type="line" smooth="yes"/>
      <point x="513" y="338"/>
      <point x="504" y="350"/>
      <point x="489" y="350" type="curve" smooth="yes"/>
      <point x="104" y="350" type="line" smooth="yes"/>
      <point x="89" y="350"/>
      <point x="74" y="338"/>
      <point x="71" y="323" type="curve" smooth="yes"/>
      <point x="64" y="291" type="line" smooth="yes"/>
      <point x="61" y="276"/>
      <point x="71" y="264"/>
      <point x="86" y="264" type="curve" name="hr01" smooth="yes"/>
      <point x="407" y="264" type="line"/>
    </contour>
  </outline>
</glyph>
<glyph name="registered" format="1">
  <advance width="822"/>
  <unicode hex="00AE"/>
  <outline>
    <contour>
      <point x="302" y="168" type="line" smooth="yes"/>
      <point x="315" y="168"/>
      <point x="326" y="177"/>
      <point x="329" y="190" type="curve" smooth="yes"/>
      <point x="351" y="292" type="line" name="hr01"/>
      <point x="419" y="292" type="line"/>
      <point x="456" y="187" type="line"/>
      <point x="461" y="175"/>
      <point x="467" y="168"/>
      <point x="481" y="168" type="curve" name="hr02" smooth="yes"/>
      <point x="522" y="168" type="line" smooth="yes"/>
      <point x="537" y="168"/>
      <point x="547" y="179"/>
      <point x="549" y="190" type="curve" smooth="yes"/>
      <point x="550" y="196"/>
      <point x="549" y="201"/>
      <point x="548" y="204" type="curve" smooth="yes"/>
      <point x="510" y="307" type="line"/>
      <point x="558" y="327"/>
      <point x="582" y="367"/>
      <point x="591" y="413" type="curve" smooth="yes"/>
      <point x="605" y="479"/>
      <point x="565" y="534"/>
      <point x="469" y="534" type="curve" smooth="yes"/>
      <point x="340" y="534" type="line" smooth="yes"/>
      <point x="327" y="534"/>
      <point x="316" y="525"/>
      <point x="313" y="512" type="curve" smooth="yes"/>
      <point x="245" y="190" type="line" smooth="yes"/>
      <point x="242" y="177"/>
      <point x="249" y="168"/>
      <point x="262" y="168" type="curve" smooth="yes"/>
    </contour>
    <contour>
      <point x="385" y="455" type="line"/>
      <point x="467" y="455" type="line" smooth="yes"/>
      <point x="494" y="455"/>
      <point x="514" y="443"/>
      <point x="507" y="413" type="curve" smooth="yes"/>
      <point x="501" y="383"/>
      <point x="476" y="371"/>
      <point x="439" y="371" type="curve" smooth="yes"/>
      <point x="367" y="371" type="line"/>
    </contour>
    <contour>
      <point x="62" y="350" type="curve" smooth="yes"/>
      <point x="20" y="151"/>
      <point x="156" y="-10"/>
      <point x="355" y="-10" type="curve" smooth="yes"/>
      <point x="564" y="-10"/>
      <point x="740" y="151"/>
      <point x="782" y="350" type="curve" smooth="yes"/>
      <point x="824" y="549"/>
      <point x="687" y="710"/>
      <point x="488" y="710" type="curve" smooth="yes"/>
      <point x="279" y="710"/>
      <point x="104" y="549"/>
    </contour>
    <contour>
      <point x="137" y="350" type="curve" smooth="yes"/>
      <point x="171" y="510"/>
      <point x="324" y="640"/>
      <point x="484" y="640" type="curve" smooth="yes"/>
      <point x="644" y="640"/>
      <point x="741" y="510"/>
      <point x="707" y="350" type="curve" smooth="yes"/>
      <point x="673" y="190"/>
      <point x="520" y="60"/>
      <point x="360" y="60" type="curve" smooth="yes"/>
      <point x="200" y="60"/>
      <point x="103" y="190"/>
    </contour>
  </outline>
</glyph>
<glyph name="degree" format="1">
  <advance width="392"/>
  <unicode hex="00B0"/>
  <outline>
    <contour>
      <point x="175" y="565" type="curve" name="hr00" smooth="yes"/>
      <point x="184" y="610"/>
      <point x="227" y="641"/>
      <point x="272" y="641" type="curve" smooth="yes"/>
      <point x="317" y="641"/>
      <point x="336" y="610"/>
      <point x="327" y="565" type="curve" smooth="yes"/>
      <point x="317" y="520"/>
      <point x="274" y="489"/>
      <point x="229" y="489" type="curve" smooth="yes"/>
      <point x="184" y="489"/>
      <point x="165" y="520"/>
    </contour>
    <contour>
      <point x="100" y="565" type="curve" smooth="yes"/>
      <point x="82" y="482"/>
      <point x="142" y="419"/>
      <point x="225" y="419" type="curve" smooth="yes"/>
      <point x="308" y="419"/>
      <point x="381" y="471"/>
      <point x="402" y="565" type="curve" smooth="yes"/>
      <point x="420" y="648"/>
      <point x="360" y="711"/>
      <point x="277" y="711" type="curve" smooth="yes"/>
      <point x="194" y="711"/>
      <point x="119" y="653"/>
    </contour>
  </outline>
</glyph>
<glyph name="paragraph" format="1">
  <advance width="550"/>
  <unicode hex="00B6"/>
  <outline>
    <contour>
      <point x="77" y="518" type="curve" name="hr00" smooth="yes"/>
      <point x="55" y="418"/>
      <point x="120" y="336"/>
      <point x="220" y="336" type="curve"/>
      <point x="133" y="-73" type="line" smooth="yes"/>
      <point x="130" y="-88"/>
      <point x="139" y="-100"/>
      <point x="154" y="-100" type="curve" smooth="yes"/>
      <point x="191" y="-100" type="line" smooth="yes"/>
      <point x="206" y="-100"/>
      <point x="221" y="-88"/>
      <point x="224" y="-73" type="curve" smooth="yes"/>
      <point x="370" y="614" type="line"/>
      <point x="449" y="614" type="line"/>
      <point x="303" y="-73" type="line" smooth="yes"/>
      <point x="300" y="-88"/>
      <point x="309" y="-100"/>
      <point x="324" y="-100" type="curve" smooth="yes"/>
      <point x="361" y="-100" type="line" smooth="yes"/>
      <point x="376" y="-100"/>
      <point x="391" y="-88"/>
      <point x="394" y="-73" type="curve" smooth="yes"/>
      <point x="553" y="673" type="line" smooth="yes"/>
      <point x="556" y="688"/>
      <point x="546" y="700"/>
      <point x="531" y="700" type="curve" smooth="yes"/>
      <point x="297" y="700" type="line" smooth="yes"/>
      <point x="197" y="700"/>
      <point x="98" y="618"/>
    </contour>
  </outline>
</glyph>
<glyph name="periodcentered" format="1">
  <advance width="328"/>
  <unicode hex="00B7"/>
  <outline>
    <contour>
      <point x="54" y="300" type="curve" name="hr00" smooth="yes"/>
      <point x="41" y="239"/>
      <point x="80" y="190"/>
      <point x="141" y="190" type="curve" smooth="yes"/>
      <point x="202" y="190"/>
      <point x="261" y="239"/>
      <point x="274" y="300" type="curve" smooth="yes"/>
      <point x="287" y="361"/>
      <point x="249" y="410"/>
      <point x="188" y="410" type="curve" smooth="yes"/>
      <point x="127" y="410"/>
      <point x="67" y="361"/>
    </contour>
  </outline>
</glyph>
<glyph name="guillemotright" format="1">
  <advance width="590"/>
  <unicode hex="00BB"/>
  <outline>
    <contour>
      <point x="313" y="357" type="line" name="hr00" smooth="yes"/>
      <point x="316" y="369"/>
      <point x="312" y="378"/>
      <point x="305" y="385" type="curve"/>
      <point x="149" y="576" type="line" smooth="yes"/>
      <point x="144" y="581"/>
      <point x="137" y="581"/>
      <point x="136" y="581" type="curve" smooth="yes"/>
      <point x="124" y="581"/>
      <point x="112" y="571"/>
      <point x="109" y="559" type="curve" smooth="yes"/>
      <point x="103" y="530" type="line" smooth="yes"/>
      <point x="98" y="507"/>
      <point x="101" y="498"/>
      <point x="111" y="485" type="curve" smooth="yes"/>
      <point x="229" y="340" type="line"/>
      <point x="51" y="198" type="line" smooth="yes"/>
      <point x="35" y="185"/>
      <point x="28" y="176"/>
      <point x="23" y="153" type="curve" smooth="yes"/>
      <point x="12" y="99" type="line" smooth="yes"/>
      <point x="9" y="87"/>
      <point x="17" y="77"/>
      <point x="29" y="77" type="curve" smooth="yes"/>
      <point x="30" y="77"/>
      <point x="37" y="77"/>
      <point x="44" y="82" type="curve" smooth="yes"/>
      <point x="282" y="273" type="line" smooth="yes"/>
      <point x="291" y="280"/>
      <point x="299" y="289"/>
      <point x="301" y="301" type="curve" smooth="yes"/>
    </contour>
    <contour>
      <point x="560" y="357" type="line" smooth="yes"/>
      <point x="563" y="369"/>
      <point x="559" y="378"/>
      <point x="552" y="385" type="curve"/>
      <point x="396" y="576" type="line" smooth="yes"/>
      <point x="391" y="581"/>
      <point x="384" y="581"/>
      <point x="383" y="581" type="curve" smooth="yes"/>
      <point x="371" y="581"/>
      <point x="359" y="571"/>
      <point x="356" y="559" type="curve" smooth="yes"/>
      <point x="350" y="530" type="line" smooth="yes"/>
      <point x="345" y="507"/>
      <point x="348" y="498"/>
      <point x="358" y="485" type="curve" smooth="yes"/>
      <point x="476" y="340" type="line"/>
      <point x="298" y="198" type="line" smooth="yes"/>
      <point x="282" y="185"/>
      <point x="275" y="176"/>
      <point x="270" y="153" type="curve" smooth="yes"/>
      <point x="259" y="99" type="line" smooth="yes"/>
      <point x="256" y="87"/>
      <point x="264" y="77"/>
      <point x="276" y="77" type="curve" smooth="yes"/>
      <point x="277" y="77"/>
      <point x="284" y="77"/>
      <point x="291" y="82" type="curve" smooth="yes"/>
      <point x="529" y="273" type="line" smooth="yes"/>
      <point x="538" y="280"/>
      <point x="546" y="289"/>
      <point x="548" y="301" type="curve" smooth="yes"/>
    </contour>
  </outline>
</glyph>
<glyph name="AE" format="1">
  <advance width="922"/>
  <unicode hex="00C6"/>
  <outline>
    <contour>
      <point x="467" y="90" type="line" name="hr00"/>
      <point x="513" y="309" type="line"/>
      <point x="819" y="309" type="line" smooth="yes"/>
      <point x="834" y="309"/>
      <point x="849" y="321"/>
      <point x="852" y="336" type="curve" smooth="yes"/>
      <point x="860" y="372" type="line" smooth="yes"/>
      <point x="863" y="387"/>
      <point x="853" y="399"/>
      <point x="838" y="399" type="curve" smooth="yes"/>
      <point x="532" y="399" type="line"/>
      <point x="577" y="610" type="line"/>
      <point x="905" y="610" type="line" smooth="yes"/>
      <point x="920" y="610"/>
      <point x="935" y="622"/>
      <point x="938" y="637" type="curve" smooth="yes"/>
      <point x="946" y="673" type="line" smooth="yes"/>
      <point x="949" y="688"/>
      <point x="939" y="700"/>
      <point x="924" y="700" type="curve" smooth="yes"/>
      <point x="399" y="700" type="line" smooth="yes"/>
      <point x="372" y="700"/>
      <point x="360" y="681"/>
      <point x="349" y="667" type="curve"/>
      <point x="-31" y="34" type="line" smooth="yes"/>
      <point x="-39" y="19"/>
      <point x="-38" y="0"/>
      <point x="-20" y="0" type="curve" smooth="yes"/>
      <point x="25" y="0" type="line" smooth="yes"/>
      <point x="47" y="0"/>
      <point x="63" y="14"/>
      <point x="69" y="25" type="curve" smooth="yes"/>
      <point x="150" y="158" type="line"/>
      <point x="386" y="158" type="line"/>
      <point x="358" y="27" type="line" smooth="yes"/>
      <point x="355" y="12"/>
      <point x="365" y="0"/>
      <point x="380" y="0" type="curve" smooth="yes"/>
      <point x="784" y="0" type="line" smooth="yes"/>
      <point x="799" y="0"/>
      <point x="813" y="12"/>
      <point x="816" y="27" type="curve" smooth="yes"/>
      <point x="824" y="63" type="line" smooth="yes"/>
      <point x="827" y="78"/>
      <point x="818" y="90"/>
      <point x="803" y="90" type="curve" smooth="yes"/>
    </contour>
    <contour>
      <point x="204" y="248" type="line"/>
      <point x="421" y="610" type="line"/>
      <point x="482" y="610" type="line"/>
      <point x="405" y="248" type="line"/>
    </contour>
  </outline>
</glyph>
<glyph name="Ccedilla" format="1">
  <advance width="665"/>
  <unicode hex="00C7"/>
  <outline>
    <contour>
      <point x="184" y="434" type="curve" smooth="yes"/>
      <point x="211" y="545"/>
      <point x="292" y="620"/>
      <point x="421" y="620" type="curve" smooth="yes"/>
      <point x="550" y="620"/>
      <point x="565" y="551"/>
      <point x="566" y="484" type="curve" smooth="yes"/>
      <point x="566" y="470"/>
      <point x="577" y="462"/>
      <point x="588" y="462" type="curve" name="hr01"/>
      <point x="635" y="462" type="line"/>
      <point x="647" y="462"/>
      <point x="659" y="472"/>
      <point x="661" y="484" type="curve" smooth="yes"/>
      <point x="672" y="571"/>
      <point x="621" y="710"/>
      <point x="421" y="710" type="curve" smooth="yes"/>
      <point x="249" y="710"/>
      <point x="128" y="595"/>
      <point x="90" y="439" type="curve" smooth="yes"/>
      <point x="75" y="379"/>
      <point x="63" y="321"/>
      <point x="52" y="261" type="curve" smooth="yes"/>
      <point x="27" y="125"/>
      <point x="101" y="20"/>
      <point x="227" y="-4" type="curve"/>
      <point x="196" y="-53" type="line"/>
      <point x="190" y="-63"/>
      <point x="183" y="-75"/>
      <point x="188" y="-83" type="curve"/>
      <point x="199" y="-99" type="line"/>
      <point x="212" y="-118"/>
      <point x="223" y="-99"/>
      <point x="255" y="-99" type="curve" smooth="yes"/>
      <point x="284" y="-99"/>
      <point x="296" y="-110"/>
      <point x="291" y="-134" type="curve" smooth="yes"/>
      <point x="286" y="-159"/>
      <point x="269" y="-169"/>
      <point x="241" y="-169" type="curve" smooth="yes"/>
      <point x="205" y="-169"/>
      <point x="205" y="-137"/>
      <point x="180" y="-156" type="curve"/>
      <point x="167" y="-166" type="line"/>
      <point x="144" y="-184"/>
      <point x="187" y="-220"/>
      <point x="240" y="-220" type="curve" smooth="yes"/>
      <point x="310" y="-220"/>
      <point x="337" y="-183"/>
      <point x="347" y="-135" type="curve" smooth="yes"/>
      <point x="358" y="-87"/>
      <point x="323" y="-48"/>
      <point x="289" y="-48" type="curve" smooth="yes"/>
      <point x="274" y="-48"/>
      <point x="262" y="-51"/>
      <point x="253" y="-56" type="curve"/>
      <point x="284" y="-10" type="line"/>
      <point x="286" y="-10" type="line"/>
      <point x="486" y="-10"/>
      <point x="583" y="129"/>
      <point x="604" y="216" type="curve" smooth="yes"/>
      <point x="607" y="228"/>
      <point x="599" y="238"/>
      <point x="587" y="238" type="curve" name="hr02"/>
      <point x="539" y="238" type="line"/>
      <point x="528" y="238"/>
      <point x="514" y="230"/>
      <point x="508" y="216" type="curve" smooth="yes"/>
      <point x="478" y="149"/>
      <point x="415" y="80"/>
      <point x="286" y="80" type="curve" name="hr03" smooth="yes"/>
      <point x="187" y="80"/>
      <point x="128" y="155"/>
      <point x="148" y="266" type="curve" smooth="yes"/>
      <point x="159" y="325"/>
      <point x="169" y="374"/>
    </contour>
  </outline>
</glyph>
<glyph name="Thorn" format="1">
  <advance width="645"/>
  <unicode hex="00DE"/>
  <outline>
    <contour>
      <point x="346" y="134" type="line"/>
      <point x="486" y="134"/>
      <point x="588" y="204"/>
      <point x="619" y="350" type="curve" smooth="yes"/>
      <point x="650" y="496"/>
      <point x="534" y="562"/>
      <point x="414" y="562" type="curve"/>
      <point x="238" y="562" type="line"/>
      <point x="262" y="673" type="line"/>
      <point x="265" y="688"/>
      <point x="255" y="700"/>
      <point x="240" y="700" type="curve" name="hr01"/>
      <point x="199" y="700" type="line"/>
      <point x="184" y="700"/>
      <point x="170" y="688"/>
      <point x="167" y="673" type="curve"/>
      <point x="29" y="27" type="line"/>
      <point x="26" y="12"/>
      <point x="36" y="0"/>
      <point x="51" y="0" type="curve"/>
      <point x="92" y="0" type="line"/>
      <point x="107" y="0"/>
      <point x="121" y="12"/>
      <point x="124" y="27" type="curve"/>
      <point x="147" y="134" type="line"/>
    </contour>
    <contour>
      <point x="219" y="472" type="line"/>
      <point x="409" y="472" type="line"/>
      <point x="505" y="472"/>
      <point x="542" y="435"/>
      <point x="524" y="350" type="curve" smooth="yes"/>
      <point x="506" y="265"/>
      <point x="442" y="224"/>
      <point x="346" y="224" type="curve"/>
      <point x="166" y="224" type="line"/>
    </contour>
  </outline>
</glyph>
<glyph name="germandbls" format="1">
  <advance width="585"/>
  <unicode hex="00DF"/>
  <outline>
    <contour>
      <point x="209" y="86" type="line" name="hr00" smooth="yes"/>
      <point x="194" y="86"/>
      <point x="179" y="74"/>
      <point x="176" y="59" type="curve" smooth="yes"/>
      <point x="169" y="27" type="line" smooth="yes"/>
      <point x="166" y="12"/>
      <point x="176" y="0"/>
      <point x="191" y="0" type="curve" smooth="yes"/>
      <point x="259" y="0" type="line" smooth="yes"/>
      <point x="416" y="0"/>
      <point x="491" y="79"/>
      <point x="517" y="200" type="curve" smooth="yes"/>
      <point x="532" y="271"/>
      <point x="513" y="335"/>
      <point x="453" y="377" type="curve"/>
      <point x="493" y="402"/>
      <point x="541" y="445"/>
      <point x="556" y="515" type="curve" smooth="yes"/>
      <point x="576" y="610"/>
      <point x="511" y="710"/>
      <point x="371" y="710" type="curve" smooth="yes"/>
      <point x="241" y="710"/>
      <point x="143" y="615"/>
      <point x="115" y="481" type="curve" smooth="yes"/>
      <point x="18" y="27" type="line" smooth="yes"/>
      <point x="15" y="12"/>
      <point x="25" y="0"/>
      <point x="40" y="0" type="curve" smooth="yes"/>
      <point x="77" y="0" type="line" smooth="yes"/>
      <point x="92" y="0"/>
      <point x="106" y="12"/>
      <point x="109" y="27" type="curve" smooth="yes"/>
      <point x="204" y="471" type="line" smooth="yes"/>
      <point x="225" y="573"/>
      <point x="293" y="624"/>
      <point x="373" y="624" type="curve" smooth="yes"/>
      <point x="443" y="624"/>
      <point x="481" y="580"/>
      <point x="468" y="520" type="curve" smooth="yes"/>
      <point x="456" y="465"/>
      <point x="414" y="418"/>
      <point x="324" y="418" type="curve" smooth="yes"/>
      <point x="274" y="418" type="line" smooth="yes"/>
      <point x="261" y="418"/>
      <point x="250" y="409"/>
      <point x="248" y="396" type="curve" smooth="yes"/>
      <point x="239" y="354" type="line" smooth="yes"/>
      <point x="236" y="341"/>
      <point x="243" y="332"/>
      <point x="256" y="332" type="curve" smooth="yes"/>
      <point x="321" y="332" type="line" smooth="yes"/>
      <point x="409" y="332"/>
      <point x="442" y="277"/>
      <point x="428" y="209" type="curve" smooth="yes"/>
      <point x="413" y="138"/>
      <point x="367" y="86"/>
      <point x="259" y="86" type="curve" smooth="yes"/>
    </contour>
  </outline>
</glyph>
<glyph name="ae" format="1">
  <advance width="892"/>
  <unicode hex="00E6"/>
  <outline>
    <contour>
      <point x="4" y="140" type="curve" smooth="yes"/>
      <point x="-15" y="53"/>
      <point x="62" y="-10"/>
      <point x="157" y="-10" type="curve" smooth="yes"/>
      <point x="269" y="-10"/>
      <point x="341" y="27"/>
      <point x="390" y="83" type="curve"/>
      <point x="420" y="26"/>
      <point x="481" y="-10"/>
      <point x="560" y="-10" type="curve" smooth="yes"/>
      <point x="702" y="-10"/>
      <point x="773" y="72"/>
      <point x="794" y="113" type="curve" smooth="yes"/>
      <point x="801" y="127"/>
      <point x="790" y="140"/>
      <point x="775" y="140" type="curve" name="hr01" smooth="yes"/>
      <point x="730" y="140" type="line" smooth="yes"/>
      <point x="714" y="140"/>
      <point x="707" y="136"/>
      <point x="695" y="126" type="curve" smooth="yes"/>
      <point x="667" y="101"/>
      <point x="634" y="76"/>
      <point x="560" y="76" type="curve" name="hr02" smooth="yes"/>
      <point x="491" y="76"/>
      <point x="448" y="131"/>
      <point x="460" y="223" type="curve"/>
      <point x="808" y="223" type="line" smooth="yes"/>
      <point x="823" y="223"/>
      <point x="837" y="235"/>
      <point x="841" y="250" type="curve"/>
      <point x="846" y="277" type="line" smooth="yes"/>
      <point x="873" y="425"/>
      <point x="788" y="530"/>
      <point x="655" y="530" type="curve" smooth="yes"/>
      <point x="579" y="530"/>
      <point x="518" y="498"/>
      <point x="473" y="451" type="curve"/>
      <point x="447" y="502"/>
      <point x="388" y="530"/>
      <point x="307" y="530" type="curve" smooth="yes"/>
      <point x="202" y="530"/>
      <point x="114" y="463"/>
      <point x="96" y="403" type="curve" smooth="yes"/>
      <point x="92" y="388"/>
      <point x="102" y="376"/>
      <point x="117" y="376" type="curve" smooth="yes"/>
      <point x="147" y="376" type="line" smooth="yes"/>
      <point x="163" y="376"/>
      <point x="172" y="379"/>
      <point x="182" y="390" type="curve" smooth="yes"/>
      <point x="211" y="420"/>
      <point x="248" y="444"/>
      <point x="307" y="444" type="curve" name="hr03" smooth="yes"/>
      <point x="383" y="444"/>
      <point x="409" y="410"/>
      <point x="394" y="342" type="curve" smooth="yes"/>
      <point x="391" y="329" type="line"/>
      <point x="246" y="306" type="line" smooth="yes"/>
      <point x="129" y="288"/>
      <point x="27" y="247"/>
    </contour>
    <contour>
      <point x="166" y="76" type="curve" name="hr04" smooth="yes"/>
      <point x="97" y="76"/>
      <point x="91" y="113"/>
      <point x="96" y="141" type="curve"/>
      <point x="106" y="188"/>
      <point x="167" y="217"/>
      <point x="252" y="230" type="curve" smooth="yes"/>
      <point x="374" y="249" type="line"/>
      <point x="369" y="224" type="line" smooth="yes"/>
      <point x="351" y="137"/>
      <point x="263" y="76"/>
    </contour>
    <contour>
      <point x="480" y="307" type="line"/>
      <point x="509" y="388"/>
      <point x="579" y="444"/>
      <point x="655" y="444" type="curve" smooth="yes"/>
      <point x="733" y="444"/>
      <point x="776" y="386"/>
      <point x="762" y="307" type="curve"/>
    </contour>
  </outline>
</glyph>
<glyph name="ccedilla" format="1">
  <advance width="552"/>
  <unicode hex="00E7"/>
  <outline>
    <contour>
      <point x="124" y="225" type="curve" smooth="yes"/>
      <point x="127" y="246"/>
      <point x="132" y="272"/>
      <point x="139" y="295" type="curve" smooth="yes"/>
      <point x="171" y="401"/>
      <point x="257" y="444"/>
      <point x="324" y="444" type="curve" smooth="yes"/>
      <point x="387" y="444"/>
      <point x="419" y="421"/>
      <point x="432" y="366" type="curve" smooth="yes"/>
      <point x="437" y="345"/>
      <point x="445" y="339"/>
      <point x="460" y="339" type="curve" name="hr01"/>
      <point x="494" y="339" type="line"/>
      <point x="509" y="339"/>
      <point x="523" y="351"/>
      <point x="523" y="366" type="curve" smooth="yes"/>
      <point x="523" y="431"/>
      <point x="474" y="530"/>
      <point x="324" y="530" type="curve" smooth="yes"/>
      <point x="194" y="530"/>
      <point x="89" y="433"/>
      <point x="51" y="305" type="curve" smooth="yes"/>
      <point x="44" y="282"/>
      <point x="38" y="246"/>
      <point x="34" y="225" type="curve" smooth="yes"/>
      <point x="16" y="115"/>
      <point x="69" y="21"/>
      <point x="171" y="-3" type="curve"/>
      <point x="139" y="-53" type="line"/>
      <point x="133" y="-63"/>
      <point x="126" y="-75"/>
      <point x="131" y="-83" type="curve"/>
      <point x="142" y="-99" type="line"/>
      <point x="155" y="-118"/>
      <point x="166" y="-99"/>
      <point x="198" y="-99" type="curve" smooth="yes"/>
      <point x="227" y="-99"/>
      <point x="239" y="-110"/>
      <point x="234" y="-134" type="curve" smooth="yes"/>
      <point x="229" y="-159"/>
      <point x="212" y="-169"/>
      <point x="184" y="-169" type="curve" smooth="yes"/>
      <point x="148" y="-169"/>
      <point x="148" y="-137"/>
      <point x="123" y="-156" type="curve"/>
      <point x="110" y="-166" type="line"/>
      <point x="87" y="-184"/>
      <point x="130" y="-220"/>
      <point x="183" y="-220" type="curve" smooth="yes"/>
      <point x="253" y="-220"/>
      <point x="280" y="-183"/>
      <point x="290" y="-135" type="curve" smooth="yes"/>
      <point x="301" y="-87"/>
      <point x="266" y="-48"/>
      <point x="232" y="-48" type="curve" smooth="yes"/>
      <point x="217" y="-48"/>
      <point x="205" y="-51"/>
      <point x="196" y="-56" type="curve"/>
      <point x="227" y="-10" type="line"/>
      <point x="384" y="-10"/>
      <point x="457" y="92"/>
      <point x="479" y="154" type="curve" smooth="yes"/>
      <point x="484" y="169"/>
      <point x="473" y="181"/>
      <point x="458" y="181" type="curve"/>
      <point x="421" y="181" type="line"/>
      <point x="406" y="181"/>
      <point x="396" y="175"/>
      <point x="382" y="154" type="curve" smooth="yes"/>
      <point x="346" y="99"/>
      <point x="289" y="76"/>
      <point x="226" y="76" type="curve" name="hr02" smooth="yes"/>
      <point x="159" y="76"/>
      <point x="112" y="119"/>
    </contour>
  </outline>
</glyph>
<glyph name="eth" format="1">
  <advance width="559"/>
  <unicode hex="00F0"/>
  <outline>
    <contour>
      <point x="302" y="470" type="curve" name="hr00" smooth="yes"/>
      <point x="179" y="470"/>
      <point x="64" y="382"/>
      <point x="31" y="230" type="curve" smooth="yes"/>
      <point x="1" y="88"/>
      <point x="85" y="-10"/>
      <point x="218" y="-10" type="curve" smooth="yes"/>
      <point x="371" y="-10"/>
      <point x="459" y="88"/>
      <point x="489" y="230" type="curve" smooth="yes"/>
      <point x="525" y="400"/>
      <point x="513" y="496"/>
      <point x="470" y="574" type="curve"/>
      <point x="530" y="596" type="line"/>
      <point x="547" y="602"/>
      <point x="555" y="611"/>
      <point x="559" y="629" type="curve"/>
      <point x="565" y="657" type="line"/>
      <point x="568" y="669"/>
      <point x="561" y="678"/>
      <point x="549" y="678" type="curve" smooth="yes"/>
      <point x="547" y="678"/>
      <point x="542" y="677"/>
      <point x="537" y="675" type="curve"/>
      <point x="428" y="635" type="line"/>
      <point x="414" y="652"/>
      <point x="399" y="669"/>
      <point x="383" y="687" type="curve"/>
      <point x="374" y="695"/>
      <point x="365" y="700"/>
      <point x="349" y="700" type="curve"/>
      <point x="297" y="700" type="line"/>
      <point x="277" y="700"/>
      <point x="266" y="677"/>
      <point x="285" y="658" type="curve" smooth="yes"/>
      <point x="304" y="639"/>
      <point x="321" y="620"/>
      <point x="337" y="602" type="curve"/>
      <point x="289" y="585" type="line"/>
      <point x="272" y="579"/>
      <point x="264" y="570"/>
      <point x="260" y="552" type="curve"/>
      <point x="254" y="524" type="line"/>
      <point x="251" y="512"/>
      <point x="258" y="503"/>
      <point x="270" y="503" type="curve" smooth="yes"/>
      <point x="272" y="503"/>
      <point x="277" y="504"/>
      <point x="282" y="506" type="curve"/>
      <point x="381" y="542" type="line"/>
      <point x="398" y="512"/>
      <point x="410" y="481"/>
      <point x="415" y="446" type="curve"/>
      <point x="386" y="461"/>
      <point x="342" y="470"/>
    </contour>
    <contour>
      <point x="302" y="384" type="curve" smooth="yes"/>
      <point x="385" y="384"/>
      <point x="418" y="321"/>
      <point x="398" y="230" type="curve" smooth="yes"/>
      <point x="379" y="139"/>
      <point x="311" y="76"/>
      <point x="218" y="76" type="curve" smooth="yes"/>
      <point x="135" y="76"/>
      <point x="103" y="139"/>
      <point x="122" y="230" type="curve" smooth="yes"/>
      <point x="142" y="321"/>
      <point x="209" y="384"/>
    </contour>
  </outline>
</glyph>
<glyph name="divide" format="1">
  <advance width="531"/>
  <unicode hex="00F7"/>
  <outline>
    <contour>
      <point x="282" y="536" type="line" name="hr00" smooth="yes"/>
      <point x="267" y="536"/>
      <point x="253" y="524"/>
      <point x="250" y="509" type="curve" smooth="yes"/>
      <point x="235" y="442" type="line" smooth="yes"/>
      <point x="232" y="427"/>
      <point x="242" y="415"/>
      <point x="257" y="415" type="curve" smooth="yes"/>
      <point x="324" y="415" type="line" smooth="yes"/>
      <point x="339" y="415"/>
      <point x="353" y="427"/>
      <point x="356" y="442" type="curve" smooth="yes"/>
      <point x="371" y="509" type="line" smooth="yes"/>
      <point x="374" y="524"/>
      <point x="364" y="536"/>
      <point x="349" y="536" type="curve" smooth="yes"/>
    </contour>
    <contour>
      <point x="208" y="186" type="line" smooth="yes"/>
      <point x="193" y="186"/>
      <point x="178" y="174"/>
      <point x="175" y="159" type="curve" smooth="yes"/>
      <point x="161" y="92" type="line" smooth="yes"/>
      <point x="158" y="77"/>
      <point x="167" y="65"/>
      <point x="182" y="65" type="curve" smooth="yes"/>
      <point x="249" y="65" type="line" smooth="yes"/>
      <point x="264" y="65"/>
      <point x="279" y="77"/>
      <point x="282" y="92" type="curve" smooth="yes"/>
      <point x="296" y="159" type="line" smooth="yes"/>
      <point x="299" y="174"/>
      <point x="290" y="186"/>
      <point x="275" y="186" type="curve" smooth="yes"/>
    </contour>
    <contour>
      <point x="444" y="257" type="line" smooth="yes"/>
      <point x="459" y="257"/>
      <point x="474" y="269"/>
      <point x="477" y="284" type="curve" smooth="yes"/>
      <point x="484" y="316" type="line" smooth="yes"/>
      <point x="487" y="331"/>
      <point x="477" y="343"/>
      <point x="462" y="343" type="curve" smooth="yes"/>
      <point x="87" y="343" type="line" smooth="yes"/>
      <point x="72" y="343"/>
      <point x="58" y="331"/>
      <point x="55" y="316" type="curve" smooth="yes"/>
      <point x="48" y="284" type="line" smooth="yes"/>
      <point x="45" y="269"/>
      <point x="54" y="257"/>
      <point x="69" y="257" type="curve" smooth="yes"/>
    </contour>
  </outline>
</glyph>
<glyph name="Aogonek" format="1">
  <advance width="682"/>
  <unicode hex="0104"/>
  <outline>
    <contour>
      <point x="535" y="-220" type="line" name="hr00"/>
      <point x="548" y="-220"/>
      <point x="559" y="-211"/>
      <point x="561" y="-198" type="curve"/>
      <point x="567" y="-170" type="line"/>
      <point x="570" y="-157"/>
      <point x="563" y="-148"/>
      <point x="550" y="-148" type="curve"/>
      <point x="525" y="-148" type="line"/>
      <point x="491" y="-148"/>
      <point x="474" y="-125"/>
      <point x="485" y="-74" type="curve" smooth="yes"/>
      <point x="495" y="-25"/>
      <point x="520" y="-2"/>
      <point x="560" y="0" type="curve"/>
      <point x="582" y="0" type="line"/>
      <point x="604" y="0"/>
      <point x="611" y="16"/>
      <point x="607" y="36" type="curve"/>
      <point x="497" y="667" type="line"/>
      <point x="494" y="682"/>
      <point x="486" y="700"/>
      <point x="459" y="700" type="curve"/>
      <point x="395" y="700" type="line"/>
      <point x="368" y="700"/>
      <point x="352" y="682"/>
      <point x="343" y="667" type="curve"/>
      <point x="-40" y="29" type="line"/>
      <point x="-48" y="16"/>
      <point x="-40" y="0"/>
      <point x="-25" y="0" type="curve"/>
      <point x="20" y="0" type="line"/>
      <point x="46" y="0"/>
      <point x="57" y="14"/>
      <point x="64" y="25" type="curve"/>
      <point x="144" y="158" type="line"/>
      <point x="491" y="158" type="line"/>
      <point x="508" y="62" type="line"/>
      <point x="458" y="44"/>
      <point x="421" y="1"/>
      <point x="407" y="-69" type="curve" smooth="yes"/>
      <point x="387" y="-164"/>
      <point x="435" y="-220"/>
      <point x="516" y="-220" type="curve"/>
    </contour>
    <contour>
      <point x="413" y="605" type="line"/>
      <point x="475" y="248" type="line"/>
      <point x="198" y="248" type="line"/>
    </contour>
  </outline>
</glyph>
<glyph name="aogonek" format="1">
  <advance width="586"/>
  <unicode hex="0105"/>
  <outline>
    <contour>
      <point x="313" y="530" type="curve" smooth="yes"/>
      <point x="188" y="530"/>
      <point x="89" y="450"/>
      <point x="51" y="303" type="curve" smooth="yes"/>
      <point x="46" y="283"/>
      <point x="40" y="258"/>
      <point x="37" y="238" type="curve" smooth="yes"/>
      <point x="13" y="91"/>
      <point x="89" y="-10"/>
      <point x="214" y="-10" type="curve" smooth="yes"/>
      <point x="295" y="-10"/>
      <point x="338" y="19"/>
      <point x="370" y="58" type="curve"/>
      <point x="364" y="30" type="line"/>
      <point x="326" y="10"/>
      <point x="282" y="-25"/>
      <point x="270" y="-84" type="curve" smooth="yes"/>
      <point x="250" y="-179"/>
      <point x="310" y="-220"/>
      <point x="371" y="-220" type="curve"/>
      <point x="380" y="-220" type="line"/>
      <point x="393" y="-220"/>
      <point x="404" y="-211"/>
      <point x="406" y="-198" type="curve"/>
      <point x="412" y="-170" type="line"/>
      <point x="415" y="-157"/>
      <point x="408" y="-148"/>
      <point x="395" y="-148" type="curve" smooth="yes"/>
      <point x="354" y="-148"/>
      <point x="340" y="-125"/>
      <point x="349" y="-84" type="curve" smooth="yes"/>
      <point x="358" y="-43"/>
      <point x="404" y="-23"/>
      <point x="441" y="6" type="curve" smooth="yes"/>
      <point x="447" y="11"/>
      <point x="452" y="19"/>
      <point x="454" y="27" type="curve"/>
      <point x="553" y="493" type="line"/>
      <point x="556" y="508"/>
      <point x="546" y="520"/>
      <point x="531" y="520" type="curve" name="hr01"/>
      <point x="494" y="520" type="line"/>
      <point x="479" y="520"/>
      <point x="465" y="508"/>
      <point x="462" y="493" type="curve"/>
      <point x="456" y="462" type="line"/>
      <point x="440" y="492"/>
      <point x="395" y="530"/>
    </contour>
    <contour>
      <point x="404" y="217" type="curve" smooth="yes"/>
      <point x="381" y="131"/>
      <point x="306" y="76"/>
      <point x="224" y="76" type="curve" smooth="yes"/>
      <point x="147" y="76"/>
      <point x="110" y="136"/>
      <point x="126" y="232" type="curve" smooth="yes"/>
      <point x="129" y="252"/>
      <point x="132" y="268"/>
      <point x="138" y="288" type="curve"/>
      <point x="163" y="384"/>
      <point x="225" y="444"/>
      <point x="312" y="444" type="curve" smooth="yes"/>
      <point x="396" y="444"/>
      <point x="436" y="390"/>
      <point x="420" y="296" type="curve" smooth="yes"/>
      <point x="417" y="276"/>
      <point x="409" y="237"/>
    </contour>
  </outline>
</glyph>
<glyph name="Hbar" format="1">
  <advance width="727"/>
  <unicode hex="0126"/>
  <outline>
    <contour>
      <point x="652" y="700" type="line" smooth="yes"/>
      <point x="637" y="700"/>
      <point x="623" y="688"/>
      <point x="620" y="673" type="curve" smooth="yes"/>
      <point x="603" y="594" type="line" name="hr01"/>
      <point x="251" y="594" type="line"/>
      <point x="268" y="673" type="line" smooth="yes"/>
      <point x="271" y="688"/>
      <point x="261" y="700"/>
      <point x="246" y="700" type="curve" name="hr02" smooth="yes"/>
      <point x="205" y="700" type="line" smooth="yes"/>
      <point x="190" y="700"/>
      <point x="176" y="688"/>
      <point x="173" y="673" type="curve" smooth="yes"/>
      <point x="156" y="594" type="line" name="hr03"/>
      <point x="113" y="594" type="line" smooth="yes"/>
      <point x="98" y="594"/>
      <point x="83" y="582"/>
      <point x="80" y="567" type="curve" smooth="yes"/>
      <point x="72" y="531" type="line" smooth="yes"/>
      <point x="69" y="516"/>
      <point x="79" y="504"/>
      <point x="94" y="504" type="curve" smooth="yes"/>
      <point x="137" y="504" type="line"/>
      <point x="35" y="27" type="line" smooth="yes"/>
      <point x="32" y="11"/>
      <point x="42" y="0"/>
      <point x="57" y="0" type="curve" smooth="yes"/>
      <point x="98" y="0" type="line" smooth="yes"/>
      <point x="113" y="0"/>
      <point x="127" y="12"/>
      <point x="130" y="27" type="curve" smooth="yes"/>
      <point x="190" y="309" type="line"/>
      <point x="542" y="309" type="line"/>
      <point x="482" y="27" type="line" smooth="yes"/>
      <point x="479" y="12"/>
      <point x="489" y="0"/>
      <point x="504" y="0" type="curve" smooth="yes"/>
      <point x="545" y="0" type="line" smooth="yes"/>
      <point x="560" y="0"/>
      <point x="574" y="12"/>
      <point x="577" y="27" type="curve" smooth="yes"/>
      <point x="679" y="504" type="line"/>
      <point x="722" y="504" type="line" smooth="yes"/>
      <point x="737" y="504"/>
      <point x="751" y="516"/>
      <point x="754" y="531" type="curve" smooth="yes"/>
      <point x="762" y="567" type="line" smooth="yes"/>
      <point x="765" y="582"/>
      <point x="756" y="594"/>
      <point x="741" y="594" type="curve" smooth="yes"/>
      <point x="698" y="594" type="line"/>
      <point x="715" y="673" type="line" smooth="yes"/>
      <point x="718" y="688"/>
      <point x="708" y="700"/>
      <point x="693" y="700" type="curve" name="hr04" smooth="yes"/>
    </contour>
    <contour>
      <point x="209" y="399" type="line"/>
      <point x="232" y="504" type="line"/>
      <point x="584" y="504" type="line"/>
      <point x="561" y="399" type="line"/>
    </contour>
  </outline>
</glyph>
<glyph name="IJ" format="1">
  <advance width="627"/>
  <unicode hex="0132"/>
  <outline>
    <contour>
      <point x="210" y="53" type="curve"/>
      <point x="202" y="17" type="line" smooth="yes"/>
      <point x="199" y="2"/>
      <point x="208" y="-10"/>
      <point x="223" y="-10" type="curve" smooth="yes"/>
      <point x="420" y="-10"/>
      <point x="502" y="94"/>
      <point x="535" y="245" type="curve" smooth="yes"/>
      <point x="626" y="673" type="line" smooth="yes"/>
      <point x="629" y="688"/>
      <point x="619" y="700"/>
      <point x="604" y="700" type="curve" smooth="yes"/>
      <point x="563" y="700" type="line" smooth="yes"/>
      <point x="548" y="700"/>
      <point x="534" y="688"/>
      <point x="531" y="673" type="curve" smooth="yes"/>
      <point x="442" y="255" type="line"/>
      <point x="417" y="144"/>
      <point x="359" y="80"/>
      <point x="243" y="80" type="curve" smooth="yes"/>
      <point x="228" y="80"/>
      <point x="213" y="68"/>
    </contour>
    <contour>
      <point x="92" y="0" type="line" name="hr01" smooth="yes"/>
      <point x="107" y="0"/>
      <point x="121" y="12"/>
      <point x="124" y="27" type="curve" smooth="yes"/>
      <point x="262" y="673" type="line" smooth="yes"/>
      <point x="265" y="688"/>
      <point x="255" y="700"/>
      <point x="240" y="700" type="curve" smooth="yes"/>
      <point x="199" y="700" type="line" smooth="yes"/>
      <point x="184" y="700"/>
      <point x="170" y="688"/>
      <point x="167" y="673" type="curve" smooth="yes"/>
      <point x="29" y="27" type="line" smooth="yes"/>
      <point x="26" y="12"/>
      <point x="36" y="0"/>
      <point x="51" y="0" type="curve" smooth="yes"/>
    </contour>
  </outline>
</glyph>
<glyph name="kgreenlandic" format="1">
  <advance width="520"/>
  <unicode hex="0138"/>
  <outline>
    <contour>
      <point x="208" y="493" type="line" name="hr00" smooth="yes"/>
      <point x="211" y="508"/>
      <point x="202" y="520"/>
      <point x="187" y="520" type="curve" smooth="yes"/>
      <point x="150" y="520" type="line" smooth="yes"/>
      <point x="135" y="520"/>
      <point x="120" y="508"/>
      <point x="117" y="493" type="curve" smooth="yes"/>
      <point x="18" y="27" type="line" smooth="yes"/>
      <point x="15" y="12"/>
      <point x="25" y="0"/>
      <point x="40" y="0" type="curve" smooth="yes"/>
      <point x="77" y="0" type="line" smooth="yes"/>
      <point x="92" y="0"/>
      <point x="106" y="12"/>
      <point x="109" y="27" type="curve" smooth="yes"/>
      <point x="149" y="216" type="line"/>
      <point x="346" y="17" type="line" smooth="yes"/>
      <point x="352" y="11"/>
      <point x="364" y="0"/>
      <point x="384" y="0" type="curve" smooth="yes"/>
      <point x="422" y="0" type="line" smooth="yes"/>
      <point x="435" y="0"/>
      <point x="448" y="11"/>
      <point x="451" y="24" type="curve" smooth="yes"/>
      <point x="452" y="30"/>
      <point x="450" y="38"/>
      <point x="445" y="43" type="curve" smooth="yes"/>
      <point x="226" y="264" type="line"/>
      <point x="513" y="476" type="line" smooth="yes"/>
      <point x="524" y="484"/>
      <point x="527" y="490"/>
      <point x="528" y="496" type="curve" smooth="yes"/>
      <point x="531" y="509"/>
      <point x="522" y="520"/>
      <point x="509" y="520" type="curve" smooth="yes"/>
      <point x="453" y="520" type="line" smooth="yes"/>
      <point x="435" y="520"/>
      <point x="420" y="510"/>
      <point x="410" y="503" type="curve"/>
      <point x="172" y="323" type="line"/>
    </contour>
  </outline>
</glyph>
<glyph name="Lslash" format="1">
  <advance width="573"/>
  <unicode hex="0141"/>
  <outline>
    <contour>
      <point x="150" y="90" type="line" name="hr00"/>
      <point x="196" y="306" type="line"/>
      <point x="371" y="370" type="line" smooth="yes"/>
      <point x="388" y="376"/>
      <point x="396" y="385"/>
      <point x="400" y="403" type="curve" smooth="yes"/>
      <point x="406" y="431" type="line" smooth="yes"/>
      <point x="409" y="443"/>
      <point x="402" y="452"/>
      <point x="390" y="452" type="curve" smooth="yes"/>
      <point x="388" y="452"/>
      <point x="383" y="451"/>
      <point x="378" y="449" type="curve" smooth="yes"/>
      <point x="213" y="389" type="line"/>
      <point x="274" y="673" type="line" smooth="yes"/>
      <point x="277" y="688"/>
      <point x="267" y="700"/>
      <point x="252" y="700" type="curve" smooth="yes"/>
      <point x="211" y="700" type="line" smooth="yes"/>
      <point x="196" y="700"/>
      <point x="182" y="688"/>
      <point x="179" y="673" type="curve" smooth="yes"/>
      <point x="110" y="352" type="line"/>
      <point x="48" y="330" type="line" smooth="yes"/>
      <point x="30" y="324"/>
      <point x="22" y="315"/>
      <point x="19" y="297" type="curve" smooth="yes"/>
      <point x="13" y="269" type="line" smooth="yes"/>
      <point x="10" y="257"/>
      <point x="17" y="248"/>
      <point x="29" y="248" type="curve" smooth="yes"/>
      <point x="31" y="248"/>
      <point x="35" y="249"/>
      <point x="41" y="251" type="curve" smooth="yes"/>
      <point x="93" y="269" type="line"/>
      <point x="41" y="27" type="line" smooth="yes"/>
      <point x="38" y="12"/>
      <point x="48" y="0"/>
      <point x="63" y="0" type="curve" smooth="yes"/>
      <point x="470" y="0" type="line" smooth="yes"/>
      <point x="485" y="0"/>
      <point x="499" y="12"/>
      <point x="502" y="27" type="curve" smooth="yes"/>
      <point x="510" y="63" type="line" smooth="yes"/>
      <point x="513" y="78"/>
      <point x="504" y="90"/>
      <point x="489" y="90" type="curve" smooth="yes"/>
    </contour>
  </outline>
</glyph>
<glyph name="Eng" format="1">
  <advance width="696"/>
  <unicode hex="014A"/>
  <outline>
    <contour>
      <point x="441" y="-46" type="line" name="hr00"/>
      <point x="430" y="-97"/>
      <point x="408" y="-135"/>
      <point x="338" y="-135" type="curve"/>
      <point x="329" y="-135" type="line"/>
      <point x="314" y="-135"/>
      <point x="299" y="-147"/>
      <point x="296" y="-162" type="curve"/>
      <point x="288" y="-198" type="line"/>
      <point x="285" y="-213"/>
      <point x="295" y="-225"/>
      <point x="310" y="-225" type="curve"/>
      <point x="343" y="-225" type="line"/>
      <point x="458" y="-225"/>
      <point x="511" y="-163"/>
      <point x="536" y="-46" type="curve"/>
      <point x="689" y="673" type="line"/>
      <point x="692" y="688"/>
      <point x="682" y="700"/>
      <point x="667" y="700" type="curve"/>
      <point x="626" y="700" type="line"/>
      <point x="611" y="700"/>
      <point x="597" y="688"/>
      <point x="594" y="673" type="curve"/>
      <point x="489" y="181" type="line"/>
      <point x="268" y="670" type="line"/>
      <point x="262" y="684"/>
      <point x="253" y="700"/>
      <point x="234" y="700" type="curve"/>
      <point x="199" y="700" type="line"/>
      <point x="184" y="700"/>
      <point x="170" y="688"/>
      <point x="167" y="673" type="curve"/>
      <point x="29" y="27" type="line"/>
      <point x="26" y="12"/>
      <point x="36" y="0"/>
      <point x="51" y="0" type="curve"/>
      <point x="92" y="0" type="line"/>
      <point x="107" y="0"/>
      <point x="121" y="12"/>
      <point x="124" y="27" type="curve"/>
      <point x="229" y="519" type="line"/>
      <point x="455" y="19" type="line"/>
    </contour>
  </outline>
</glyph>
<glyph name="oe" format="1">
  <advance width="945"/>
  <unicode hex="0153"/>
  <outline>
    <contour>
      <point x="328" y="530" type="curve" smooth="yes"/>
      <point x="195" y="530"/>
      <point x="92" y="439"/>
      <point x="53" y="307" type="curve" smooth="yes"/>
      <point x="46" y="284"/>
      <point x="35" y="234"/>
      <point x="33" y="213" type="curve" smooth="yes"/>
      <point x="17" y="81"/>
      <point x="98" y="-10"/>
      <point x="231" y="-10" type="curve" smooth="yes"/>
      <point x="321" y="-10"/>
      <point x="392" y="26"/>
      <point x="441" y="86" type="curve"/>
      <point x="471" y="27"/>
      <point x="531" y="-10"/>
      <point x="613" y="-10" type="curve" smooth="yes"/>
      <point x="755" y="-10"/>
      <point x="826" y="72"/>
      <point x="847" y="113" type="curve" smooth="yes"/>
      <point x="854" y="127"/>
      <point x="843" y="140"/>
      <point x="828" y="140" type="curve" name="hr01"/>
      <point x="783" y="140" type="line"/>
      <point x="767" y="140"/>
      <point x="760" y="136"/>
      <point x="748" y="126" type="curve" smooth="yes"/>
      <point x="720" y="101"/>
      <point x="687" y="76"/>
      <point x="613" y="76" type="curve" name="hr02" smooth="yes"/>
      <point x="544" y="76"/>
      <point x="501" y="131"/>
      <point x="513" y="223" type="curve"/>
      <point x="861" y="223" type="line"/>
      <point x="876" y="223"/>
      <point x="890" y="235"/>
      <point x="894" y="250" type="curve"/>
      <point x="899" y="277" type="line"/>
      <point x="926" y="425"/>
      <point x="846" y="530"/>
      <point x="713" y="530" type="curve" smooth="yes"/>
      <point x="630" y="530"/>
      <point x="556" y="491"/>
      <point x="507" y="433" type="curve"/>
      <point x="476" y="493"/>
      <point x="412" y="530"/>
    </contour>
    <contour>
      <point x="417" y="218" type="curve" smooth="yes"/>
      <point x="392" y="137"/>
      <point x="324" y="76"/>
      <point x="231" y="76" type="curve" smooth="yes"/>
      <point x="148" y="76"/>
      <point x="115" y="137"/>
      <point x="125" y="218" type="curve" smooth="yes"/>
      <point x="128" y="240"/>
      <point x="136" y="278"/>
      <point x="143" y="302" type="curve" smooth="yes"/>
      <point x="167" y="383"/>
      <point x="235" y="444"/>
      <point x="328" y="444" type="curve" smooth="yes"/>
      <point x="421" y="444"/>
      <point x="445" y="383"/>
      <point x="435" y="302" type="curve" smooth="yes"/>
      <point x="432" y="278"/>
      <point x="424" y="240"/>
    </contour>
    <contour>
      <point x="533" y="307" type="line"/>
      <point x="562" y="388"/>
      <point x="632" y="444"/>
      <point x="708" y="444" type="curve" smooth="yes"/>
      <point x="786" y="444"/>
      <point x="829" y="386"/>
      <point x="815" y="307" type="curve"/>
    </contour>
  </outline>
</glyph>
<glyph name="Scedilla" format="1">
  <advance width="616"/>
  <unicode hex="015E"/>
  <outline>
    <contour>
      <point x="377" y="710" type="curve" smooth="yes"/>
      <point x="218" y="710"/>
      <point x="132" y="624"/>
      <point x="111" y="524" type="curve" smooth="yes"/>
      <point x="92" y="434"/>
      <point x="131" y="364"/>
      <point x="251" y="326" type="curve" smooth="yes"/>
      <point x="388" y="283"/>
      <point x="472" y="264"/>
      <point x="457" y="194" type="curve" smooth="yes"/>
      <point x="442" y="124"/>
      <point x="363" y="80"/>
      <point x="249" y="80" type="curve" smooth="yes"/>
      <point x="150" y="80"/>
      <point x="113" y="140"/>
      <point x="105" y="176" type="curve" smooth="yes"/>
      <point x="101" y="194"/>
      <point x="92" y="198"/>
      <point x="79" y="198" type="curve"/>
      <point x="38" y="198" type="line"/>
      <point x="26" y="198"/>
      <point x="11" y="188"/>
      <point x="11" y="176" type="curve" smooth="yes"/>
      <point x="8" y="103"/>
      <point x="71" y="18"/>
      <point x="187" y="-4" type="curve"/>
      <point x="156" y="-53" type="line"/>
      <point x="150" y="-63"/>
      <point x="143" y="-75"/>
      <point x="148" y="-83" type="curve"/>
      <point x="159" y="-99" type="line"/>
      <point x="172" y="-118"/>
      <point x="183" y="-99"/>
      <point x="215" y="-99" type="curve" smooth="yes"/>
      <point x="244" y="-99"/>
      <point x="256" y="-110"/>
      <point x="251" y="-134" type="curve" smooth="yes"/>
      <point x="246" y="-159"/>
      <point x="229" y="-169"/>
      <point x="201" y="-169" type="curve" smooth="yes"/>
      <point x="165" y="-169"/>
      <point x="165" y="-137"/>
      <point x="140" y="-156" type="curve"/>
      <point x="127" y="-166" type="line"/>
      <point x="104" y="-184"/>
      <point x="147" y="-220"/>
      <point x="200" y="-220" type="curve" smooth="yes"/>
      <point x="270" y="-220"/>
      <point x="297" y="-183"/>
      <point x="307" y="-135" type="curve" smooth="yes"/>
      <point x="318" y="-87"/>
      <point x="283" y="-48"/>
      <point x="249" y="-48" type="curve" smooth="yes"/>
      <point x="234" y="-48"/>
      <point x="222" y="-51"/>
      <point x="213" y="-56" type="curve"/>
      <point x="244" y="-10" type="line"/>
      <point x="249" y="-10" type="line"/>
      <point x="421" y="-10"/>
      <point x="526" y="64"/>
      <point x="552" y="184" type="curve" smooth="yes"/>
      <point x="573" y="284"/>
      <point x="526" y="346"/>
      <point x="384" y="386" type="curve" smooth="yes"/>
      <point x="244" y="425"/>
      <point x="188" y="446"/>
      <point x="203" y="516" type="curve" smooth="yes"/>
      <point x="218" y="586"/>
      <point x="283" y="620"/>
      <point x="377" y="620" type="curve" smooth="yes"/>
      <point x="466" y="620"/>
      <point x="501" y="555"/>
      <point x="509" y="529" type="curve" smooth="yes"/>
      <point x="514" y="511"/>
      <point x="520" y="507"/>
      <point x="535" y="507" type="curve" name="hr01"/>
      <point x="576" y="507" type="line"/>
      <point x="588" y="507"/>
      <point x="603" y="517"/>
      <point x="603" y="529" type="curve" smooth="yes"/>
      <point x="603" y="597"/>
      <point x="539" y="710"/>
    </contour>
  </outline>
</glyph>
<glyph name="scedilla" format="1">
  <advance width="505"/>
  <unicode hex="015F"/>
  <outline>
    <contour>
      <point x="338" y="144" type="curve" smooth="yes"/>
      <point x="330" y="104"/>
      <point x="266" y="76"/>
      <point x="196" y="76" type="curve" smooth="yes"/>
      <point x="146" y="76"/>
      <point x="115" y="92"/>
      <point x="98" y="122" type="curve" smooth="yes"/>
      <point x="91" y="134"/>
      <point x="78" y="135"/>
      <point x="70" y="135" type="curve" name="hr01" smooth="yes"/>
      <point x="34" y="135" type="line" smooth="yes"/>
      <point x="18" y="135"/>
      <point x="5" y="123"/>
      <point x="3" y="108" type="curve" smooth="yes"/>
      <point x="-3" y="56"/>
      <point x="67" y="-10"/>
      <point x="197" y="-10" type="curve" smooth="yes"/>
      <point x="337" y="-10"/>
      <point x="411" y="57"/>
      <point x="428" y="137" type="curve" smooth="yes"/>
      <point x="443" y="207"/>
      <point x="417" y="267"/>
      <point x="300" y="294" type="curve" smooth="yes"/>
      <point x="188" y="320"/>
      <point x="152" y="330"/>
      <point x="162" y="380" type="curve" smooth="yes"/>
      <point x="171" y="420"/>
      <point x="218" y="444"/>
      <point x="289" y="444" type="curve" smooth="yes"/>
      <point x="349" y="444"/>
      <point x="367" y="426"/>
      <point x="379" y="404" type="curve" smooth="yes"/>
      <point x="386" y="392"/>
      <point x="399" y="390"/>
      <point x="407" y="390" type="curve" name="hr02" smooth="yes"/>
      <point x="440" y="390" type="line" smooth="yes"/>
      <point x="455" y="390"/>
      <point x="472" y="402"/>
      <point x="472" y="417" type="curve" smooth="yes"/>
      <point x="472" y="466"/>
      <point x="419" y="530"/>
      <point x="289" y="530" type="curve" smooth="yes"/>
      <point x="159" y="530"/>
      <point x="92" y="468"/>
      <point x="75" y="388" type="curve" smooth="yes"/>
      <point x="60" y="318"/>
      <point x="82" y="254"/>
      <point x="186" y="231" type="curve" smooth="yes"/>
      <point x="296" y="206"/>
      <point x="349" y="194"/>
    </contour>
    <contour>
      <point x="159" y="27" type="line"/>
      <point x="107" y="-53" type="line" smooth="yes"/>
      <point x="101" y="-63"/>
      <point x="94" y="-75"/>
      <point x="99" y="-83" type="curve"/>
      <point x="110" y="-99" type="line" smooth="yes"/>
      <point x="123" y="-118"/>
      <point x="134" y="-99"/>
      <point x="166" y="-99" type="curve" smooth="yes"/>
      <point x="195" y="-99"/>
      <point x="207" y="-110"/>
      <point x="202" y="-134" type="curve" smooth="yes"/>
      <point x="197" y="-159"/>
      <point x="180" y="-169"/>
      <point x="152" y="-169" type="curve" smooth="yes"/>
      <point x="116" y="-169"/>
      <point x="116" y="-137"/>
      <point x="91" y="-156" type="curve" smooth="yes"/>
      <point x="78" y="-166" type="line" smooth="yes"/>
      <point x="55" y="-184"/>
      <point x="98" y="-220"/>
      <point x="151" y="-220" type="curve" smooth="yes"/>
      <point x="221" y="-220"/>
      <point x="248" y="-183"/>
      <point x="258" y="-135" type="curve" smooth="yes"/>
      <point x="269" y="-87"/>
      <point x="234" y="-48"/>
      <point x="200" y="-48" type="curve" smooth="yes"/>
      <point x="185" y="-48"/>
      <point x="173" y="-51"/>
      <point x="164" y="-56" type="curve"/>
      <point x="220" y="27" type="line"/>
    </contour>
  </outline>
</glyph>
<glyph name="Tbar" format="1">
  <advance width="577"/>
  <unicode hex="0166"/>
  <outline>
    <contour>
      <point x="138" y="700" type="line" name="hr00" smooth="yes"/>
      <point x="123" y="700"/>
      <point x="109" y="688"/>
      <point x="106" y="673" type="curve" smooth="yes"/>
      <point x="98" y="637" type="line" smooth="yes"/>
      <point x="95" y="622"/>
      <point x="104" y="610"/>
      <point x="119" y="610" type="curve" smooth="yes"/>
      <point x="306" y="610" type="line"/>
      <point x="264" y="413" type="line"/>
      <point x="157" y="413" type="line" smooth="yes"/>
      <point x="142" y="413"/>
      <point x="128" y="401"/>
      <point x="125" y="386" type="curve" smooth="yes"/>
      <point x="118" y="355" type="line" smooth="yes"/>
      <point x="115" y="340"/>
      <point x="124" y="328"/>
      <point x="139" y="328" type="curve" smooth="yes"/>
      <point x="246" y="328" type="line"/>
      <point x="182" y="27" type="line" smooth="yes"/>
      <point x="179" y="12"/>
      <point x="189" y="0"/>
      <point x="204" y="0" type="curve" smooth="yes"/>
      <point x="245" y="0" type="line" smooth="yes"/>
      <point x="260" y="0"/>
      <point x="274" y="12"/>
      <point x="277" y="27" type="curve" smooth="yes"/>
      <point x="341" y="328" type="line"/>
      <point x="448" y="328" type="line" smooth="yes"/>
      <point x="463" y="328"/>
      <point x="478" y="340"/>
      <point x="481" y="355" type="curve" smooth="yes"/>
      <point x="488" y="386" type="line" smooth="yes"/>
      <point x="491" y="401"/>
      <point x="481" y="413"/>
      <point x="466" y="413" type="curve" smooth="yes"/>
      <point x="359" y="413" type="line"/>
      <point x="401" y="610" type="line"/>
      <point x="588" y="610" type="line" smooth="yes"/>
      <point x="603" y="610"/>
      <point x="618" y="622"/>
      <point x="621" y="637" type="curve" smooth="yes"/>
      <point x="629" y="673" type="line" smooth="yes"/>
      <point x="632" y="688"/>
      <point x="622" y="700"/>
      <point x="607" y="700" type="curve" smooth="yes"/>
    </contour>
  </outline>
</glyph>
<glyph name="Uogonek" format="1">
  <advance width="700"/>
  <unicode hex="0172"/>
  <outline>
    <contour>
      <point x="636" y="700" type="line" name="hr00"/>
      <point x="621" y="700"/>
      <point x="607" y="688"/>
      <point x="604" y="673" type="curve"/>
      <point x="517" y="268" type="line"/>
      <point x="490" y="138"/>
      <point x="410" y="75"/>
      <point x="291" y="75" type="curve" smooth="yes"/>
      <point x="182" y="75"/>
      <point x="141" y="138"/>
      <point x="168" y="268" type="curve"/>
      <point x="255" y="673" type="line"/>
      <point x="258" y="688"/>
      <point x="248" y="700"/>
      <point x="233" y="700" type="curve"/>
      <point x="192" y="700" type="line"/>
      <point x="177" y="700"/>
      <point x="163" y="688"/>
      <point x="160" y="673" type="curve"/>
      <point x="75" y="273" type="line"/>
      <point x="44" y="131"/>
      <point x="85" y="23"/>
      <point x="221" y="-3" type="curve"/>
      <point x="210" y="-22"/>
      <point x="202" y="-43"/>
      <point x="197" y="-69" type="curve" smooth="yes"/>
      <point x="177" y="-164"/>
      <point x="225" y="-220"/>
      <point x="306" y="-220" type="curve"/>
      <point x="325" y="-220" type="line"/>
      <point x="338" y="-220"/>
      <point x="349" y="-211"/>
      <point x="351" y="-198" type="curve"/>
      <point x="357" y="-170" type="line"/>
      <point x="360" y="-157"/>
      <point x="353" y="-148"/>
      <point x="340" y="-148" type="curve"/>
      <point x="315" y="-148" type="line"/>
      <point x="281" y="-148"/>
      <point x="264" y="-125"/>
      <point x="275" y="-74" type="curve" smooth="yes"/>
      <point x="286" y="-23"/>
      <point x="313" y="-11"/>
      <point x="357" y="-5" type="curve" smooth="yes"/>
      <point x="517" y="17"/>
      <point x="582" y="127"/>
      <point x="613" y="273" type="curve"/>
      <point x="698" y="673" type="line"/>
      <point x="701" y="688"/>
      <point x="691" y="700"/>
      <point x="676" y="700" type="curve"/>
    </contour>
  </outline>
</glyph>
<glyph name="longs" format="1">
  <advance width="293"/>
  <unicode hex="017F"/>
  <outline>
    <contour>
      <point x="275" y="565" type="line" name="hr00"/>
      <point x="285" y="616"/>
      <point x="298" y="654"/>
      <point x="378" y="654" type="curve" smooth="yes"/>
      <point x="431" y="654" type="line" smooth="yes"/>
      <point x="446" y="654"/>
      <point x="460" y="666"/>
      <point x="463" y="681" type="curve" smooth="yes"/>
      <point x="470" y="713" type="line" smooth="yes"/>
      <point x="473" y="728"/>
      <point x="464" y="740"/>
      <point x="449" y="740" type="curve" smooth="yes"/>
      <point x="386" y="740" type="line" smooth="yes"/>
      <point x="261" y="740"/>
      <point x="209" y="683"/>
      <point x="185" y="570" type="curve" smooth="yes"/>
      <point x="174" y="520" type="line"/>
      <point x="90" y="520" type="line" smooth="yes"/>
      <point x="75" y="520"/>
      <point x="60" y="508"/>
      <point x="57" y="493" type="curve" smooth="yes"/>
      <point x="50" y="461" type="line" smooth="yes"/>
      <point x="47" y="446"/>
      <point x="57" y="434"/>
      <point x="72" y="434" type="curve" smooth="yes"/>
      <point x="156" y="434" type="line"/>
      <point x="69" y="27" type="line" smooth="yes"/>
      <point x="66" y="12"/>
      <point x="76" y="0"/>
      <point x="91" y="0" type="curve" smooth="yes"/>
      <point x="128" y="0" type="line" smooth="yes"/>
      <point x="143" y="0"/>
      <point x="157" y="12"/>
      <point x="160" y="27" type="curve" smooth="yes"/>
    </contour>
  </outline>
</glyph>
<glyph name="florin" format="1">
  <advance width="412"/>
  <unicode hex="0192"/>
  <outline>
    <contour>
      <point x="285" y="565" type="line" name="hr00"/>
      <point x="295" y="616"/>
      <point x="308" y="654"/>
      <point x="388" y="654" type="curve"/>
      <point x="441" y="654" type="line"/>
      <point x="456" y="654"/>
      <point x="470" y="666"/>
      <point x="473" y="681" type="curve"/>
      <point x="480" y="713" type="line"/>
      <point x="483" y="728"/>
      <point x="474" y="740"/>
      <point x="459" y="740" type="curve"/>
      <point x="396" y="740" type="line"/>
      <point x="271" y="740"/>
      <point x="219" y="683"/>
      <point x="195" y="570" type="curve"/>
      <point x="184" y="520" type="line"/>
      <point x="100" y="520" type="line"/>
      <point x="85" y="520"/>
      <point x="70" y="508"/>
      <point x="67" y="493" type="curve"/>
      <point x="60" y="461" type="line"/>
      <point x="57" y="446"/>
      <point x="67" y="434"/>
      <point x="82" y="434" type="curve"/>
      <point x="166" y="434" type="line"/>
      <point x="63" y="-50" type="line"/>
      <point x="52" y="-101"/>
      <point x="30" y="-139"/>
      <point x="-40" y="-139" type="curve"/>
      <point x="-54" y="-139" type="line"/>
      <point x="-68" y="-139"/>
      <point x="-83" y="-151"/>
      <point x="-86" y="-166" type="curve"/>
      <point x="-93" y="-198" type="line"/>
      <point x="-96" y="-213"/>
      <point x="-86" y="-225"/>
      <point x="-71" y="-225" type="curve"/>
      <point x="-40" y="-225" type="line"/>
      <point x="65" y="-225"/>
      <point x="130" y="-163"/>
      <point x="154" y="-50" type="curve"/>
      <point x="257" y="434" type="line"/>
      <point x="384" y="434" type="line"/>
      <point x="399" y="434"/>
      <point x="413" y="446"/>
      <point x="416" y="461" type="curve"/>
      <point x="423" y="493" type="line"/>
      <point x="426" y="508"/>
      <point x="417" y="520"/>
      <point x="402" y="520" type="curve"/>
      <point x="275" y="520" type="line"/>
    </contour>
  </outline>
</glyph>
<glyph name="dotlessj" format="1">
  <advance width="292"/>
  <unicode hex="0237"/>
  <outline>
    <contour>
      <point x="59" y="-15" type="line" name="hr00" smooth="yes"/>
      <point x="48" y="-66"/>
      <point x="26" y="-104"/>
      <point x="-44" y="-104" type="curve" smooth="yes"/>
      <point x="-53" y="-104" type="line" smooth="yes"/>
      <point x="-68" y="-104"/>
      <point x="-82" y="-116"/>
      <point x="-85" y="-131" type="curve" smooth="yes"/>
      <point x="-92" y="-163" type="line" smooth="yes"/>
      <point x="-95" y="-178"/>
      <point x="-86" y="-190"/>
      <point x="-71" y="-190" type="curve" smooth="yes"/>
      <point x="-52" y="-190" type="line" smooth="yes"/>
      <point x="63" y="-190"/>
      <point x="126" y="-128"/>
      <point x="150" y="-15" type="curve" smooth="yes"/>
      <point x="258" y="493" type="line" smooth="yes"/>
      <point x="261" y="508"/>
      <point x="252" y="520"/>
      <point x="237" y="520" type="curve" smooth="yes"/>
      <point x="90" y="520" type="line" smooth="yes"/>
      <point x="75" y="520"/>
      <point x="60" y="508"/>
      <point x="57" y="493" type="curve" smooth="yes"/>
      <point x="50" y="461" type="line" smooth="yes"/>
      <point x="47" y="446"/>
      <point x="57" y="434"/>
      <point x="72" y="434" type="curve" smooth="yes"/>
      <point x="155" y="434" type="line"/>
    </contour>
  </outline>
</glyph>
<glyph name="circumflex" format="1">
  <advance width="320"/>
  <unicode hex="02C6"/>
  <outline>
    <contour>
      <point x="191" y="735" type="line" name="hr00" smooth="yes"/>
      <point x="176" y="735"/>
      <point x="166" y="730"/>
      <point x="150" y="716" type="curve" smooth="yes"/>
      <point x="38" y="624" type="line" smooth="yes"/>
      <point x="27" y="615"/>
      <point x="27" y="595"/>
      <point x="43" y="595" type="curve" smooth="yes"/>
      <point x="69" y="595" type="line" smooth="yes"/>
      <point x="82" y="595"/>
      <point x="89" y="598"/>
      <point x="103" y="606" type="curve" smooth="yes"/>
      <point x="189" y="652" type="line"/>
      <point x="255" y="606" type="line" smooth="yes"/>
      <point x="266" y="599"/>
      <point x="270" y="595"/>
      <point x="283" y="595" type="curve" smooth="yes"/>
      <point x="299" y="595" type="line" smooth="yes"/>
      <point x="313" y="595"/>
      <point x="326" y="611"/>
      <point x="316" y="624" type="curve" smooth="yes"/>
      <point x="244" y="716" type="line" smooth="yes"/>
      <point x="234" y="730"/>
      <point x="226" y="735"/>
      <point x="211" y="735" type="curve" smooth="yes"/>
    </contour>
  </outline>
</glyph>
<glyph name="caron" format="1">
  <advance width="320"/>
  <unicode hex="02C7"/>
  <outline>
    <contour>
      <point x="158" y="595" type="line" name="hr00"/>
      <point x="173" y="595"/>
      <point x="183" y="600"/>
      <point x="199" y="614" type="curve" smooth="yes"/>
      <point x="311" y="706" type="line" smooth="yes"/>
      <point x="322" y="715"/>
      <point x="322" y="735"/>
      <point x="306" y="735" type="curve" smooth="yes"/>
      <point x="280" y="735" type="line" smooth="yes"/>
      <point x="267" y="735"/>
      <point x="260" y="732"/>
      <point x="246" y="724" type="curve" smooth="yes"/>
      <point x="160" y="678" type="line"/>
      <point x="94" y="724" type="line"/>
      <point x="84" y="732"/>
      <point x="79" y="735"/>
      <point x="66" y="735" type="curve" smooth="yes"/>
      <point x="50" y="735" type="line" smooth="yes"/>
      <point x="36" y="735"/>
      <point x="23" y="719"/>
      <point x="33" y="706" type="curve"/>
      <point x="105" y="614" type="line" smooth="yes"/>
      <point x="115" y="600"/>
      <point x="123" y="595"/>
      <point x="138" y="595" type="curve" smooth="yes"/>
    </contour>
  </outline>
</glyph>
<glyph name="breve" format="1">
  <advance width="282"/>
  <unicode hex="02D8"/>
  <outline>
    <contour>
      <point x="135" y="590" type="curve" smooth="yes"/>
      <point x="221" y="590"/>
      <point x="268" y="656"/>
      <point x="281" y="716" type="curve" smooth="yes"/>
      <point x="283" y="726"/>
      <point x="278" y="735"/>
      <point x="266" y="735" type="curve" smooth="yes"/>
      <point x="232" y="735" type="line" smooth="yes"/>
      <point x="220" y="735"/>
      <point x="211" y="726"/>
      <point x="209" y="716" type="curve" smooth="yes"/>
      <point x="201" y="682"/>
      <point x="173" y="656"/>
      <point x="139" y="656" type="curve" name="hr01" smooth="yes"/>
      <point x="105" y="656"/>
      <point x="95" y="682"/>
      <point x="103" y="716" type="curve" smooth="yes"/>
      <point x="105" y="726"/>
      <point x="100" y="735"/>
      <point x="88" y="735" type="curve" name="hr02" smooth="yes"/>
      <point x="56" y="735" type="line" smooth="yes"/>
      <point x="44" y="735"/>
      <point x="35" y="726"/>
      <point x="33" y="716" type="curve" smooth="yes"/>
      <point x="20" y="656"/>
      <point x="49" y="590"/>
    </contour>
  </outline>
</glyph>
<glyph name="ring" format="1">
  <advance width="204"/>
  <unicode hex="02DA"/>
  <outline>
    <contour>
      <point x="87" y="670" type="curve" name="hr00" smooth="yes"/>
      <point x="91" y="687"/>
      <point x="106" y="700"/>
      <point x="123" y="700" type="curve" smooth="yes"/>
      <point x="140" y="700"/>
      <point x="151" y="687"/>
      <point x="147" y="670" type="curve" smooth="yes"/>
      <point x="143" y="653"/>
      <point x="128" y="640"/>
      <point x="111" y="640" type="curve" smooth="yes"/>
      <point x="94" y="640"/>
      <point x="83" y="653"/>
    </contour>
    <contour>
      <point x="32" y="670" type="curve" smooth="yes"/>
      <point x="22" y="623"/>
      <point x="58" y="590"/>
      <point x="105" y="590" type="curve" smooth="yes"/>
      <point x="152" y="590"/>
      <point x="192" y="623"/>
      <point x="202" y="670" type="curve" smooth="yes"/>
      <point x="212" y="717"/>
      <point x="176" y="750"/>
      <point x="129" y="750" type="curve" smooth="yes"/>
      <point x="82" y="750"/>
      <point x="42" y="717"/>
    </contour>
  </outline>
</glyph>
<glyph name="ogonek" format="1">
  <advance width="243"/>
  <unicode hex="02DB"/>
  <outline>
    <contour>
      <point x="144" y="-220" type="line" name="hr00" smooth="yes"/>
      <point x="63" y="-220"/>
      <point x="15" y="-164"/>
      <point x="35" y="-69" type="curve" smooth="yes"/>
      <point x="55" y="26"/>
      <point x="115" y="72"/>
      <point x="196" y="72" type="curve" smooth="yes"/>
      <point x="225" y="72" type="line" smooth="yes"/>
      <point x="238" y="72"/>
      <point x="245" y="63"/>
      <point x="242" y="50" type="curve" smooth="yes"/>
      <point x="236" y="22" type="line" smooth="yes"/>
      <point x="233" y="9"/>
      <point x="223" y="0"/>
      <point x="210" y="0" type="curve" smooth="yes"/>
      <point x="195" y="0" type="line" smooth="yes"/>
      <point x="151" y="0"/>
      <point x="124" y="-23"/>
      <point x="113" y="-74" type="curve" smooth="yes"/>
      <point x="102" y="-125"/>
      <point x="119" y="-148"/>
      <point x="153" y="-148" type="curve" smooth="yes"/>
      <point x="178" y="-148" type="line" smooth="yes"/>
      <point x="191" y="-148"/>
      <point x="198" y="-157"/>
      <point x="195" y="-170" type="curve" smooth="yes"/>
      <point x="189" y="-198" type="line" smooth="yes"/>
      <point x="187" y="-211"/>
      <point x="176" y="-220"/>
      <point x="163" y="-220" type="curve" smooth="yes"/>
    </contour>
  </outline>
</glyph>
<glyph name="tilde" format="1">
  <advance width="340"/>
  <unicode hex="02DC"/>
  <outline>
    <contour>
      <point x="236" y="590" type="curve" smooth="yes"/>
      <point x="298" y="590"/>
      <point x="333" y="656"/>
      <point x="339" y="686" type="curve" smooth="yes"/>
      <point x="341" y="696"/>
      <point x="336" y="705"/>
      <point x="324" y="705" type="curve" smooth="yes"/>
      <point x="287" y="705" type="line" smooth="yes"/>
      <point x="266" y="705"/>
      <point x="268" y="678"/>
      <point x="237" y="678" type="curve" smooth="yes"/>
      <point x="202" y="678"/>
      <point x="193" y="710"/>
      <point x="134" y="710" type="curve" name="hr01" smooth="yes"/>
      <point x="72" y="710"/>
      <point x="37" y="644"/>
      <point x="31" y="614" type="curve" smooth="yes"/>
      <point x="29" y="604"/>
      <point x="34" y="595"/>
      <point x="46" y="595" type="curve" smooth="yes"/>
      <point x="83" y="595" type="line" smooth="yes"/>
      <point x="104" y="595"/>
      <point x="103" y="622"/>
      <point x="134" y="622" type="curve" smooth="yes"/>
      <point x="166" y="622"/>
      <point x="178" y="590"/>
    </contour>
  </outline>
</glyph>
<glyph name="afii10053" format="1">
  <advance width="634"/>
  <unicode hex="0404"/>
  <outline>
    <contour>
      <point x="274" y="80" type="curve" smooth="yes"/>
      <point x="158" y="80"/>
      <point x="129" y="180"/>
      <point x="154" y="307" type="curve"/>
      <point x="391" y="307" type="line" smooth="yes"/>
      <point x="406" y="307"/>
      <point x="420" y="319"/>
      <point x="423" y="334" type="curve" smooth="yes"/>
      <point x="431" y="370" type="line" smooth="yes"/>
      <point x="434" y="385"/>
      <point x="425" y="397"/>
      <point x="410" y="397" type="curve" smooth="yes"/>
      <point x="173" y="397" type="line"/>
      <point x="196" y="504"/>
      <point x="274" y="620"/>
      <point x="408" y="620" type="curve" smooth="yes"/>
      <point x="497" y="620"/>
      <point x="538" y="571"/>
      <point x="544" y="524" type="curve" smooth="yes"/>
      <point x="546" y="510"/>
      <point x="554" y="502"/>
      <point x="565" y="502" type="curve" name="hr01" smooth="yes"/>
      <point x="611" y="502" type="line" smooth="yes"/>
      <point x="623" y="502"/>
      <point x="638" y="512"/>
      <point x="638" y="524" type="curve" smooth="yes"/>
      <point x="638" y="593"/>
      <point x="588" y="710"/>
      <point x="408" y="710" type="curve" smooth="yes"/>
      <point x="256" y="710"/>
      <point x="129" y="595"/>
      <point x="84" y="419" type="curve" smooth="yes"/>
      <point x="68" y="358"/>
      <point x="64" y="342"/>
      <point x="54" y="281" type="curve" smooth="yes"/>
      <point x="25" y="105"/>
      <point x="112" y="-10"/>
      <point x="274" y="-10" type="curve" smooth="yes"/>
      <point x="454" y="-10"/>
      <point x="547" y="109"/>
      <point x="564" y="176" type="curve" smooth="yes"/>
      <point x="567" y="188"/>
      <point x="559" y="198"/>
      <point x="547" y="198" type="curve" smooth="yes"/>
      <point x="496" y="198" type="line" smooth="yes"/>
      <point x="485" y="198"/>
      <point x="473" y="190"/>
      <point x="465" y="176" type="curve" smooth="yes"/>
      <point x="439" y="129"/>
      <point x="373" y="80"/>
    </contour>
  </outline>
</glyph>
